<?xml version="1.0" encoding="UTF-8" standalone="no"?>
<!-- Created with Inkscape (http://www.inkscape.org/) -->
<svg
   xmlns:dc="http://purl.org/dc/elements/1.1/"
   xmlns:cc="http://web.resource.org/cc/"
   xmlns:rdf="http://www.w3.org/1999/02/22-rdf-syntax-ns#"
   xmlns:svg="http://www.w3.org/2000/svg"
   xmlns="http://www.w3.org/2000/svg"
   xmlns:xlink="http://www.w3.org/1999/xlink"
   xmlns:sodipodi="http://sodipodi.sourceforge.net/DTD/sodipodi-0.dtd"
   xmlns:inkscape="http://www.inkscape.org/namespaces/inkscape"
   version="1.0"
   width="32"
   height="32"
   viewBox="0 0 1523.643 1258.418"
   id="Layer_1"
   xml:space="preserve"
   sodipodi:version="0.32"
   inkscape:version="0.44.1"
   sodipodi:docname="neil.svg"
   sodipodi:docbase="C:\zzub\share\icons\hicolor\32x32\apps"><metadata
   id="metadata34"><rdf:RDF><cc:Work
       rdf:about=""><dc:format>image/svg+xml</dc:format><dc:type
         rdf:resource="http://purl.org/dc/dcmitype/StillImage" /></cc:Work></rdf:RDF></metadata><sodipodi:namedview
   inkscape:window-height="744"
   inkscape:window-width="1280"
   inkscape:pageshadow="2"
   inkscape:pageopacity="0.0"
   guidetolerance="10.0"
   gridtolerance="10.0"
   objecttolerance="10.0"
   borderopacity="1.0"
   bordercolor="#666666"
   pagecolor="#ffffff"
   id="base"
   showgrid="true"
   inkscape:grid-bbox="false"
   inkscape:zoom="17.125"
   inkscape:cx="16"
   inkscape:cy="16"
   inkscape:window-x="-4"
   inkscape:window-y="-4"
   inkscape:current-layer="Layer_1" /><defs
   id="defs2173"><linearGradient
     id="linearGradient2903"><stop
       style="stop-color:black;stop-opacity:0.53333336"
       offset="0"
       id="stop2905" /><stop
       style="stop-color:black;stop-opacity:0"
       offset="1"
       id="stop2907" /></linearGradient><linearGradient
     id="linearGradient2893"><stop
       style="stop-color:#4a82d5;stop-opacity:1"
       offset="0"
       id="stop2895" /><stop
       style="stop-color:#204a87;stop-opacity:1"
       offset="1"
       id="stop2897" /></linearGradient><linearGradient
     id="linearGradient2885"><stop
       style="stop-color:#f78a8a;stop-opacity:1"
       offset="0"
       id="stop2887" /><stop
       style="stop-color:#ef2929;stop-opacity:1"
       offset="1"
       id="stop2889" /></linearGradient><linearGradient
     id="linearGradient2877"><stop
       style="stop-color:white;stop-opacity:1"
       offset="0"
       id="stop2879" /><stop
       style="stop-color:#d3d8d0;stop-opacity:1"
       offset="1"
       id="stop2881" /></linearGradient><radialGradient
     cx="1103.1901"
     cy="664.50476"
     r="317.28772"
     fx="1103.1901"
     fy="664.50476"
     id="radialGradient2883"
     xlink:href="#linearGradient2877"
     gradientUnits="userSpaceOnUse"
     gradientTransform="matrix(0.577166,-0.462968,1.125855,1.403563,-485.4088,84.42979)" /><radialGradient
     cx="911.69879"
     cy="726.38788"
     r="496.23434"
     fx="911.69879"
     fy="726.38788"
     id="radialGradient2891"
     xlink:href="#linearGradient2885"
     gradientUnits="userSpaceOnUse"
     gradientTransform="matrix(0.905823,-0.423655,0.135792,0.29034,13.57109,669.5199)" /><radialGradient
     cx="711.53125"
     cy="663.01563"
     r="525.65625"
     fx="711.53125"
     fy="663.01563"
     id="radialGradient2899"
     xlink:href="#linearGradient2893"
     gradientUnits="userSpaceOnUse"
     gradientTransform="matrix(1,0,0,1.00003,0,-1.970797e-2)" /><radialGradient
     cx="675.71881"
     cy="1318.0304"
     r="496.02628"
     fx="675.71881"
     fy="1318.0304"
     id="radialGradient2909"
     xlink:href="#linearGradient2903"
     gradientUnits="userSpaceOnUse"
     gradientTransform="matrix(1,0,0,0.135849,74.6533,1095.379)" /><radialGradient
     inkscape:collect="always"
     xlink:href="#linearGradient2893"
     id="radialGradient1912"
     gradientUnits="userSpaceOnUse"
     gradientTransform="matrix(1,0,0,1.00003,0,-1.970797e-2)"
     cx="711.53125"
     cy="663.01563"
     fx="711.53125"
     fy="663.01563"
     r="525.65625" /><radialGradient
     inkscape:collect="always"
     xlink:href="#linearGradient2877"
     id="radialGradient1914"
     gradientUnits="userSpaceOnUse"
     gradientTransform="matrix(0.577166,-0.462968,1.125855,1.403563,-485.4088,84.42979)"
     cx="1103.1901"
     cy="664.50476"
     fx="1103.1901"
     fy="664.50476"
     r="317.28772" /><radialGradient
     inkscape:collect="always"
     xlink:href="#linearGradient2885"
     id="radialGradient1916"
     gradientUnits="userSpaceOnUse"
     gradientTransform="matrix(0.905823,-0.423655,0.135792,0.29034,13.57109,669.5199)"
     cx="911.69879"
     cy="726.38788"
     fx="911.69879"
     fy="726.38788"
     r="496.23434" /><radialGradient
     inkscape:collect="always"
     xlink:href="#linearGradient2877"
     id="radialGradient1918"
     gradientUnits="userSpaceOnUse"
     gradientTransform="matrix(0.577166,-0.462968,1.125855,1.403563,-485.4088,84.42979)"
     cx="1103.1901"
     cy="664.50476"
     fx="1103.1901"
     fy="664.50476"
     r="317.28772" /><radialGradient
     inkscape:collect="always"
     xlink:href="#linearGradient2877"
     id="radialGradient1921"
     gradientUnits="userSpaceOnUse"
     gradientTransform="matrix(18.32073,-14.69579,35.73752,44.55268,-15385.87,2536.284)"
     cx="1103.1901"
     cy="664.50476"
     fx="1103.1901"
     fy="664.50476"
     r="317.28772" /><radialGradient
     inkscape:collect="always"
     xlink:href="#linearGradient2885"
     id="radialGradient1925"
     gradientUnits="userSpaceOnUse"
     gradientTransform="matrix(0.905823,-0.423655,0.135792,0.29034,5.229975,661.1788)"
     cx="911.69879"
     cy="726.38788"
     fx="911.69879"
     fy="726.38788"
     r="496.23434" /><radialGradient
     inkscape:collect="always"
     xlink:href="#linearGradient2877"
     id="radialGradient1930"
     gradientUnits="userSpaceOnUse"
     gradientTransform="matrix(18.32073,-14.69579,35.73752,44.55268,-15385.87,2536.284)"
     cx="1103.1901"
     cy="664.50476"
     fx="1103.1901"
     fy="664.50476"
     r="317.28772" /><radialGradient
     inkscape:collect="always"
     xlink:href="#linearGradient2893"
     id="radialGradient1936"
     gradientUnits="userSpaceOnUse"
     gradientTransform="matrix(1.047603,0,0,1.047634,-4.192677,-87.70742)"
     cx="711.53125"
     cy="663.01563"
     fx="711.53125"
     fy="663.01563"
     r="525.65625" /><radialGradient
     inkscape:collect="always"
     xlink:href="#linearGradient2877"
     id="radialGradient1942"
     gradientUnits="userSpaceOnUse"
     gradientTransform="matrix(18.32073,-14.69579,35.73752,44.55268,-15385.87,2536.284)"
     cx="1103.1901"
     cy="664.50476"
     fx="1103.1901"
     fy="664.50476"
     r="317.28772" /><radialGradient
     inkscape:collect="always"
     xlink:href="#linearGradient2877"
     id="radialGradient1946"
     gradientUnits="userSpaceOnUse"
     gradientTransform="matrix(18.32073,-14.69579,35.73752,44.55268,-15385.87,2536.284)"
     cx="1103.1901"
     cy="664.50476"
     fx="1103.1901"
     fy="664.50476"
     r="317.28772" /></defs>

























































<path
   d="M 1246.3984,1274.4326 C 1246.3984,1311.6481 1024.3199,1341.8173 750.37212,1341.8173 C 476.42437,1341.8173 254.34584,1311.6481 254.34584,1274.4326 C 254.34584,1237.2171 476.42437,1207.0479 750.37212,1207.0479 C 1024.3199,1207.0479 1246.3984,1237.2171 1246.3984,1274.4326 z "
   style="opacity:1;color:black;fill:url(#radialGradient2909);fill-opacity:1;fill-rule:nonzero;stroke:none;stroke-width:31.74258995;stroke-linecap:butt;stroke-linejoin:miter;marker:none;marker-start:none;marker-mid:none;marker-end:none;stroke-miterlimit:4;stroke-dasharray:none;stroke-dashoffset:0;stroke-opacity:1;visibility:visible;display:inline;overflow:visible"
   id="path2901" /><path
   d="M 96.314091,606.87794 C 96.314091,250.7078 385.04149,-38.019596 741.21162,-38.019596 C 1097.3818,-38.019596 1386.1102,250.7078 1386.1102,606.87794 C 1386.1102,963.04807 1097.3828,1251.7959 741.21162,1251.7959 C 385.04149,1251.7959 96.314091,963.04807 96.314091,606.87794"
   style="fill:#182f4d;fill-opacity:1;stroke:none;stroke-width:31.74259377;stroke-miterlimit:4;stroke-dasharray:none;stroke-opacity:1"
   id="path3168" /><path
   d="M 741.20929,10.324294 C 411.33619,10.324294 144.6602,277.0003 144.6602,606.87339 C 144.6602,936.7465 411.33835,1203.4559 741.20929,1203.4559 C 1071.0811,1203.4559 1337.7583,936.74657 1337.7583,606.87339 C 1337.7583,277.00029 1071.0823,10.324294 741.20929,10.324294 z "
   style="fill:#3a78d1;fill-opacity:1;stroke:none;stroke-width:31.74259377;stroke-miterlimit:4;stroke-dasharray:none;stroke-opacity:1"
   id="path3220" /><path
   d="M 741.20929,56.194896 C 436.22821,56.194896 190.53045,301.89267 190.53045,606.87374 C 190.53045,911.85467 436.23271,1157.5853 741.20929,1157.5853 C 1046.1868,1157.5853 1291.8881,911.85481 1291.8881,606.87374 C 1291.8881,301.89265 1046.1903,56.194896 741.20929,56.194896 z "
   style="fill:url(#radialGradient1936);fill-opacity:1;stroke:none;stroke-width:31.74259377;stroke-miterlimit:4;stroke-dasharray:none;stroke-opacity:1"
   id="path3222" /><path
   sodipodi:type="inkscape:offset"
   inkscape:radius="22.287058"
   inkscape:original="M 557.375 574.34375 C 545.33161 574.80405 534.23683 581.39672 528.0625 591.75 L 521.25 603.125 C 514.44246 614.49889 514.52313 628.89754 521.46875 640.1875 L 539.75 669.90625 C 539.94256 670.21177 540.14053 670.51392 540.34375 670.8125 C 540.91042 671.66671 541.48672 672.50993 542.125 673.3125 C 542.12498 673.31248 569.85464 710.71159 588.5 735.28125 C 606.9397 759.54222 635.78125 796.625 635.78125 796.625 L 645.21875 809.9375 C 648.0092 815.28193 666.65847 851.51945 697.75 876.03125 C 708.46807 884.47507 720.50313 891.23441 734.78125 894.46875 C 741.85069 896.07012 750.63337 897.02976 760.40625 894.8125 C 771.31409 892.33772 782.08058 885.95642 789.25 874.78125 C 795.56898 864.95803 798.08714 853.34096 796.84375 842.25 C 795.68525 831.91641 791.73017 823.60892 787.71875 817.1875 C 779.73264 804.40348 769.73885 795.40933 759.625 786.78125 C 741.71939 771.51593 719.9606 758.46687 713.0625 754.375 L 705.03125 744.84375 C 705.03123 744.84373 674.69729 707.47096 656.3125 683.5625 C 637.55464 659.14031 608.25 618.78125 608.25 618.78125 L 588.09375 589.6875 C 581.1846 579.704 569.56806 573.90252 557.4375 574.34375 L 557.375 574.34375 z "
   style="color:black;fill:#33372e;fill-opacity:1;fill-rule:nonzero;stroke:none;stroke-width:31.74259377;stroke-linecap:butt;stroke-linejoin:miter;marker:none;marker-start:none;marker-mid:none;marker-end:none;stroke-miterlimit:4;stroke-dasharray:none;stroke-dashoffset:0;stroke-opacity:1;visibility:visible;display:inline;overflow:visible"
   id="path1954"
   d="M 556.53125,552.0625 C 536.89422,552.81303 518.96456,563.4777 508.90625,580.34375 L 502.125,591.6875 C 491.02088,610.24002 491.16345,633.44767 502.5,651.875 L 520.78125,681.59375 C 520.8226,681.65646 520.86427,681.71896 520.90625,681.78125 C 521.23863,682.30861 521.55608,682.82926 521.90625,683.34375 C 522.5859,684.36827 523.38352,685.54788 524.6875,687.1875 C 524.6875,687.1875 551.95347,723.98113 570.75,748.75 C 589.34392,773.21388 618.1875,810.3125 618.1875,810.3125 L 626.28125,821.75 C 630.0155,828.98043 649.28737,866.21394 683.9375,893.53125 C 696.48453,903.41594 711.6722,912.10245 729.84375,916.21875 C 738.92107,918.27495 751.40799,919.72423 765.34375,916.5625 C 781.22741,912.9588 797.43691,903.27748 808,886.8125 C 817.18674,872.53119 820.80653,855.8954 819,839.78125 C 817.36313,825.18073 811.72503,813.53905 806.625,805.375 C 796.70103,789.48889 784.51065,778.69911 774.09375,769.8125 C 755.88985,754.29287 736.67975,742.63248 727.875,737.375 L 722.0625,730.46875 C 722.0625,730.46875 691.9737,693.38325 673.96875,669.96875 C 655.60568,646.06057 626.28125,605.6875 626.28125,605.6875 L 606.40625,577 C 595.14401,560.72643 576.3639,551.34453 556.625,552.0625 C 556.59375,552.06243 556.5625,552.06243 556.53125,552.0625 z " /><path
   sodipodi:type="inkscape:offset"
   inkscape:radius="11.449151"
   inkscape:original="M 558.5625 605.09375 C 556.88781 605.15477 555.35833 606.06073 554.5 607.5 L 547.65625 618.9375 C 546.71025 620.51801 546.72232 622.49362 547.6875 624.0625 L 565.96875 653.8125 C 566.04709 653.9306 566.13052 654.04531 566.21875 654.15625 C 566.21873 654.15623 594.57249 692.40491 613 716.6875 C 631.22593 740.66722 660.0625 777.75 660.0625 777.75 L 671.34375 793.5625 L 671.375 793.625 C 672.1461 795.02287 693.43345 833.44353 716.8125 851.875 C 724.59202 858.00379 733.34513 862.60024 741.59375 864.46875 C 745.71804 865.40298 749.76448 865.68128 753.59375 864.8125 C 757.423 863.9437 761.07667 861.69001 763.34375 858.15625 C 765.80697 854.327 766.75651 849.9268 766.28125 845.6875 C 765.80597 841.44818 764.07047 837.41467 761.625 833.5 C 756.73404 825.67064 748.8744 818.05146 739.65625 810.1875 C 723.35168 796.28713 693.96115 778.69833 692.6875 777.9375 L 681.5 764.65625 C 681.49998 764.65623 650.8193 726.90793 631.90625 702.3125 C 612.6098 677.18908 583.34375 636.84375 583.34375 636.84375 L 562.8125 607.21875 C 561.85194 605.83078 560.24919 605.02941 558.5625 605.09375 z "
   style="color:black;fill:#d3d7cf;fill-opacity:1;fill-rule:nonzero;stroke:none;stroke-width:31.74259377;stroke-linecap:butt;stroke-linejoin:miter;marker:none;marker-start:none;marker-mid:none;marker-end:none;stroke-miterlimit:4;stroke-dasharray:none;stroke-dashoffset:0;stroke-opacity:1;visibility:visible;display:inline;overflow:visible"
   id="path1948"
   d="M 558.125,593.65625 C 552.59496,593.86834 547.4913,596.87112 544.65625,601.625 L 537.84375,613.0625 C 534.71646,618.28736 534.74697,624.87636 537.9375,630.0625 L 556.21875,659.8125 C 556.28962,659.92837 556.36255,660.04297 556.4375,660.15625 C 556.69791,660.54882 556.9572,660.91308 557.25,661.28125 C 557.25,661.28125 585.36643,699.20434 603.875,723.59375 C 622.18048,747.67813 651.03125,784.78125 651.03125,784.78125 L 661.625,799.625 C 663.18746,802.49629 683.34877,840.08556 709.71875,860.875 C 718.59173,867.86523 728.57025,873.24825 739.0625,875.625 C 744.28266,876.80746 750.08403,877.33932 756.125,875.96875 C 762.58816,874.50236 768.87745,870.72097 772.96875,864.34375 C 776.86666,858.28417 778.41734,851.19513 777.65625,844.40625 C 776.92674,837.89929 774.37193,832.28496 771.34375,827.4375 C 765.30107,817.76449 756.6452,809.61704 747.09375,801.46875 C 730.08236,786.96579 703.98276,771.38078 700.25,769.15625 L 690.25,757.28125 C 690.25,757.28125 659.68523,719.68355 640.96875,695.34375 C 621.87271,670.48126 592.625,630.125 592.625,630.125 L 572.21875,600.6875 C 569.04626,596.10339 563.72613,593.45453 558.15625,593.65625 L 558.125,593.65625 z " /><path
   sodipodi:type="inkscape:offset"
   inkscape:radius="20.482401"
   inkscape:original="M 548.96875 178.65625 C 513.72676 178.74093 483.65224 189.25098 462.65625 205.4375 C 432.66463 228.54777 417.30898 262.6794 412.09375 297.6875 C 406.90029 332.54947 411.12542 370.16893 419.03125 406.8125 C 434.85282 480.14549 468.50178 553.26517 499.375 605.1875 C 508.2432 620.14961 526.61371 626.80488 543.03125 621.0625 L 554.9375 617.09375 C 565.65094 613.34987 574.07212 605.09673 577.75 594.28125 C 581.42798 583.4657 579.9003 571.8908 573.78125 562.53125 C 557.78542 537.99282 522.28055 466.98713 505.3125 401.84375 C 496.83264 369.28801 492.72825 337.06264 495.40625 314.5625 C 498.12558 291.71508 503.90087 281.50665 517.21875 273.875 C 532.19268 265.29863 550.46029 263.68341 575.75 269.90625 C 600.90141 276.09505 631.64053 290.56973 664.03125 312.5625 C 670.89368 317.22198 677.89189 325.17006 684.875 330.40625 L 684.875 223.28125 C 633.3414 193.79657 587.4061 178.56391 548.96875 178.65625 z "
   style="fill:#33372e;fill-opacity:1;stroke:none;stroke-width:31.74259377;stroke-miterlimit:4;stroke-dasharray:none;stroke-opacity:1"
   id="path1952"
   d="M 548.90625,158.1875 C 509.62005,158.2819 475.24715,169.87532 450.15625,189.21875 C 415.11865,216.21724 397.63646,255.7717 391.84375,294.65625 C 386.09532,333.24355 390.80196,373.12705 399,411.125 C 415.49224,487.56655 449.93208,562.09257 481.78125,615.65625 C 495.6171,638.9996 524.21358,649.34908 549.78125,640.40625 L 561.40625,636.53125 C 561.50022,636.50068 561.59398,636.46943 561.6875,636.4375 C 578.09499,630.7038 591.43272,617.7061 597.15625,600.875 C 602.82497,584.20543 600.43448,565.83885 590.9375,551.3125 C 577.24094,530.30128 541.25143,458.59973 525.125,396.6875 C 517.06982,365.76217 513.63354,334.75091 515.75,316.96875 C 516.95086,306.87933 518.75761,301.20748 520.34375,298.28125 C 521.92989,295.35502 523.0574,294.14831 527.40625,291.65625 C 537.10836,286.09933 548.57473,284.30169 570.84375,289.78125 C 592.55981,295.12474 621.66753,308.54404 652.53125,329.5 C 655.79213,331.71408 662.90626,339.51722 672.59375,346.78125 C 678.79897,351.42035 687.09054,352.1616 694.02025,348.69675 C 700.94995,345.2319 705.33189,338.15389 705.34375,330.40625 L 705.34375,223.28125 C 705.34404,215.93361 701.40898,209.14861 695.03125,205.5 C 641.5832,174.91998 592.79418,158.08207 548.90625,158.1875 z " /><path
   sodipodi:type="inkscape:offset"
   inkscape:radius="9.3101816"
   inkscape:original="M 548.96875 208.40625 C 519.6696 208.47666 497.13417 217.22116 481.53125 229.25 C 458.72552 246.8231 446.26622 272.96975 441.84375 302.65625 C 437.42131 332.34275 440.36286 365.45951 447.78125 399.84375 C 462.618 468.61224 494.87175 541.00951 524.1875 590.3125 C 525.95325 593.29156 529.82486 594.42461 533.09375 593.28125 L 545 589.3125 C 547.11128 588.57471 549.24873 586.49239 549.96875 584.375 C 550.68881 582.25762 550.19258 580.27817 548.96875 578.40625 C 530.17194 549.57093 494.67728 478.32719 476.5625 408.78125 C 467.50511 374.00829 463.23712 340.02697 466.625 311.5625 C 470.01289 283.09801 480.98133 260.90826 503.34375 248.09375 C 526.05089 235.08822 552.43369 233.71195 582.6875 241.15625 C 612.94133 248.60054 646.58565 265.44687 680.90625 288.75 C 682.17007 289.60809 683.60882 290.84317 684.875 291.71875 L 684.875 257.03125 C 629.94148 222.48323 584.39446 208.32115 548.96875 208.40625 z "
   style="fill:url(#radialGradient1946);fill-opacity:1;stroke:none;stroke-width:31.74259377;stroke-miterlimit:4;stroke-dasharray:none;stroke-opacity:1"
   id="path1944"
   d="M 548.9375,199.09375 C 517.79739,199.16858 493.15174,208.53166 475.84375,221.875 C 450.7999,241.1727 437.30558,269.86217 432.625,301.28125 C 427.96522,332.56091 431.11621,366.71955 438.6875,401.8125 C 453.82679,471.98328 486.35867,544.89661 516.1875,595.0625 C 520.46893,602.28585 528.91549,604.5951 536.15625,602.0625 L 547.9375,598.15625 C 547.97932,598.13573 548.02099,598.1149 548.0625,598.09375 C 553.47649,596.20182 556.85212,593.04808 558.78125,587.375 C 560.49056,582.34868 558.98804,576.73572 556.75,573.3125 C 538.85621,545.86247 503.32046,474.61355 485.5625,406.4375 C 476.69821,372.4059 472.69835,339.34599 475.875,312.65625 C 479.05128,285.96966 488.48961,267.31853 507.96875,256.15625 C 528.22288,244.55568 551.69289,243.10687 580.46875,250.1875 C 609.11319,257.23578 641.9811,273.5514 675.6875,296.4375 C 676.2332,296.80801 677.6725,298.04643 679.59375,299.375 C 682.44085,301.33656 686.14043,301.55904 689.20209,299.95282 C 692.26375,298.34659 694.18332,295.17616 694.1875,291.71875 L 694.1875,257.03125 C 694.18736,253.83465 692.54746,250.86159 689.84375,249.15625 C 633.91763,213.98398 586.86364,199.00264 548.9375,199.09375 z " /><path
   sodipodi:type="inkscape:offset"
   inkscape:radius="17.165157"
   inkscape:original="M 1475.1563 46.1875 C 1470.5292 46.183247 1465.9671 47.275595 1461.8438 49.375 C 1461.8437 49.375 1282.444 322.1843 390.65625 594.71875 C 236.44983 651.76516 225.19186 662.24039 204.25 671.03125 C 72.66011 728.74095 33.40625 759 33.40625 759 C 23.926736 764.5159 18.340176 774.85961 18.90625 785.8125 C 19.472324 796.76535 26.096111 806.49075 36.09375 811 L 54.65625 819.375 C 62.738812 823.01387 72.03468 822.79553 79.9375 818.78125 L 193.28125 761.1875 L 193.8125 760.9375 C 249.80069 738.46997 334.62873 707.58267 442.8125 679.84375 C 544.87986 658.11577 638.70422 627.60695 733.21875 604.6875 C 793.29272 590.12314 853.68206 572.33937 912.3125 551.90625 C 835.16037 605.39081 773.16405 646.70011 754.59375 658.15625 C 633.43251 732.8947 455.70531 857.20483 371.4375 932.5 C 298.88437 997.35037 193.53125 1095.4687 193.53125 1095.4688 C 187.94241 1100.6791 184.61166 1107.8677 184.25 1115.5 L 183.3125 1135.0313 C 183.25921 1136.1455 183.26965 1137.2619 183.34375 1138.375 C 183.34375 1138.375 235.09753 1155.215 238.125 1152.1563 C 241.15247 1149.0975 245.7384 1144.5212 251.8125 1138.625 C 263.9607 1126.8325 282.09086 1109.7417 305.8125 1088.6875 C 353.25576 1046.5793 423.04093 988.7089 511.84375 926.25 C 601.06919 864.46269 763.4004 753.58411 871.78125 686.59375 C 987.73681 614.93313 1110.7612 521.02637 1193 457.1875 C 1292.8651 379.66551 1354.5126 311.77828 1381.0313 281.5 C 1448.2636 204.68624 1501.5937 89.8125 1501.5938 89.8125 C 1503.5228 85.690139 1504.4645 81.17482 1504.3438 76.625 C 1504.3498 76.281277 1504.3499 75.937473 1504.3438 75.59375 C 1504.377 67.822442 1501.3184 60.359421 1495.8438 54.84375 C 1490.3691 49.328077 1482.9276 46.21224 1475.1563 46.1875 z "
   style="color:black;fill:#600;fill-opacity:1;fill-rule:nonzero;stroke:none;stroke-width:31.74258995;stroke-linecap:butt;stroke-linejoin:miter;marker:none;marker-start:none;marker-mid:none;marker-end:none;stroke-miterlimit:4;stroke-dasharray:none;stroke-dashoffset:0;stroke-opacity:1;visibility:visible;display:inline;overflow:visible"
   id="path1956"
   d="M 1475.1875,29.03125 C 1467.8485,29.024504 1460.6025,30.76387 1454.0625,34.09375 L 1455.9688,37.84375 C 1451.5004,42.078854 1434.5852,58.085825 1407.9375,83.9375 C 1378.0339,112.94775 1328.6094,154.87949 1251.2813,205.46875 C 1096.6249,306.64726 830.2956,442.41911 385.625,578.3125 C 385.30957,578.40765 384.99694,578.51186 384.6875,578.625 C 230.09475,635.81433 216.07276,647.46173 197.59375,655.21875 C 197.51017,655.24935 197.42684,655.2806 197.34375,655.3125 C 71.939097,710.30962 29.144894,740.94414 24.78125,744.15625 C 24.535709,744.33699 22.9375,745.40625 22.9375,745.40625 C 9.0872273,754.38963 0.89332524,770.11181 1.75,786.6875 C 2.6452823,804.01013 13.191762,819.51214 29.03125,826.65625 L 47.59375,835.03125 C 60.403141,840.7982 75.194265,840.45563 87.71875,834.09375 L 200.65625,776.71875 C 256.13299,754.47091 340.00513,723.91886 447.0625,696.46875 C 550.2351,674.50549 643.59748,644.08542 737.25,621.375 C 760.60377,615.7131 783.99023,609.43517 807.3125,602.84375 C 777.49615,622.90261 754.77966,637.89565 745.59375,643.5625 C 623.57778,718.82819 446.21005,842.65689 360,919.6875 C 323.59432,952.22809 279.09617,993.02165 243.65625,1025.6875 C 225.93629,1042.0204 210.48967,1056.3097 199.46875,1066.5313 C 188.44783,1076.7528 181.84375,1082.9063 181.84375,1082.9063 L 193.53125,1095.4688 L 181.8125,1082.9063 C 172.95184,1091.1668 167.66714,1102.587 167.09375,1114.6875 L 166.15625,1134.2188 C 166.07171,1135.9863 166.10122,1137.7345 166.21875,1139.5 C 166.68274,1146.5007 171.36015,1152.5145 178.03125,1154.6875 C 178.03125,1154.6875 191.15222,1158.9709 204.84375,1162.9063 C 211.68951,1164.8739 218.64233,1166.7604 224.625,1168.0625 C 227.61634,1168.7135 230.29945,1169.244 233.21875,1169.5313 C 234.6784,1169.6749 236.1503,1169.8098 238.40625,1169.625 C 240.6622,1169.4402 244.43811,1170.1537 250.3125,1164.2188 C 253.26502,1161.2357 257.79396,1156.7494 263.78125,1150.9375 C 275.75249,1139.3168 293.69879,1122.4064 317.21875,1101.5313 C 364.25158,1059.7873 433.53561,1002.3043 521.71875,940.28125 C 610.83491,878.56961 773.11669,767.75443 880.8125,701.1875 C 997.8541,628.8557 1121.1832,534.67365 1203.5313,470.75 C 1304.5278,392.34969 1367.1102,323.44308 1393.9375,292.8125 C 1428.8652,252.90715 1459.4025,204.21387 1481.4688,165.3125 C 1492.5019,145.86181 1501.3794,128.88946 1507.5313,116.71875 C 1513.6831,104.54804 1517.1563,97.03125 1517.1563,97.03125 C 1517.1563,97.052083 1517.1563,97.072917 1517.1563,97.09375 C 1520.2158,90.555481 1521.6914,83.372912 1521.5,76.15625 C 1521.5096,75.612817 1521.5097,75.829674 1521.5,75.28125 C 1521.5527,62.959112 1516.7076,51.49144 1508.0313,42.75 C 1499.3548,34.008536 1487.5432,29.070485 1475.2188,29.03125 C 1475.2084,29.03124 1475.1979,29.03124 1475.1875,29.03125 z " /><path
   sodipodi:type="inkscape:offset"
   inkscape:radius="12.434195"
   inkscape:original="M 1475.125 75.46875 C 1475.125 75.468746 1245.9727 385.39129 403.9375 620.8125 C 256.93506 677.28618 496.04361 588.03875 281.3125 667.28125 C 151.42685 724.24356 48.125 784.3125 48.125 784.3125 L 66.6875 792.6875 L 180.03125 735.09375 L 181.90625 734.15625 C 238.76008 711.30767 325.26592 679.74139 435.53125 651.46875 C 535.68262 630.14864 630.35978 599.48696 726.3125 576.21875 C 886.88728 537.28889 1050.475 474.82731 1172.25 400.625 C 1012.7578 521.59964 810.08202 658.31637 769.96875 683.0625 C 650.3273 756.86342 471.77209 882.11624 390.9375 954.34375 C 318.82897 1018.7968 213.5 1116.9375 213.5 1116.9375 L 212.5625 1136.4375 C 212.56251 1136.4376 315.28594 1028.7133 495 902.3125 C 584.40423 840.4014 746.83076 729.39695 856.375 661.6875 C 970.46531 591.17955 1092.9895 497.77971 1175.0313 434.09375 C 1272.978 358.06101 1332.9979 291.90715 1359 262.21875 C 1421.5779 190.72274 1475.125 77.34375 1475.125 77.34375 L 1471.4063 81.96875 C 1472.0681 80.681409 1475.125 75.46875 1475.125 75.46875 z "
   style="color:black;fill:#f35252;fill-opacity:1;fill-rule:nonzero;stroke:none;stroke-width:31.74258995;stroke-linecap:butt;stroke-linejoin:miter;marker:none;marker-start:none;marker-mid:none;marker-end:none;stroke-miterlimit:4;stroke-dasharray:none;stroke-dashoffset:0;stroke-opacity:1;visibility:visible;display:inline;overflow:visible"
   id="path1958"
   d="M 1475.0938,63.0625 C 1471.1679,63.062142 1467.4724,64.915686 1465.125,68.0625 C 1465.125,68.0625 1409.8275,143.33905 1248.4688,249.46875 C 1087.11,355.59845 820.53038,491.43537 400.59375,608.84375 C 400.213,608.95079 399.83757,609.07593 399.46875,609.21875 C 381.07848,616.28371 368.71923,621.04852 360.71875,624.1875 C 352.71827,627.32648 350.63197,627.99714 347.34375,629.65625 C 347.20674,629.72538 346.99124,629.85204 346.78125,629.96875 C 333.19723,634.93609 319.02277,640.11728 277,655.625 C 276.76808,655.71188 276.53881,655.80568 276.3125,655.90625 C 145.70307,713.18598 41.875,773.5625 41.875,773.5625 C 37.842504,775.9006 35.456208,780.29752 35.693252,784.95279 C 35.930295,789.60806 38.750867,793.73984 43,795.65625 L 61.5625,804.03125 C 64.998512,805.58155 68.95227,805.4896 72.3125,803.78125 L 185.65625,746.1875 L 187.09375,745.46875 C 243.58178,722.78591 329.3237,691.52546 438.625,663.5 C 539.59009,642.00667 633.90807,611.43259 729.25,588.3125 C 834.88057,562.70335 941.62912,527.0099 1037.4063,484.40625 C 912.30796,574.16588 792.1755,654.7401 763.4375,672.46875 C 643.15058,746.66783 464.9489,871.53218 382.65625,945.0625 C 310.35742,1009.6856 205.03125,1107.8438 205.03125,1107.8438 C 202.66094,1110.0556 201.24809,1113.1055 201.09375,1116.3438 L 200.15625,1135.8438 C 200.12102,1136.4583 200.13147,1137.0746 200.1875,1137.6875 C 200.1875,1137.6875 227.77862,1138.517 240.09375,1126.5625 C 252.40888,1114.608 270.73272,1097.2958 294.65625,1076.0625 C 342.5033,1033.5959 412.74693,975.35425 502.15625,912.46875 C 591.48456,850.61022 753.85609,739.65406 862.90625,672.25 C 977.78729,601.25338 1100.5292,507.65836 1182.6563,443.90625 C 1281.4191,367.24002 1342.1251,300.3419 1368.3438,270.40625 C 1432.8972,196.65318 1486.375,82.65625 1486.375,82.65625 C 1487.3062,80.667833 1487.6944,78.468304 1487.5,76.28125 C 1487.7163,72.854751 1486.5063,69.491303 1484.1567,66.987858 C 1481.8071,64.484413 1478.5271,63.063754 1475.0938,63.0625 L 1475.0938,63.0625 z " /><path
   d="M 1425.9401,124.62764 C 1425.9401,124.62764 1359.1864,358.18114 433.47139,629.90889 C 407.90524,658.20966 625.03541,578.67874 721.25264,555.34639 C 879.95981,516.86929 1042.0174,454.82441 1161.0651,382.28389 C 1166.4813,379.00581 1173.0672,378.2821 1179.066,380.3058 C 1185.0648,382.32949 1189.8664,386.89477 1192.1901,392.78389 C 1270.751,328.35436 1320.0456,274.09836 1342.8464,248.06514 C 1374.7819,211.57843 1404.7758,162.48071 1425.9401,124.62764 z "
   style="color:black;fill:url(#radialGradient1925);fill-opacity:1;fill-rule:nonzero;stroke:none;stroke-width:31.74258995;stroke-linecap:butt;stroke-linejoin:miter;marker:none;marker-start:none;marker-mid:none;marker-end:none;stroke-miterlimit:4;stroke-dasharray:none;stroke-dashoffset:0;stroke-opacity:1;visibility:visible;display:inline;overflow:visible"
   id="path3218" /><path
   sodipodi:type="inkscape:offset"
   inkscape:radius="17.565786"
   inkscape:original="M 682.75 221.875 L 682.75 329 C 741.71599 373.21476 806.07391 435.87358 859.4375 501.03125 C 954.9212 617.61705 998.39038 714.81224 1013.2188 783.75 C 1020.6043 818.08525 1020.4082 845.26476 1017.1875 864.09375 C 1013.9669 882.92273 1006.2048 892.88064 1006.25 892.84375 C 995.00906 902.01611 972.74352 904.80835 950.71875 901.78125 C 928.55023 898.73436 911.03125 891.875 911.03125 891.875 C 910.85486 891.80042 911.20904 890.94619 911.03125 890.875 C 909.07591 890.12363 907.14816 890.28435 905.09375 889.875 L 884.25 884.9375 C 865.76509 881.08385 847.10724 892.75935 841.59375 910.71875 C 836.08017 928.67827 845.12298 948.22262 862.4375 955.34375 C 862.54144 955.386 863.30185 955.30268 863.40625 955.34375 L 886.25 964.28125 C 889.46011 965.70003 911.4318 975.94742 941.78125 981.15625 C 974.38705 986.75237 1020.2904 988.05349 1058.8438 960.3125 C 1076.3553 947.71949 1085.5005 928.63115 1093.5625 902.78125 C 1101.8185 876.30881 1106.8995 841.48745 1102.4688 798.625 C 1093.609 712.91665 1048.7244 596.07761 927.90625 447.46875 C 832.49429 330.09624 751.41734 261.16267 682.75 221.875 z "
   style="fill:#33372e;fill-opacity:1;stroke:none;stroke-width:31.74259377;stroke-miterlimit:4;stroke-dasharray:none;stroke-opacity:1"
   id="path1950"
   d="M 683.09375,204.3125 C 678.37702,204.22154 673.82191,206.03148 670.45388,209.33485 C 667.08586,212.63822 665.18798,217.15739 665.1875,221.875 L 665.1875,329 C 665.18583,334.53324 667.79116,339.74389 672.21875,343.0625 C 729.72007,386.179 793.36901,448.08388 845.84375,512.15625 C 939.95102,627.06142 981.97317,722.08107 996.03125,787.4375 C 1003.0025,819.84709 1002.642,844.94825 999.875,861.125 C 998.57333,868.73512 996.40095,874.35944 994.6875,877.90625 C 994.2197,878.8746 993.932,879.28325 993.5625,879.9375 C 988.04806,882.97463 970.74967,886.79735 953.125,884.375 C 937.01245,882.16046 925.88717,878.41823 921.375,876.8125 C 920.24251,875.9427 919.01496,875.14409 917.5625,874.5625 C 917.4898,874.53076 917.41688,874.49951 917.34375,874.46875 C 910.9971,872.02995 907.65619,872.48189 908.53125,872.65625 L 888.3125,867.84375 C 888.15668,867.81038 888.00042,867.77912 887.84375,867.75 C 860.10762,861.9677 832.96208,879.01642 824.8125,905.5625 C 816.66818,932.09121 829.96888,960.99047 855.75,971.59375 C 855.77081,971.60421 855.79165,971.61462 855.8125,971.625 C 858.15643,972.57777 859.34128,972.84011 860.09375,972.90625 L 879.84375,980.625 C 881.55626,981.38188 906.07057,992.8493 938.8125,998.46875 C 973.67989,1004.453 1024.9634,1006.3164 1069.0938,974.5625 C 1091.0828,958.74962 1101.8894,935.10796 1110.3438,908 C 1119.2934,879.30347 1124.6095,842.00905 1119.9375,796.8125 C 1110.6217,706.69257 1063.8489,586.82833 941.53125,436.375 C 845.17039,317.83519 762.65037,247.3512 691.46875,206.625 C 688.91474,205.1651 686.035,204.36995 683.09375,204.3125 L 683.09375,204.3125 z M 860.96875,972.875 C 861.10195,972.86202 861.33971,972.8673 861.46875,972.875 C 861.7046,972.88907 861.73779,972.8698 861.90625,972.875 C 861.66708,972.90218 861.47209,972.93352 860.96875,972.875 z M 863.78125,972.875 C 863.89323,972.8696 863.88642,972.90018 863.5,972.90625 C 863.4426,972.90715 863.23623,972.90544 863.15625,972.90625 C 863.4163,972.89829 863.70398,972.87872 863.78125,972.875 z " /><path
   sodipodi:type="inkscape:offset"
   inkscape:radius="9.8295498"
   inkscape:original="M 680.0625 253.1875 L 680.0625 287.90625 C 747.5668 334.58592 822.42951 409.10771 882.28125 482.1875 C 980.06713 601.58418 1025.8546 701.89698 1041.9688 776.8125 C 1058.0829 851.72806 1043.3536 900.81919 1025.125 915.6875 C 1003.6608 933.20176 972.94904 934.16331 946.75 930.5625 C 920.55101 926.9617 900.125 918.65625 900.125 918.65625 C 899.73961 918.5082 899.52988 918.7369 899.125 918.65625 L 878.3125 913.6875 C 874.63527 912.92092 870.47739 915.06537 869.375 918.65625 C 868.27261 922.24712 870.86981 926.13374 874.34375 927.5625 L 897.15625 937.5 C 897.15621 937.50003 918.05914 946.45084 946.75 951.375 C 975.44085 956.29914 1012.115 957.26179 1040.9688 936.5 C 1049.6848 930.23214 1058.8193 916.16651 1065.7813 893.84375 C 1072.7432 871.521 1076.7702 840.78674 1072.7188 801.59375 C 1064.6161 723.20778 1023.3406 611.75875 905.09375 466.3125 C 818.51305 359.80386 741.22559 291.65336 680.0625 253.1875 z "
   style="fill:url(#radialGradient1942);fill-opacity:1;stroke:none;stroke-width:31.74259377;stroke-miterlimit:4;stroke-dasharray:none;stroke-opacity:1"
   id="path1940"
   d="M 679.6875,243.375 C 674.40702,243.56946 670.22486,247.90344 670.21875,253.1875 L 670.21875,287.90625 C 670.21851,291.13884 671.80751,294.16495 674.46875,296 C 740.74399,341.82977 815.30607,415.90071 874.6875,488.40625 C 971.71639,606.87864 1016.6552,705.93831 1032.3438,778.875 C 1040.1785,815.2993 1040.4159,845.11484 1036.7188,867.125 C 1033.0216,889.13516 1024.9194,903.15784 1018.9063,908.0625 C 1000.864,922.78451 973.03238,924.24008 948.09375,920.8125 C 923.23191,917.39548 903.8125,909.5625 903.8125,909.5625 C 903.76071,909.53077 903.70862,909.49952 903.65625,909.46875 C 902.81289,909.14477 901.90415,909.10931 901.03125,909.03125 L 900.8125,908.96875 L 880.59375,904.125 C 880.50031,904.10279 880.40655,904.08196 880.3125,904.0625 C 871.60081,902.2464 862.78397,906.61108 859.96875,915.78125 C 857.01117,925.41512 862.91425,933.49783 870.59375,936.65625 L 893.21875,946.5 L 896.25,939.59375 C 899.3365,944.82696 903.5471,950.44512 908.15625,951.9375 C 917.31777,954.90387 930.16193,958.49978 945.09375,961.0625 C 974.95047,966.18673 1014.5428,967.621 1046.7188,944.46875 C 1058.4511,936.03184 1067.8161,920.31658 1075.1563,896.78125 C 1082.5609,873.03888 1086.6739,840.97219 1082.5,800.59375 C 1074.1443,719.7596 1031.8097,606.60956 912.71875,460.125 C 825.62658,352.98716 747.7145,284.13967 685.28125,244.875 C 683.60959,243.82465 681.6604,243.30196 679.6875,243.375 z M 898.5625,908.875 C 898.6754,908.8667 898.87032,908.91144 899,908.90625 C 898.56856,908.93325 897.94056,908.94454 897.8125,908.96875 C 897.57318,909.01399 897.92573,908.92178 898.5625,908.875 z " />
</svg>