<?xml version="1.0" encoding="UTF-8" standalone="no"?>
<!-- Created with Inkscape (http://www.inkscape.org/) -->
<svg
   xmlns:svg="http://www.w3.org/2000/svg"
   xmlns="http://www.w3.org/2000/svg"
   xmlns:xlink="http://www.w3.org/1999/xlink"
   version="1.0"
   width="22"
   height="22"
   viewBox="0 0 1523.643 1258.418"
   id="Layer_1"
   xml:space="preserve"><defs
   id="defs2173"><linearGradient
     id="linearGradient2903"><stop
       style="stop-color:black;stop-opacity:0.53333336"
       offset="0"
       id="stop2905" /><stop
       style="stop-color:black;stop-opacity:0"
       offset="1"
       id="stop2907" /></linearGradient><linearGradient
     id="linearGradient2893"><stop
       style="stop-color:#4a82d5;stop-opacity:1"
       offset="0"
       id="stop2895" /><stop
       style="stop-color:#204a87;stop-opacity:1"
       offset="1"
       id="stop2897" /></linearGradient><linearGradient
     id="linearGradient2885"><stop
       style="stop-color:#f78a8a;stop-opacity:1"
       offset="0"
       id="stop2887" /><stop
       style="stop-color:#ef2929;stop-opacity:1"
       offset="1"
       id="stop2889" /></linearGradient><linearGradient
     id="linearGradient2877"><stop
       style="stop-color:white;stop-opacity:1"
       offset="0"
       id="stop2879" /><stop
       style="stop-color:#d3d8d0;stop-opacity:1"
       offset="1"
       id="stop2881" /></linearGradient><radialGradient
     cx="1103.1901"
     cy="664.50476"
     r="317.28772"
     fx="1103.1901"
     fy="664.50476"
     id="radialGradient2883"
     xlink:href="#linearGradient2877"
     gradientUnits="userSpaceOnUse"
     gradientTransform="matrix(18.32073,-14.69579,35.73752,44.55268,-15370.89,2544.541)" /><radialGradient
     cx="911.69879"
     cy="726.38788"
     r="496.23434"
     fx="911.69879"
     fy="726.38788"
     id="radialGradient2891"
     xlink:href="#linearGradient2885"
     gradientUnits="userSpaceOnUse"
     gradientTransform="matrix(0.844855,-0.39514,0.126652,0.270798,50.16003,671.0871)" /><radialGradient
     cx="711.53125"
     cy="663.01562"
     r="525.65625"
     fx="711.53125"
     fy="663.01562"
     id="radialGradient2899"
     xlink:href="#linearGradient2893"
     gradientUnits="userSpaceOnUse"
     gradientTransform="matrix(1.119861,0,0,1.119895,-69.25812,-147.408)" /><radialGradient
     cx="675.71881"
     cy="1318.0304"
     r="496.02628"
     fx="675.71881"
     fy="1318.0304"
     id="radialGradient2909"
     xlink:href="#linearGradient2903"
     gradientUnits="userSpaceOnUse"
     gradientTransform="matrix(1,0,0,0.135849,52.41033,1039.772)" /><radialGradient
     cx="675.71881"
     cy="1318.0304"
     r="496.02628"
     fx="675.71881"
     fy="1318.0304"
     id="radialGradient1906"
     xlink:href="#linearGradient2903"
     gradientUnits="userSpaceOnUse"
     gradientTransform="matrix(1,0,0,0.135849,48.64559,1141.729)" /><radialGradient
     cx="1103.1901"
     cy="664.50476"
     r="317.28772"
     fx="1103.1901"
     fy="664.50476"
     id="radialGradient1926"
     xlink:href="#linearGradient2877"
     gradientUnits="userSpaceOnUse"
     gradientTransform="matrix(18.32073,-14.69579,35.73752,44.55268,-15370.89,2544.541)" /><radialGradient
     cx="1103.1901"
     cy="664.50476"
     r="317.28772"
     fx="1103.1901"
     fy="664.50476"
     id="radialGradient1932"
     xlink:href="#linearGradient2877"
     gradientUnits="userSpaceOnUse"
     gradientTransform="matrix(18.32073,-14.69579,35.73752,44.55268,-15370.89,2544.541)" /><radialGradient
     cx="1103.1901"
     cy="664.50476"
     r="317.28772"
     fx="1103.1901"
     fy="664.50476"
     id="radialGradient1936"
     xlink:href="#linearGradient2877"
     gradientUnits="userSpaceOnUse"
     gradientTransform="matrix(18.32073,-14.69579,35.73752,44.55268,-15370.89,2544.541)" /><radialGradient
     cx="1103.1901"
     cy="664.50476"
     r="317.28772"
     fx="1103.1901"
     fy="664.50476"
     id="radialGradient1959"
     xlink:href="#linearGradient2877"
     gradientUnits="userSpaceOnUse"
     gradientTransform="matrix(18.32073,-14.69579,35.73752,44.55268,-15370.89,2544.541)" /><radialGradient
     cx="1103.1901"
     cy="664.50476"
     r="317.28772"
     fx="1103.1901"
     fy="664.50476"
     id="radialGradient1961"
     xlink:href="#linearGradient2877"
     gradientUnits="userSpaceOnUse"
     gradientTransform="matrix(18.32073,-14.69579,35.73752,44.55268,-15370.89,2544.541)" /><radialGradient
     cx="1103.1901"
     cy="664.50476"
     r="317.28772"
     fx="1103.1901"
     fy="664.50476"
     id="radialGradient1964"
     xlink:href="#linearGradient2877"
     gradientUnits="userSpaceOnUse"
     gradientTransform="matrix(18.32073,-14.69579,35.73752,44.55268,-15439.63,2564.589)" /><radialGradient
     cx="1103.1901"
     cy="664.50476"
     r="317.28772"
     fx="1103.1901"
     fy="664.50476"
     id="radialGradient1968"
     xlink:href="#linearGradient2877"
     gradientUnits="userSpaceOnUse"
     gradientTransform="matrix(18.32073,-14.69579,35.73752,44.55268,-15439.63,2564.589)" /><radialGradient
     cx="911.69879"
     cy="726.38788"
     r="496.23434"
     fx="911.69879"
     fy="726.38788"
     id="radialGradient1979"
     xlink:href="#linearGradient2885"
     gradientUnits="userSpaceOnUse"
     gradientTransform="matrix(0.844855,-0.39514,0.126652,0.270798,50.16003,671.0871)" /></defs>

























































<path
   d="M 1220.3907,1320.7818 C 1220.3907,1357.9973 998.31219,1388.1665 724.36444,1388.1665 C 450.41669,1388.1665 228.33816,1357.9973 228.33816,1320.7818 C 228.33816,1283.5663 450.41669,1253.3971 724.36444,1253.3971 C 998.31219,1253.3971 1220.3907,1283.5663 1220.3907,1320.7818 z "
   style="opacity:1;color:black;fill:url(#radialGradient1906);fill-opacity:1;fill-rule:nonzero;stroke:none;stroke-width:31.74258995;stroke-linecap:butt;stroke-linejoin:miter;marker:none;marker-start:none;marker-mid:none;marker-end:none;stroke-miterlimit:4;stroke-dasharray:none;stroke-dashoffset:0;stroke-opacity:1;visibility:visible;display:inline;overflow:visible"
   id="path2901" /><path
   d="M 3.6649876,595.08624 C 3.6649876,195.28631 327.76065,-128.80935 727.56057,-128.80935 C 1127.3606,-128.80935 1451.4573,195.28631 1451.4573,595.08624 C 1451.4573,994.88618 1127.3617,1319.0049 727.56057,1319.0049 C 327.76065,1319.0049 3.6649876,994.88618 3.6649876,595.08624"
   style="fill:#182f4d;fill-opacity:1;stroke:none;stroke-width:31.74259377;stroke-miterlimit:4;stroke-dasharray:none;stroke-opacity:1"
   id="path3168" /><path
   d="M 727.5583,-62.780636 C 363.78114,-62.780636 69.69643,231.30409 69.69643,595.08124 C 69.69643,958.8584 363.78352,1252.9799 727.5583,1252.9799 C 1091.3342,1252.9799 1385.4202,958.85849 1385.4202,595.08124 C 1385.4202,231.30408 1091.3355,-62.780636 727.5583,-62.780636 z "
   style="fill:#3a78d1;fill-opacity:1;stroke:none;stroke-width:31.74259377;stroke-miterlimit:4;stroke-dasharray:none;stroke-opacity:1"
   id="path3220" /><path
   d="M 727.5583,6.4199918 C 401.54101,6.4199918 138.89612,269.06489 138.89612,595.08217 C 138.89612,921.0993 401.54581,1183.7793 727.5583,1183.7793 C 1053.5719,1183.7793 1316.2205,921.09946 1316.2205,595.08217 C 1316.2205,269.06487 1053.5756,6.4199918 727.5583,6.4199918 z "
   style="fill:url(#radialGradient2899);fill-opacity:1;stroke:none;stroke-width:31.74259377;stroke-miterlimit:4;stroke-dasharray:none;stroke-opacity:1"
   id="path3222" /><path
   d="M 502.45172,572.61043 C 480.17182,573.46205 459.89316,585.54001 448.48297,604.67293 L 441.70172,615.98543 C 429.10229,637.03644 429.24313,663.3239 442.10797,684.23543 L 460.38922,713.95418 C 460.45119,714.04828 460.51369,714.14203 460.57672,714.23543 C 460.95753,714.83962 461.33158,715.42693 461.73297,716.01668 C 462.4519,717.10041 463.3223,718.36699 464.85797,720.29793 C 464.85797,720.29793 491.94632,756.89723 510.79547,781.73543 C 529.4431,806.26997 558.29547,843.36043 558.29547,843.36043 L 565.85797,854.07918 C 569.86954,861.87735 589.48392,899.61607 625.38922,927.92293 C 638.57287,938.30919 654.86259,947.65592 674.38922,952.07918 C 684.1656,954.29377 697.91089,955.91337 713.29547,952.42293 C 730.91119,948.42634 749.01998,937.604 760.76422,919.29793 C 770.94924,903.46487 774.923,885.06663 772.92047,867.20418 C 771.11714,851.11845 764.89939,838.34975 759.42047,829.57918 C 748.82203,812.61338 735.88036,801.21204 725.35797,792.23543 C 707.10051,776.67016 688.59678,765.32402 679.26422,759.73543 L 674.23297,753.76668 C 674.23297,753.76668 644.23072,716.79051 626.35797,693.54793 C 608.13235,669.8187 578.79547,629.42293 578.79547,629.42293 L 559.01422,600.86043 C 546.23687,582.39756 524.96381,571.79613 502.57672,572.61043 C 502.53505,572.61034 502.49339,572.61034 502.45172,572.61043 z "
   style="color:black;fill:#33372e;fill-opacity:1;fill-rule:nonzero;stroke:none;stroke-width:31.74259377;stroke-linecap:butt;stroke-linejoin:miter;marker:none;marker-start:none;marker-mid:none;marker-end:none;stroke-miterlimit:4;stroke-dashoffset:0;stroke-opacity:1;visibility:visible;display:inline;overflow:visible"
   id="path1943" /><path
   d="M 495.17047,183.01668 C 455.20172,183.11274 420.07753,194.89042 394.29547,214.76668 C 358.41257,242.41651 340.53146,282.90157 334.63922,322.45418 C 328.79712,361.67024 333.61061,401.94637 341.85797,440.17293 C 358.46477,517.14551 393.06644,591.90083 425.07672,645.73543 C 439.73843,670.47216 470.06736,681.43408 497.17047,671.95418 L 508.73297,668.11043 C 508.84787,668.06964 508.96246,668.02797 509.07672,667.98543 C 526.44539,661.91592 540.57041,648.14437 546.63922,630.29793 C 552.64388,612.64036 550.11262,593.13388 540.04547,577.73543 C 526.74478,557.33143 490.71915,485.48423 474.73297,424.11043 C 466.74946,393.46029 463.43004,362.69004 465.45172,345.70418 C 466.62577,335.83996 468.3674,330.55052 469.63922,328.20418 C 470.91104,325.85784 471.43028,325.2228 475.38922,322.95418 C 484.20163,317.90685 494.53628,316.10007 516.29547,321.45418 C 537.43167,326.65499 566.252,339.89197 596.85797,360.67293 C 599.44193,362.42741 606.52506,370.23742 616.73297,377.89168 C 623.98819,383.33639 633.6974,384.21328 641.81075,380.15661 C 649.9241,376.09993 655.0481,367.80643 655.04547,358.73543 L 655.04547,251.57918 C 655.04346,242.98984 650.44043,235.05974 642.98297,230.79793 C 589.2154,200.03511 539.97833,182.90904 495.17047,183.01668 z "
   style="fill:#33372e;fill-opacity:1;stroke:none;stroke-width:31.74259377;stroke-miterlimit:4;stroke-opacity:1"
   id="path1940" /><path
   d="M 503.88922,609.23543 C 494.06231,609.60437 485.02071,614.97551 479.98297,623.42293 L 473.13922,634.82918 C 467.5887,644.10312 467.66333,655.81095 473.32672,665.01668 L 491.60797,694.76668 C 491.74962,695.00878 491.89548,695.2484 492.04547,695.48543 C 492.50774,696.18229 493.02545,696.83156 493.54547,697.48543 C 493.54547,697.48543 521.38432,735.10232 539.98297,759.61043 C 558.37687,783.81115 587.20172,820.89168 587.20172,820.89168 L 597.07672,834.76668 C 599.53438,839.40791 618.61579,875.9154 648.07672,899.14168 C 658.16481,907.08921 669.49761,913.38769 682.48297,916.32918 C 688.92111,917.78759 696.67199,918.60105 705.17047,916.67293 C 714.56086,914.54251 723.80216,909.05346 729.92047,899.51668 C 735.4129,890.9785 737.62417,880.91986 736.54547,871.29793 C 735.53349,862.27092 732.03365,854.8694 728.35797,848.98543 C 721.03549,837.26373 711.49854,828.57469 701.57672,820.11043 C 683.94864,805.08172 660.91955,791.27965 654.95172,787.73543 L 646.23297,777.39168 C 646.23297,777.39168 615.79352,739.91618 597.29547,715.86043 C 578.42217,691.28794 549.13922,650.95418 549.13922,650.95418 L 528.92047,621.73543 C 523.28333,613.58997 513.81845,608.8687 503.92047,609.23543 L 503.88922,609.23543 z "
   style="color:black;fill:#d3d7cf;fill-opacity:1;fill-rule:nonzero;stroke:none;stroke-width:31.74259377;stroke-linecap:butt;stroke-linejoin:miter;marker:none;marker-start:none;marker-mid:none;marker-end:none;stroke-miterlimit:4;stroke-dashoffset:0;stroke-opacity:1;visibility:visible;display:inline;overflow:visible"
   id="path1938" /><path
   d="M 495.17047,216.39168 C 461.85769,216.47174 434.68871,226.58268 415.35797,241.48543 C 387.66553,262.82399 373.02862,294.50406 368.04547,327.95418 C 363.10523,361.11619 366.44942,396.52233 374.20172,432.45418 C 389.69712,504.27545 422.54728,577.79892 452.98297,628.98543 C 460.28703,641.30848 474.07884,644.92105 486.04547,640.73543 L 497.63922,636.92293 C 497.74373,636.88213 497.8479,636.84046 497.95172,636.79793 C 507.49096,633.46437 512.14147,628.84695 515.42047,619.20418 C 518.2394,610.91449 515.75472,600.99715 512.23297,595.61043 C 495.40495,569.79528 459.81981,498.51347 442.48297,431.95418 C 433.84584,398.79467 430.11791,366.89484 433.04547,342.29793 C 435.97221,317.70796 443.63785,303.22188 459.70172,294.01668 C 477.06073,284.07428 497.07642,282.5215 524.10797,289.17293 C 550.83702,295.74992 582.73976,311.45856 615.73297,333.86043 C 615.43128,333.65559 616.88256,334.87236 619.57672,336.73543 C 625.78398,341.02639 633.85912,341.52021 640.54298,338.01758 C 647.22684,334.51495 651.4163,327.59395 651.42047,320.04793 L 651.42047,285.32918 C 651.42003,278.34758 647.83199,271.85607 641.92047,268.14168 C 584.82579,232.23449 536.04762,216.29348 495.17047,216.39168 z "
   style="fill:url(#radialGradient1968);fill-opacity:1;stroke:none;stroke-width:31.74259377;stroke-miterlimit:4;stroke-opacity:1"
   id="path1934" /><path
   d="M 1421.2188,37.09375 C 1407.3974,37.081032 1393.688,40.339895 1381.3438,46.625 C 1371.9927,51.390556 1364.0443,58.509689 1358.2812,67.28125 C 1358.2812,67.28125 1353.2253,75.918743 1327.5312,100.84375 C 1301.8372,125.76876 1257.999,163.13422 1188.0312,208.90625 C 1048.0957,300.45031 803.57714,425.53263 392,551.3125 C 390.88521,551.65545 389.78058,552.03061 388.6875,552.4375 C 243.49906,606.14782 223.26205,620.00551 212.40625,624.5625 C 212.1136,624.6852 211.82193,624.8102 211.53125,624.9375 C 85.735722,680.10606 39.5625,714.4375 39.5625,714.4375 L 39.59375,714.46875 C 15.247125,731.73553 1.0092664,760.41546 2.5625,790.46875 C 4.2495479,823.11103 24.285287,852.43044 54.09375,865.875 L 71.40625,873.6875 C 95.515829,884.54179 123.4659,884.03414 147.21875,871.96875 L 250.90625,819.28125 C 301.32558,799.12697 376.81401,771.76598 473.28125,747.03125 C 498.46193,741.67082 522.7562,735.81582 546.4375,729.78125 C 471.62768,782.05222 399.18466,836.45852 351.46875,879.09375 C 282.89124,940.3906 184.59375,1031.9375 184.59375,1031.9375 C 167.85142,1047.5463 157.86362,1069.1267 156.78125,1091.9688 L 155.90625,1110.1562 C 155.80941,1112.1809 155.92565,1114.1522 155.96875,1116.1562 L 155.875,1116.1562 C 155.875,1116.1562 155.96805,1116.2492 155.96875,1116.25 C 155.99815,1117.5538 155.91707,1118.9105 156,1120.1562 L 159.28125,1119.9375 C 168.05635,1129.7666 211.66458,1178.1499 224.0625,1181.7188 C 230.93208,1183.6962 237.93964,1185.6356 245.34375,1187.25 C 249.0458,1188.0572 252.57192,1188.827 258.4375,1189.4062 C 261.37029,1189.6959 264.71803,1190.0957 271.25,1189.5625 C 277.78197,1189.0293 290.11988,1191.9327 310.3125,1171.5312 C 312.81911,1168.9988 316.86351,1164.9788 322.25,1159.75 C 333.00791,1149.307 349.2064,1133.9824 370.59375,1115 C 413.38961,1077.0166 476.78718,1024.4436 557.4375,967.71875 C 640.27882,910.35238 791.45496,807.17559 890.125,746.1875 C 1002.0883,676.99406 1117.9306,588.41282 1195.0312,528.5625 C 1292.1597,453.16476 1352.9987,386.25478 1378.8125,356.78125 C 1450.7536,274.58775 1500.625,163.625 1500.625,163.625 C 1506.4333,151.21259 1509.1424,137.89219 1508.7812,124.28125 C 1508.8007,123.20392 1508.7997,124.88315 1508.7812,123.84375 C 1508.8813,100.52434 1499.6347,79.444454 1483.3125,63 C 1466.9442,46.50886 1444.5563,37.167648 1421.3438,37.09375 C 1421.3021,37.093707 1421.2605,37.093707 1421.2188,37.09375 z "
   style="color:black;fill:#600;fill-opacity:1;fill-rule:nonzero;stroke:none;stroke-width:31.74258995;stroke-linecap:butt;stroke-linejoin:miter;marker:none;marker-start:none;marker-mid:none;marker-end:none;stroke-miterlimit:4;stroke-dasharray:none;stroke-dashoffset:0;stroke-opacity:1;visibility:visible;display:inline;overflow:visible"
   id="path1973" /><path
   d="M 1421.0625,94.96875 C 1411.6162,94.97817 1402.7297,99.450378 1397.0938,107.03125 C 1397.0938,107.03125 1348.4131,173.97538 1199.6562,271.8125 C 1050.8994,369.64962 804.04994,495.59504 413.96875,604.65625 C 413.07017,604.90633 412.18379,605.19832 411.3125,605.53125 C 394.13796,612.12916 382.56793,616.60546 375.03125,619.5625 C 367.73743,622.42426 367.52519,622.11224 361.4375,625.15625 C 348.60973,629.84836 335.90667,634.47629 297.3125,648.71875 C 296.75367,648.93131 296.20134,649.16058 295.65625,649.40625 C 172.77242,703.29787 75.125,760.09375 75.125,760.09375 C 65.451121,765.72998 59.736008,776.29789 60.315131,787.47892 C 60.894255,798.65996 67.670591,808.58087 77.875,813.1875 L 95.21875,821 C 103.4695,824.71809 112.96018,824.49978 121.03125,820.40625 L 226.75,766.6875 L 227.0625,766.53125 C 279.2051,745.60834 358.19217,716.83167 458.9375,691 C 554.30489,670.69827 641.72433,642.25218 729.75,620.90625 C 780.00375,608.72268 830.41357,593.95795 879.75,577.34375 C 815.52248,621.64724 763.59056,656.29036 747.75,666.0625 C 634.60879,735.85375 468.86903,851.75083 389.96875,922.25 C 322.25965,982.7707 224.03125,1074.2812 224.03125,1074.2812 C 218.32033,1079.594 214.91128,1086.928 214.53125,1094.7188 L 213.65625,1112.9062 C 213.57789,1114.7017 213.66157,1116.5007 213.90625,1118.2812 C 213.90625,1118.2812 266.40642,1133.6842 269.21875,1130.8438 C 272.03108,1128.0033 276.28452,1123.736 281.9375,1118.25 C 293.24347,1107.2781 310.15456,1091.3569 332.25,1071.75 C 376.44088,1032.5363 441.42283,978.65879 524.15625,920.46875 C 607.36056,862.85095 758.76713,759.41766 859.75,697 C 968.0628,630.06258 1082.8688,542.46499 1159.5938,482.90625 C 1252.913,410.4656 1310.5475,346.93214 1335.3125,318.65625 C 1398.4293,246.54456 1448.1562,139.3125 1448.1562,139.3125 C 1450.1137,135.13107 1451.0763,130.55318 1450.9688,125.9375 C 1450.9763,125.55212 1450.9763,125.16663 1450.9688,124.78125 C 1450.9184,108.30056 1437.5433,94.967367 1421.0625,94.96875 L 1421.0625,94.96875 z "
   style="color:black;fill:#f35252;fill-opacity:1;fill-rule:nonzero;stroke:none;stroke-width:31.74258995;stroke-linecap:butt;stroke-linejoin:miter;marker:none;marker-start:none;marker-mid:none;marker-end:none;stroke-miterlimit:4;stroke-dasharray:none;stroke-dashoffset:0;stroke-opacity:1;visibility:visible;display:inline;overflow:visible"
   id="path1975" /><path
   d="M 1375.0312,153.96875 C 1369.07,154.04862 1363.6034,157.30002 1360.6875,162.5 C 1355.5745,171.6449 1349.7671,181.605 1343.625,191.8125 C 1297.216,255.21568 1114.1351,429.41602 444.84375,625.875 C 441.88285,626.74811 439.22187,628.42475 437.15625,630.71875 C 434.34704,633.82844 428.95172,638.22043 431.34375,649.25 C 432.53977,654.76478 436.91298,659.39665 440.28125,661.3125 C 443.64952,663.22835 446.21004,663.64998 448.375,663.9375 C 457.03483,665.08757 463.10826,663.51527 472.25,661.59375 C 490.53349,657.7507 516.48666,650.21114 546.0625,641.1875 C 605.21418,623.14023 678.49308,599.12887 721.9375,588.59375 C 871.42769,552.35118 1023.7029,494.17908 1136.875,425.21875 C 1137.7069,424.71525 1138.7229,424.62265 1139.6562,424.9375 C 1140.6107,425.25948 1141.3106,425.91974 1141.6875,426.875 C 1143.6471,431.83857 1147.8607,435.56685 1153.0259,436.90759 C 1158.1912,438.24833 1163.6861,437.04007 1167.8125,433.65625 C 1241.99,372.82152 1288.7592,321.39003 1310.3125,296.78125 C 1333.1708,270.66527 1354.2853,238.89725 1371.9062,209.65625 C 1371.9378,209.60434 1371.969,209.55225 1372,209.5 C 1386.1568,189.68849 1391.125,175.875 1391.125,175.875 C 1392.8065,170.74956 1391.909,165.12755 1388.7153,160.78039 C 1385.5216,156.43323 1380.4249,153.89623 1375.0312,153.96875 z "
   style="color:black;fill:url(#radialGradient1979);fill-opacity:1;fill-rule:nonzero;stroke:none;stroke-width:31.74258995;stroke-linecap:butt;stroke-linejoin:miter;marker:none;marker-start:none;marker-mid:none;marker-end:none;stroke-miterlimit:4;stroke-dasharray:none;stroke-dashoffset:0;stroke-opacity:1;visibility:visible;display:inline;overflow:visible"
   id="path1977" /><path
   d="M 644.14084,231.83697 C 637.73279,231.70907 631.54258,234.16384 626.96372,238.64865 C 622.38487,243.13345 619.80219,249.2714 619.79709,255.68072 L 605.15413,357.31461 C 605.15787,364.82972 608.70088,371.90418 614.71663,376.40836 C 671.6927,419.131 735.0919,480.7877 787.24788,544.47086 C 880.85993,658.77133 922.33964,753.01701 936.12288,817.09586 C 942.94564,848.8149 942.50852,873.15167 939.90413,888.37711 C 938.71994,895.30039 936.76267,900.31281 935.27913,903.40836 C 930.43346,905.05627 915.55479,908.54769 900.21663,906.43961 C 885.31153,904.39101 875.08036,901.04066 870.34163,899.37711 C 869.05722,898.49024 867.69794,897.65161 866.15413,897.03336 C 866.05026,896.99096 865.94609,896.94929 865.84163,896.90836 C 857.91984,893.86415 854.07204,894.39963 855.99788,894.78336 L 836.02913,890.00211 C 835.81113,889.94694 835.59236,889.89485 835.37288,889.84586 C 804.2939,883.36665 774.12176,902.41544 765.02913,932.03336 C 755.9414,961.63508 770.80551,993.86883 799.62288,1005.7209 C 799.65408,1005.7418 799.68533,1005.7626 799.71663,1005.7834 C 802.3165,1006.8393 803.51261,1007.0978 804.56038,1007.2834 L 823.77913,1014.8146 C 825.07236,1015.3862 850.41365,1027.2068 883.99788,1032.9708 C 919.66168,1039.0918 972.8919,1041.2 1019.0291,1008.0021 C 1042.6238,991.03456 1053.9966,965.7488 1062.5916,938.18961 C 1071.7848,908.71195 1077.2576,870.51597 1072.4979,824.47086 C 1063.0179,732.76314 1015.5395,611.83407 892.68538,460.72086 C 795.98585,341.76443 727.60182,276.2056 655.51584,234.96197 C 652.04538,232.98494 648.13425,231.91046 644.14084,231.83697 L 644.14084,231.83697 z "
   style="fill:#33372e;fill-opacity:1;stroke:none;stroke-width:31.74259377;stroke-miterlimit:4;stroke-opacity:1"
   id="path1928" /><path
   d="M 625.51422,261.26668 C 614.63748,261.68843 606.03918,270.63177 606.04547,281.51668 L 606.04547,316.23543 C 606.04274,322.88176 609.30108,329.10647 614.76422,332.89168 C 679.73979,377.82274 753.97698,451.4347 812.85797,523.32918 C 909.08555,640.82324 953.18432,738.52708 968.42042,809.36043 C 976.01902,844.68631 976.14092,873.27004 972.70172,893.70418 C 969.26252,914.13832 961.27492,926.07161 958.54542,928.29793 C 944.13152,940.05937 919.33522,942.04184 895.73297,938.79793 C 872.29098,935.57606 854.01422,928.20418 854.01422,928.20418 C 853.88975,928.15084 853.76474,928.09876 853.63922,928.04793 C 852.2348,927.50834 850.72326,927.22733 849.23297,927.04793 L 829.23297,922.29793 C 829.04607,922.2536 828.85855,922.21193 828.67047,922.17293 C 814.6434,919.24874 800.86394,926.03373 796.26422,941.01668 C 791.36172,956.98642 800.61516,969.56233 812.88922,974.61043 L 835.32672,984.36043 C 835.34754,984.37088 835.36837,984.3813 835.38922,984.39168 C 835.38922,984.39168 858.42429,994.33166 889.54547,999.67293 C 920.65477,1005.0121 963.38052,1006.9205 999.07672,981.23543 C 1014.0068,970.49879 1023.6481,952.994 1031.3892,928.17293 C 1039.2632,902.92555 1043.4431,869.43331 1039.1392,827.79793 C 1030.5146,744.36276 987.03042,629.41328 867.04547,481.82918 C 779.40975,374.02272 700.8525,304.46942 637.07672,264.36043 C 633.62225,262.18787 629.59205,261.10952 625.51422,261.26668 L 625.51422,261.26668 z M 843.92047,926.82918 C 844.24228,926.80512 844.7914,926.90294 845.17047,926.89168 C 843.88726,926.93342 842.42731,926.96221 842.13922,927.01668 C 841.72635,927.09474 842.52085,926.93383 843.92047,926.82918 z "
   style="fill:url(#radialGradient1964);fill-opacity:1;stroke:none;stroke-width:31.74259377;stroke-miterlimit:4;stroke-opacity:1"
   id="path1930" />
</svg>