<?xml version="1.0" encoding="UTF-8" standalone="no"?>
<!-- Created with Inkscape (http://www.inkscape.org/) -->
<svg
   xmlns:svg="http://www.w3.org/2000/svg"
   xmlns="http://www.w3.org/2000/svg"
   xmlns:xlink="http://www.w3.org/1999/xlink"
   version="1.0"
   width="16"
   height="16"
   viewBox="0 0 1523.643 1258.418"
   id="Layer_1"
   xml:space="preserve"><defs
   id="defs2173"><linearGradient
     id="linearGradient2903"><stop
       style="stop-color:black;stop-opacity:0.53333336"
       offset="0"
       id="stop2905" /><stop
       style="stop-color:black;stop-opacity:0"
       offset="1"
       id="stop2907" /></linearGradient><linearGradient
     id="linearGradient2893"><stop
       style="stop-color:#4a82d5;stop-opacity:1"
       offset="0"
       id="stop2895" /><stop
       style="stop-color:#204a87;stop-opacity:1"
       offset="1"
       id="stop2897" /></linearGradient><linearGradient
     id="linearGradient2885"><stop
       style="stop-color:#f78a8a;stop-opacity:1"
       offset="0"
       id="stop2887" /><stop
       style="stop-color:#ef2929;stop-opacity:1"
       offset="1"
       id="stop2889" /></linearGradient><linearGradient
     id="linearGradient2877"><stop
       style="stop-color:white;stop-opacity:1"
       offset="0"
       id="stop2879" /><stop
       style="stop-color:#d3d8d0;stop-opacity:1"
       offset="1"
       id="stop2881" /></linearGradient><radialGradient
     cx="1103.1901"
     cy="664.50476"
     r="317.28772"
     fx="1103.1901"
     fy="664.50476"
     id="radialGradient2883"
     xlink:href="#linearGradient2877"
     gradientUnits="userSpaceOnUse"
     gradientTransform="matrix(18.32073,-14.69579,35.73752,44.55268,-15370.89,2544.541)" /><radialGradient
     cx="911.69879"
     cy="726.38788"
     r="496.23434"
     fx="911.69879"
     fy="726.38788"
     id="radialGradient2891"
     xlink:href="#linearGradient2885"
     gradientUnits="userSpaceOnUse"
     gradientTransform="matrix(0.844855,-0.39514,0.126652,0.270798,50.16003,671.0871)" /><radialGradient
     cx="711.53125"
     cy="663.01562"
     r="525.65625"
     fx="711.53125"
     fy="663.01562"
     id="radialGradient2899"
     xlink:href="#linearGradient2893"
     gradientUnits="userSpaceOnUse"
     gradientTransform="matrix(1.092619,0,0,1.092652,-18.37065,-92.11366)" /><radialGradient
     cx="675.71881"
     cy="1318.0304"
     r="496.02628"
     fx="675.71881"
     fy="1318.0304"
     id="radialGradient2909"
     xlink:href="#linearGradient2903"
     gradientUnits="userSpaceOnUse"
     gradientTransform="matrix(1,0,0,0.135849,52.41033,1039.772)" /><radialGradient
     cx="675.71881"
     cy="1318.0304"
     r="496.02628"
     fx="675.71881"
     fy="1318.0304"
     id="radialGradient1906"
     xlink:href="#linearGradient2903"
     gradientUnits="userSpaceOnUse"
     gradientTransform="matrix(1,0,0,0.135849,48.64559,1141.729)" /><radialGradient
     cx="1103.1901"
     cy="664.50476"
     r="317.28772"
     fx="1103.1901"
     fy="664.50476"
     id="radialGradient1926"
     xlink:href="#linearGradient2877"
     gradientUnits="userSpaceOnUse"
     gradientTransform="matrix(18.32073,-14.69579,35.73752,44.55268,-15370.89,2544.541)" /><radialGradient
     cx="1103.1901"
     cy="664.50476"
     r="317.28772"
     fx="1103.1901"
     fy="664.50476"
     id="radialGradient1932"
     xlink:href="#linearGradient2877"
     gradientUnits="userSpaceOnUse"
     gradientTransform="matrix(18.32073,-14.69579,35.73752,44.55268,-15370.89,2544.541)" /><radialGradient
     cx="1103.1901"
     cy="664.50476"
     r="317.28772"
     fx="1103.1901"
     fy="664.50476"
     id="radialGradient1936"
     xlink:href="#linearGradient2877"
     gradientUnits="userSpaceOnUse"
     gradientTransform="matrix(18.32073,-14.69579,35.73752,44.55268,-15370.89,2544.541)" /><radialGradient
     cx="1103.1901"
     cy="664.50476"
     r="317.28772"
     fx="1103.1901"
     fy="664.50476"
     id="radialGradient1959"
     xlink:href="#linearGradient2877"
     gradientUnits="userSpaceOnUse"
     gradientTransform="matrix(18.32073,-14.69579,35.73752,44.55268,-15370.89,2544.541)" /><radialGradient
     cx="1103.1901"
     cy="664.50476"
     r="317.28772"
     fx="1103.1901"
     fy="664.50476"
     id="radialGradient1961"
     xlink:href="#linearGradient2877"
     gradientUnits="userSpaceOnUse"
     gradientTransform="matrix(18.32073,-14.69579,35.73752,44.55268,-15370.89,2544.541)" /><radialGradient
     cx="1103.1901"
     cy="664.50476"
     r="317.28772"
     fx="1103.1901"
     fy="664.50476"
     id="radialGradient1964"
     xlink:href="#linearGradient2877"
     gradientUnits="userSpaceOnUse"
     gradientTransform="matrix(18.32073,-14.69579,35.73752,44.55268,-15408.13,2601.821)" /><radialGradient
     cx="1103.1901"
     cy="664.50476"
     r="317.28772"
     fx="1103.1901"
     fy="664.50476"
     id="radialGradient1968"
     xlink:href="#linearGradient2877"
     gradientUnits="userSpaceOnUse"
     gradientTransform="matrix(18.32073,-14.69579,35.73752,44.55268,-15408.13,2601.821)" /><radialGradient
     cx="911.69879"
     cy="726.38788"
     r="496.23434"
     fx="911.69879"
     fy="726.38788"
     id="radialGradient1979"
     xlink:href="#linearGradient2885"
     gradientUnits="userSpaceOnUse"
     gradientTransform="matrix(0.844855,-0.39514,0.126652,0.270798,50.16003,671.0871)" /></defs>

























































<path
   d="M 0.80151797,632.31757 C 0.80151797,213.53692 340.2838,-125.94536 759.06444,-125.94536 C 1177.8452,-125.94536 1517.3286,213.53692 1517.3286,632.31757 C 1517.3286,1051.0983 1177.8464,1390.6047 759.06444,1390.6047 C 340.2838,1390.6047 0.80151797,1051.0983 0.80151797,632.31757"
   style="fill:#182f4d;fill-opacity:1;stroke:none;stroke-width:31.74259377;stroke-miterlimit:4;stroke-dasharray:none;stroke-opacity:1"
   id="path3168" /><path
   d="M 759.0622,-37.00472 C 388.95043,-37.00472 89.744688,262.20104 89.744688,632.3128 C 89.744688,1002.4246 388.95285,1301.6678 759.0622,1301.6678 C 1129.1727,1301.6678 1428.3797,1002.4247 1428.3797,632.3128 C 1428.3797,262.20103 1129.174,-37.00472 759.0622,-37.00472 z "
   style="fill:#3a78d1;fill-opacity:1;stroke:none;stroke-width:31.74259377;stroke-miterlimit:4;stroke-dasharray:none;stroke-opacity:1"
   id="path3220" /><path
   d="M 759.0622,57.972248 C 440.97569,57.972248 184.71997,314.22798 184.71997,632.31448 C 184.71997,950.40083 440.98038,1206.6908 759.0622,1206.6908 C 1077.1451,1206.6908 1333.4044,950.40098 1333.4044,632.31448 C 1333.4044,314.22796 1077.1487,57.972248 759.0622,57.972248 z "
   style="fill:url(#radialGradient2899);fill-opacity:1;stroke:none;stroke-width:31.74259377;stroke-miterlimit:4;stroke-dasharray:none;stroke-opacity:1"
   id="path3222" /><path
   d="M 533.95562,609.84231 C 511.67572,610.69393 491.39706,622.77189 479.98687,641.90481 L 473.20562,653.21731 C 460.60619,674.26832 460.74703,700.55578 473.61187,721.46731 L 491.89312,751.18606 C 491.95509,751.28016 492.01759,751.37391 492.08062,751.46731 C 492.46143,752.0715 492.83548,752.65881 493.23687,753.24856 C 493.9558,754.33229 494.8262,755.59887 496.36187,757.52981 C 496.36187,757.52981 523.45022,794.12911 542.29937,818.96731 C 560.947,843.50185 589.79937,880.59231 589.79937,880.59231 L 597.36187,891.31106 C 601.37344,899.10923 620.98782,936.84795 656.89312,965.15481 C 670.07677,975.54107 686.36649,984.8878 705.89312,989.31106 C 715.6695,991.52565 729.41479,993.14525 744.79937,989.65481 C 762.41509,985.65822 780.52388,974.83588 792.26812,956.52981 C 802.45314,940.69675 806.4269,922.29851 804.42437,904.43606 C 802.62104,888.35033 796.40329,875.58163 790.92437,866.81106 C 780.32593,849.84526 767.38426,838.44392 756.86187,829.46731 C 738.60441,813.90204 720.10068,802.5559 710.76812,796.96731 L 705.73687,790.99856 C 705.73687,790.99856 675.73462,754.02239 657.86187,730.77981 C 639.63625,707.05058 610.29937,666.65481 610.29937,666.65481 L 590.51812,638.09231 C 577.74077,619.62944 556.46771,609.02801 534.08062,609.84231 C 534.03895,609.84222 533.99729,609.84222 533.95562,609.84231 z "
   style="color:black;fill:#33372e;fill-opacity:1;fill-rule:nonzero;stroke:none;stroke-width:31.74259377;stroke-linecap:butt;stroke-linejoin:miter;marker:none;marker-start:none;marker-mid:none;marker-end:none;stroke-miterlimit:4;stroke-dashoffset:0;stroke-opacity:1;visibility:visible;display:inline;overflow:visible"
   id="path1943" /><path
   d="M 526.67437,220.24856 C 486.70562,220.34462 451.58143,232.1223 425.79937,251.99856 C 389.91647,279.64839 372.03536,320.13345 366.14312,359.68606 C 360.30102,398.90212 365.11451,439.17825 373.36187,477.40481 C 389.96867,554.37739 424.57034,629.13271 456.58062,682.96731 C 471.24233,707.70404 501.57126,718.66596 528.67437,709.18606 L 540.23687,705.34231 C 540.35177,705.30152 540.46636,705.25985 540.58062,705.21731 C 557.94929,699.1478 572.07431,685.37625 578.14312,667.52981 C 584.14778,649.87224 581.61652,630.36576 571.54937,614.96731 C 558.24868,594.56331 522.22305,522.71611 506.23687,461.34231 C 498.25336,430.69217 494.93394,399.92192 496.95562,382.93606 C 498.12967,373.07184 499.8713,367.7824 501.14312,365.43606 C 502.41494,363.08972 502.93418,362.45468 506.89312,360.18606 C 515.70553,355.13873 526.04018,353.33195 547.79937,358.68606 C 568.93557,363.88687 597.7559,377.12385 628.36187,397.90481 C 630.94583,399.65929 638.02896,407.4693 648.23687,415.12356 C 655.49209,420.56827 665.2013,421.44516 673.31465,417.38849 C 681.428,413.33181 686.552,405.03831 686.54937,395.96731 L 686.54937,288.81106 C 686.54736,280.22172 681.94433,272.29162 674.48687,268.02981 C 620.7193,237.26699 571.48223,220.14092 526.67437,220.24856 z "
   style="fill:#33372e;fill-opacity:1;stroke:none;stroke-width:31.74259377;stroke-miterlimit:4;stroke-opacity:1"
   id="path1940" /><path
   d="M 535.39312,646.46731 C 525.56621,646.83625 516.52461,652.20739 511.48687,660.65481 L 504.64312,672.06106 C 499.0926,681.335 499.16723,693.04283 504.83062,702.24856 L 523.11187,731.99856 C 523.25352,732.24066 523.39938,732.48028 523.54937,732.71731 C 524.01164,733.41417 524.52935,734.06344 525.04937,734.71731 C 525.04937,734.71731 552.88822,772.3342 571.48687,796.84231 C 589.88077,821.04303 618.70562,858.12356 618.70562,858.12356 L 628.58062,871.99856 C 631.03828,876.63979 650.11969,913.14728 679.58062,936.37356 C 689.66871,944.32109 701.00151,950.61957 713.98687,953.56106 C 720.42501,955.01947 728.17589,955.83293 736.67437,953.90481 C 746.06476,951.77439 755.30606,946.28534 761.42437,936.74856 C 766.9168,928.21038 769.12807,918.15174 768.04937,908.52981 C 767.03739,899.5028 763.53755,892.10128 759.86187,886.21731 C 752.53939,874.49561 743.00244,865.80657 733.08062,857.34231 C 715.45254,842.3136 692.42345,828.51153 686.45562,824.96731 L 677.73687,814.62356 C 677.73687,814.62356 647.29742,777.14806 628.79937,753.09231 C 609.92607,728.51982 580.64312,688.18606 580.64312,688.18606 L 560.42437,658.96731 C 554.78723,650.82185 545.32235,646.10058 535.42437,646.46731 L 535.39312,646.46731 z "
   style="color:black;fill:#d3d7cf;fill-opacity:1;fill-rule:nonzero;stroke:none;stroke-width:31.74259377;stroke-linecap:butt;stroke-linejoin:miter;marker:none;marker-start:none;marker-mid:none;marker-end:none;stroke-miterlimit:4;stroke-dashoffset:0;stroke-opacity:1;visibility:visible;display:inline;overflow:visible"
   id="path1938" /><path
   d="M 526.67437,253.62356 C 493.36159,253.70362 466.19261,263.81456 446.86187,278.71731 C 419.16943,300.05587 404.53252,331.73594 399.54937,365.18606 C 394.60913,398.34807 397.95332,433.75421 405.70562,469.68606 C 421.20102,541.50733 454.05118,615.0308 484.48687,666.21731 C 491.79093,678.54036 505.58274,682.15293 517.54937,677.96731 L 529.14312,674.15481 C 529.24763,674.11401 529.3518,674.07234 529.45562,674.02981 C 538.99486,670.69625 543.64537,666.07883 546.92437,656.43606 C 549.7433,648.14637 547.25862,638.22903 543.73687,632.84231 C 526.90885,607.02716 491.32371,535.74535 473.98687,469.18606 C 465.34974,436.02655 461.62181,404.12672 464.54937,379.52981 C 467.47611,354.93984 475.14175,340.45376 491.20562,331.24856 C 508.56463,321.30616 528.58032,319.75338 555.61187,326.40481 C 582.34092,332.9818 614.24366,348.69044 647.23687,371.09231 C 646.93518,370.88747 648.38646,372.10424 651.08062,373.96731 C 657.28788,378.25827 665.36302,378.75209 672.04688,375.24946 C 678.73074,371.74683 682.9202,364.82583 682.92437,357.27981 L 682.92437,322.56106 C 682.92393,315.57946 679.33589,309.08795 673.42437,305.37356 C 616.32969,269.46637 567.55152,253.52536 526.67437,253.62356 z "
   style="fill:url(#radialGradient1968);fill-opacity:1;stroke:none;stroke-width:31.74259377;stroke-miterlimit:4;stroke-opacity:1"
   id="path1934" /><path
   d="M 1421.2188,28.6875 C 1406.0708,28.673561 1391.0712,32.231083 1377.5312,39.125 C 1366.8794,44.553459 1357.8147,52.664578 1351.25,62.65625 L 1352.375,63.40625 C 1350.2029,65.190033 1347.8654,67.230095 1346.125,69.28125 C 1341.8764,74.288579 1334.384,82.496052 1321.6875,94.8125 C 1296.4097,119.33371 1252.9976,156.36976 1183.4375,201.875 C 1044.3206,292.88349 800.5086,417.68468 389.53125,543.28125 C 388.26134,543.67192 386.99514,544.09901 385.75,544.5625 C 313.05433,571.45519 271.58828,588.37859 246.8125,599.21875 C 222.03672,610.05891 213.49892,614.98956 209.15625,616.8125 C 208.82288,616.95227 208.48744,617.10496 208.15625,617.25 C 81.878822,672.6299 34.53125,707.6875 34.53125,707.6875 C 34.186145,707.95362 33.862253,708.24617 33.5625,708.5625 C 7.6362851,727.56021 -7.5218572,758.4368 -5.84375,790.90625 C -3.9930058,826.71585 17.927764,858.78376 50.625,873.53125 L 67.9375,881.34375 C 94.354424,893.23682 124.98907,892.69702 151.03125,879.46875 L 254.34375,826.96875 C 304.51196,806.92526 379.50902,779.76806 475.375,755.1875 C 485.77844,752.97283 495.86131,750.65513 505.90625,748.3125 C 444.14214,792.52617 386.32602,836.66861 345.875,872.8125 C 277.17266,934.22093 178.875,1025.7812 178.875,1025.7812 C 160.52548,1042.8884 149.56126,1066.5279 148.375,1091.5625 L 147.5,1109.75 C 147.37538,1112.3555 147.52384,1114.5462 147.5625,1116.3438 L 155.875,1116.1562 L 155.96875,1116.1562 L 164.28125,1116.1562 C 164.28125,1116.1562 149.94699,1122.1345 149.96875,1122.1562 C 149.99051,1122.178 149.6559,1121.7809 149.65625,1121.7812 L 155.96875,1116.25 L 147.5625,1116.4375 C 147.58108,1117.2616 147.49106,1118.7069 147.625,1120.7188 C 147.91312,1125.0338 151.42751,1128.4265 155.75,1128.5625 C 161.33627,1134.7837 172.13679,1146.6874 184.3125,1159.0625 C 191.17552,1166.0379 198.18662,1172.8445 204.4375,1178.2812 C 210.68838,1183.718 215.05693,1187.8858 221.75,1189.8125 C 228.67592,1191.8062 235.86792,1193.791 243.5625,1195.4688 C 247.26305,1196.2756 251.36222,1197.1629 257.625,1197.7812 C 260.42742,1198.058 264.83368,1198.5174 271.9375,1197.9375 C 273.54235,1197.8065 280.08057,1198.4025 288.03125,1196.0625 C 295.98193,1193.7225 305.44244,1188.3885 316.28125,1177.4375 C 318.73637,1174.9571 322.74337,1170.975 328.09375,1165.7812 C 338.77473,1155.4129 354.90404,1140.1714 376.1875,1121.2812 C 418.78089,1083.4776 481.93451,1031.1051 562.28125,974.59375 C 645.06579,917.2667 796.20155,814.12148 894.53125,753.34375 C 1007.0181,683.82675 1123.0389,595.10643 1200.1875,535.21875 C 1297.8758,459.38643 1359.1526,391.96715 1385.125,362.3125 C 1458.2677,278.7462 1508.2812,167.0625 1508.2812,167.0625 C 1520.3825,123.62935 1515.7391,123.84944 1515.375,118.96875 C 1514.8756,93.722533 1490.7497,60.546523 1489.2812,57.0625 C 1471.331,38.977576 1446.8257,28.768524 1421.375,28.6875 C 1421.3646,28.687481 1421.3542,28.687481 1421.3438,28.6875 C 1421.2963,28.687451 1421.2662,28.687451 1421.2188,28.6875 z "
   transform="translate(5.727985,34.36789)"
   style="color:black;fill:#600;fill-opacity:1;fill-rule:nonzero;stroke:none;stroke-width:31.74258995;stroke-linecap:butt;stroke-linejoin:miter;marker:none;marker-start:none;marker-mid:none;marker-end:none;stroke-miterlimit:4;stroke-dashoffset:0;stroke-opacity:1;visibility:visible;display:inline;overflow:visible"
   id="path1981" /><path
   d="M 1421.0625,94.96875 C 1411.6162,94.97817 1402.7297,99.450378 1397.0938,107.03125 C 1397.0938,107.03125 1348.4132,173.97538 1199.6562,271.8125 C 1050.8994,369.64962 804.04994,495.59504 413.96875,604.65625 C 413.07017,604.90633 412.18379,605.19832 411.3125,605.53125 C 394.13796,612.12916 382.56793,616.60546 375.03125,619.5625 C 367.73743,622.42426 367.52519,622.11224 361.4375,625.15625 C 348.60973,629.84836 335.90667,634.47629 297.3125,648.71875 C 296.75367,648.93131 296.20134,649.16058 295.65625,649.40625 C 172.77242,703.29787 75.125,760.09375 75.125,760.09375 C 65.451121,765.72998 59.733376,776.28771 60.3125,787.46875 C 60.891623,798.64977 67.670591,808.58087 77.875,813.1875 L 95.21875,821 C 103.4695,824.71809 112.96018,824.49978 121.03125,820.40625 L 226.75,766.6875 L 227.0625,766.53125 C 279.2051,745.60834 358.19217,716.83167 458.9375,691 C 554.30489,670.69827 641.72433,642.25218 729.75,620.90625 C 780.00375,608.72268 830.41357,593.95795 879.75,577.34375 C 815.52248,621.64724 763.59056,656.29036 747.75,666.0625 C 634.60879,735.85375 468.86903,851.75083 389.96875,922.25 C 322.25965,982.7707 224.03125,1074.2812 224.03125,1074.2812 C 218.32033,1079.594 214.91128,1086.928 214.53125,1094.7188 L 213.65625,1112.9062 C 213.57789,1114.7017 213.66157,1116.5007 213.90625,1118.2812 C 213.90625,1118.2812 266.40642,1133.6841 269.21875,1130.8438 C 272.03108,1128.0033 276.28452,1123.736 281.9375,1118.25 C 293.24347,1107.2781 310.15456,1091.3569 332.25,1071.75 C 376.44088,1032.5363 441.42283,978.65879 524.15625,920.46875 C 607.36056,862.85095 758.76713,759.41766 859.75,697 C 968.0628,630.06258 1082.8687,542.46499 1159.5938,482.90625 C 1252.913,410.4656 1310.5475,346.93214 1335.3125,318.65625 C 1398.4293,246.54456 1448.1562,139.3125 1448.1562,139.3125 C 1450.1137,135.13107 1451.0763,130.55318 1450.9688,125.9375 C 1450.9763,125.55212 1450.9762,125.16663 1450.9688,124.78125 C 1450.9184,108.30056 1437.5433,94.967367 1421.0625,94.96875 z "
   transform="translate(5.727985,34.36789)"
   style="color:black;fill:#f35252;fill-opacity:1;fill-rule:nonzero;stroke:none;stroke-width:31.74258995;stroke-linecap:butt;stroke-linejoin:miter;marker:none;marker-start:none;marker-mid:none;marker-end:none;stroke-miterlimit:4;stroke-dasharray:none;stroke-dashoffset:0;stroke-opacity:1;visibility:visible;display:inline;overflow:visible"
   id="path1984" /><path
   d="M 1375.0312,153.96875 C 1369.07,154.04862 1363.6034,157.30002 1360.6875,162.5 C 1355.5745,171.6449 1349.7671,181.605 1343.625,191.8125 C 1297.216,255.21568 1114.1351,429.41602 444.84375,625.875 C 441.88285,626.74811 439.22187,628.42475 437.15625,630.71875 C 434.34704,633.82844 428.95172,638.22043 431.34375,649.25 C 432.53977,654.76478 436.91298,659.39665 440.28125,661.3125 C 443.64952,663.22835 446.21004,663.64998 448.375,663.9375 C 457.03483,665.08757 463.10826,663.51527 472.25,661.59375 C 490.53349,657.7507 516.48666,650.21114 546.0625,641.1875 C 605.21418,623.14023 678.49308,599.12887 721.9375,588.59375 C 871.42769,552.35118 1023.7029,494.17908 1136.875,425.21875 C 1137.7069,424.71525 1138.7229,424.62265 1139.6562,424.9375 C 1140.6107,425.25948 1141.3106,425.91974 1141.6875,426.875 C 1143.6471,431.83857 1147.8607,435.56685 1153.0259,436.90759 C 1158.1912,438.24833 1163.6861,437.04007 1167.8125,433.65625 C 1241.99,372.82152 1288.7592,321.39003 1310.3125,296.78125 C 1333.1708,270.66527 1354.2853,238.89725 1371.9062,209.65625 C 1371.9378,209.60434 1371.969,209.55225 1372,209.5 C 1386.1568,189.68849 1391.125,175.875 1391.125,175.875 C 1392.8065,170.74956 1391.909,165.12755 1388.7153,160.78039 C 1385.5216,156.43323 1380.4249,153.89623 1375.0312,153.96875 z "
   transform="translate(5.727985,34.36789)"
   style="color:black;fill:url(#radialGradient1979);fill-opacity:1;fill-rule:nonzero;stroke:none;stroke-width:31.74258995;stroke-linecap:butt;stroke-linejoin:miter;marker:none;marker-start:none;marker-mid:none;marker-end:none;stroke-miterlimit:4;stroke-dasharray:none;stroke-dashoffset:0;stroke-opacity:1;visibility:visible;display:inline;overflow:visible"
   id="path1977" /><path
   d="M 675.64474,269.06885 C 669.23669,268.94095 663.04648,271.39572 658.46762,275.88053 C 653.88877,280.36533 651.30609,286.50328 651.30099,292.9126 L 636.65803,394.54649 C 636.66177,402.0616 640.20478,409.13606 646.22053,413.64024 C 703.1966,456.36288 766.5958,518.01958 818.75178,581.70274 C 912.36383,696.00321 953.84354,790.24889 967.62678,854.32774 C 974.44954,886.04678 974.01242,910.38355 971.40803,925.60899 C 970.22384,932.53227 968.26657,937.54469 966.78303,940.64024 C 961.93736,942.28815 947.05869,945.77957 931.72053,943.67149 C 916.81543,941.62289 906.58426,938.27254 901.84553,936.60899 C 900.56112,935.72212 899.20184,934.88349 897.65803,934.26524 C 897.55416,934.22284 897.44999,934.18117 897.34553,934.14024 C 889.42374,931.09603 885.57594,931.63151 887.50178,932.01524 L 867.53303,927.23399 C 867.31503,927.17882 867.09626,927.12673 866.87678,927.07774 C 835.7978,920.59853 805.62566,939.64732 796.53303,969.26524 C 787.4453,998.86696 802.30941,1031.1007 831.12678,1042.9528 C 831.15798,1042.9737 831.18923,1042.9945 831.22053,1043.0153 C 833.8204,1044.0712 835.01651,1044.3297 836.06428,1044.5153 L 855.28303,1052.0465 C 856.57626,1052.6181 881.91755,1064.4387 915.50178,1070.2027 C 951.16558,1076.3237 1004.3958,1078.4319 1050.533,1045.234 C 1074.1277,1028.2664 1085.5005,1002.9807 1094.0955,975.42149 C 1103.2887,945.94383 1108.7615,907.74785 1104.0018,861.70274 C 1094.5218,769.99502 1047.0434,649.06595 924.18928,497.95274 C 827.48975,378.99631 759.10572,313.43748 687.01974,272.19385 C 683.54928,270.21682 679.63815,269.14234 675.64474,269.06885 L 675.64474,269.06885 z "
   style="fill:#33372e;fill-opacity:1;stroke:none;stroke-width:31.74259377;stroke-miterlimit:4;stroke-opacity:1"
   id="path1928" /><path
   d="M 657.01812,298.49856 C 646.14138,298.92031 637.54308,307.86365 637.54937,318.74856 L 637.54937,353.46731 C 637.54664,360.11364 640.80498,366.33835 646.26812,370.12356 C 711.24369,415.05462 785.48088,488.66658 844.36187,560.56106 C 940.58945,678.05512 984.68822,775.75896 999.92432,846.59231 C 1007.5229,881.91819 1007.6448,910.50192 1004.2056,930.93606 C 1000.7664,951.3702 992.77882,963.30349 990.04932,965.52981 C 975.63542,977.29125 950.83912,979.27372 927.23687,976.02981 C 903.79488,972.80794 885.51812,965.43606 885.51812,965.43606 C 885.39365,965.38272 885.26864,965.33064 885.14312,965.27981 C 883.7387,964.74022 882.22716,964.45921 880.73687,964.27981 L 860.73687,959.52981 C 860.54997,959.48548 860.36245,959.44381 860.17437,959.40481 C 846.1473,956.48062 832.36784,963.26561 827.76812,978.24856 C 822.86562,994.2183 832.11906,1006.7942 844.39312,1011.8423 L 866.83062,1021.5923 C 866.85144,1021.6028 866.87227,1021.6132 866.89312,1021.6236 C 866.89312,1021.6236 889.92819,1031.5635 921.04937,1036.9048 C 952.15867,1042.244 994.88442,1044.1524 1030.5806,1018.4673 C 1045.5107,1007.7307 1055.152,990.22588 1062.8931,965.40481 C 1070.7671,940.15743 1074.947,906.66519 1070.6431,865.02981 C 1062.0185,781.59464 1018.5343,666.64516 898.54937,519.06106 C 810.91365,411.2546 732.3564,341.7013 668.58062,301.59231 C 665.12615,299.41975 661.09595,298.3414 657.01812,298.49856 L 657.01812,298.49856 z M 875.42437,964.06106 C 875.74618,964.037 876.2953,964.13482 876.67437,964.12356 C 875.39116,964.1653 873.93121,964.19409 873.64312,964.24856 C 873.23025,964.32662 874.02475,964.16571 875.42437,964.06106 z "
   style="fill:url(#radialGradient1964);fill-opacity:1;stroke:none;stroke-width:31.74259377;stroke-miterlimit:4;stroke-opacity:1"
   id="path1930" />
</svg>