<?xml version="1.0" encoding="UTF-8" standalone="no"?>
<!-- Created with Inkscape (http://www.inkscape.org/) -->
<svg
   xmlns:dc="http://purl.org/dc/elements/1.1/"
   xmlns:cc="http://creativecommons.org/ns#"
   xmlns:rdf="http://www.w3.org/1999/02/22-rdf-syntax-ns#"
   xmlns:svg="http://www.w3.org/2000/svg"
   xmlns="http://www.w3.org/2000/svg"
   xmlns:sodipodi="http://sodipodi.sourceforge.net/DTD/sodipodi-0.dtd"
   xmlns:inkscape="http://www.inkscape.org/namespaces/inkscape"
   version="1.0"
   width="16"
   height="16"
   id="svg2"
   sodipodi:version="0.32"
   inkscape:version="0.46"
   sodipodi:docname="aldrin_samplebank.svg"
   inkscape:output_extension="org.inkscape.output.svg.inkscape">
  <metadata
     id="metadata2870">
    <rdf:RDF>
      <cc:Work
         rdf:about="">
        <dc:format>image/svg+xml</dc:format>
        <dc:type
           rdf:resource="http://purl.org/dc/dcmitype/StillImage" />
      </cc:Work>
    </rdf:RDF>
  </metadata>
  <sodipodi:namedview
     inkscape:window-height="787"
     inkscape:window-width="1440"
     inkscape:pageshadow="2"
     inkscape:pageopacity="0.0"
     guidetolerance="10.0"
     gridtolerance="10.0"
     objecttolerance="10.0"
     borderopacity="1.0"
     bordercolor="#666666"
     pagecolor="#ffffff"
     id="base"
     showgrid="true"
     inkscape:zoom="39.076557"
     inkscape:cx="4.8776137"
     inkscape:cy="8.0874568"
     inkscape:window-x="0"
     inkscape:window-y="44"
     inkscape:current-layer="svg2">
    <inkscape:grid
       type="xygrid"
       id="grid2894" />
  </sodipodi:namedview>
  <defs
     id="defs4">
    <inkscape:perspective
       sodipodi:type="inkscape:persp3d"
       inkscape:vp_x="0 : 8 : 1"
       inkscape:vp_y="0 : 1000 : 0"
       inkscape:vp_z="16 : 8 : 1"
       inkscape:persp3d-origin="8 : 5.3333333 : 1"
       id="perspective2872" />
  </defs>
  <path
     sodipodi:type="inkscape:offset"
     inkscape:radius="-0.74663687"
     inkscape:original="M 10.96875 2.03125 C 10.382113 2.0572715 9.8659928 2.3160989 9.46875 2.6875 C 9.0715072 3.0589011 8.802511 3.5471246 8.5625 4.09375 C 8.082478 5.1870008 7.7813277 6.5274645 7.5 7.875 C 7.4904176 7.920899 7.4783413 7.9541517 7.46875 8 L 1.5625 8 L 0.90625 8 L 1.09375 8.65625 C 1.09375 8.65625 1.4821127 9.9814022 2.125 11.3125 C 2.4464436 11.978049 2.8178876 12.66368 3.28125 13.1875 C 3.7446124 13.71132 4.3224048 14.124824 5.03125 14.0625 C 5.616591 14.011035 6.1398254 13.729231 6.53125 13.34375 C 6.9226746 12.958269 7.1991367 12.492913 7.4375 11.9375 C 7.8018438 11.088538 8.0274272 10.026502 8.25 9 L 14.5625 9 L 15.1875 9 L 15.0625 8.40625 C 15.0625 8.40625 14.703427 6.8666809 14.0625 5.3125 C 13.742037 4.5354096 13.358572 3.742111 12.875 3.125 C 12.391428 2.507889 11.744894 1.9968226 10.96875 2.03125 z "
     style="fill:#fef5ae;fill-opacity:1;fill-rule:evenodd;stroke:none;stroke-width:1px;stroke-linecap:butt;stroke-linejoin:miter;stroke-opacity:1"
     id="path4366"
     d="M 11,2.78125 C 10.612962,2.7984179 10.256732,2.949502 9.96875,3.21875 C 9.6871211,3.4820582 9.4732446,3.8978102 9.25,4.40625 C 8.814085,5.3990471 8.498537,6.6910943 8.21875,8.03125 C 8.1982643,8.1293749 8.1861866,8.1625281 8.1875,8.15625 C 8.1894637,8.1874692 8.1894637,8.2187808 8.1875,8.25 C 8.2083242,8.2491277 8.2291758,8.2491277 8.25,8.25 L 14.25,8.25 C 14.185804,7.9877921 13.923207,6.9230951 13.375,5.59375 C 13.066291,4.8451618 12.69141,4.1171763 12.28125,3.59375 C 11.873522,3.0734275 11.431013,2.7621316 11,2.78125 z M 1.9375,8.75 C 2.0163767,9.0067714 2.2773979,9.8920714 2.8125,11 C 3.1233145,11.643541 3.4634113,12.257536 3.84375,12.6875 C 4.2322267,13.126664 4.5822,13.346487 4.96875,13.3125 C 5.3558764,13.278463 5.7159684,13.092219 6,12.8125 C 6.3026108,12.514484 6.5345435,12.158288 6.75,11.65625 C 7.0693929,10.912029 7.3082165,9.8723766 7.53125,8.84375 C 7.5292863,8.8125308 7.5292863,8.7812192 7.53125,8.75 C 7.5104258,8.7508723 7.4895742,8.7508723 7.46875,8.75 L 1.9375,8.75 z" />
  <path
     style="fill:none;fill-rule:evenodd;stroke:#c4a000;stroke-width:1px;stroke-linecap:butt;stroke-linejoin:miter;stroke-opacity:1"
     d="M 1.5629974,8.5118158 L 14.564957,8.5137749 C 14.564957,8.5137749 13.161206,2.4415419 11,2.5374065 C 7.2447033,2.7039802 8.7445437,13.233768 5,13.562998 C 3.0864448,13.731243 1.5629974,8.5118158 1.5629974,8.5118158 z"
     id="path4350"
     sodipodi:nodetypes="ccssc" />
  <path
     sodipodi:type="inkscape:offset"
     inkscape:radius="-1.0805821"
     inkscape:original="M 11 2.78125 C 10.612962 2.7984179 10.256732 2.949502 9.96875 3.21875 C 9.6871211 3.4820582 9.4732446 3.8978102 9.25 4.40625 C 8.814085 5.3990471 8.498537 6.6910943 8.21875 8.03125 C 8.1982643 8.1293749 8.1861866 8.1625281 8.1875 8.15625 C 8.1894637 8.1874692 8.1894637 8.2187808 8.1875 8.25 C 8.2083242 8.2491277 8.2291758 8.2491277 8.25 8.25 L 14.25 8.25 C 14.185804 7.9877921 13.923207 6.9230951 13.375 5.59375 C 13.066291 4.8451618 12.69141 4.1171763 12.28125 3.59375 C 11.873522 3.0734275 11.431013 2.7621316 11 2.78125 z M 1.9375 8.75 C 2.0163767 9.0067714 2.2773979 9.8920714 2.8125 11 C 3.1233145 11.643541 3.4634113 12.257536 3.84375 12.6875 C 4.2322267 13.126664 4.5822 13.346487 4.96875 13.3125 C 5.3558764 13.278463 5.7159684 13.092219 6 12.8125 C 6.3026108 12.514484 6.5345435 12.158288 6.75 11.65625 C 7.0693929 10.912029 7.3082165 9.8723766 7.53125 8.84375 C 7.5292863 8.8125308 7.5292863 8.7812192 7.53125 8.75 C 7.5104258 8.7508723 7.4895742 8.7508723 7.46875 8.75 L 1.9375 8.75 z "
     style="fill:#fce94f;fill-opacity:1;fill-rule:evenodd;stroke:none;stroke-width:1px;stroke-linecap:butt;stroke-linejoin:miter;stroke-opacity:1"
     id="path4370"
     d="M 11.0625,3.875 C 10.92652,3.8810317 10.82931,3.8966324 10.71875,4 C 10.65226,4.0621643 10.458283,4.3693846 10.25,4.84375 C 9.995901,5.4224608 9.7987818,6.3170583 9.59375,7.15625 L 12.75,7.15625 C 12.618501,6.7356263 12.614087,6.5797606 12.375,6 C 12.089704,5.3081853 11.7448,4.6421614 11.4375,4.25 C 11.134834,3.8637528 10.94204,3.8803432 11.0625,3.875 z M 3.5,9.84375 C 3.6105888,10.121323 3.6169277,10.191021 3.78125,10.53125 C 4.0748719,11.139194 4.4023556,11.681728 4.65625,11.96875 C 4.9499001,12.300715 4.9501022,12.243397 4.875,12.25 C 4.9777709,12.240964 5.1204361,12.158847 5.25,12.03125 C 5.4425816,11.841592 5.5723283,11.632745 5.75,11.21875 C 5.8837289,10.907147 5.9980512,10.329831 6.125,9.84375 L 3.5,9.84375 z" />
</svg>
