<?xml version="1.0" encoding="UTF-8" standalone="no"?>
<!-- Created with Inkscape (http://www.inkscape.org/) -->
<svg
   xmlns:svg="http://www.w3.org/2000/svg"
   xmlns="http://www.w3.org/2000/svg"
   version="1.0"
   width="16"
   height="16"
   id="svg2">
  <defs
     id="defs4" />
  <g
     id="layer1">
    <path
       d="M 14.950819 7.0491805 A 7.9672132 7.9672132 0 1 1  -0.98360682,7.0491805 A 7.9672132 7.9672132 0 1 1  14.950819 7.0491805 z"
       transform="matrix(1.0041152,0,0,1.0041152,0.9876546,0.9218109)"
       style="opacity:1;color:#000000;fill:#2e3436;fill-opacity:1;fill-rule:evenodd;stroke:none;stroke-width:1px;stroke-linecap:butt;stroke-linejoin:miter;marker:none;marker-start:none;marker-mid:none;marker-end:none;stroke-miterlimit:4;stroke-dasharray:none;stroke-dashoffset:0;stroke-opacity:1;visibility:visible;display:inline;overflow:visible;enable-background:accumulate"
       id="path2180" />
    <path
       d="M 14.950819 7.0491805 A 7.9672132 7.9672132 0 1 1  -0.98360682,7.0491805 A 7.9672132 7.9672132 0 1 1  14.950819 7.0491805 z"
       transform="matrix(0.8786008,0,0,0.8786008,1.8641977,1.8065845)"
       style="opacity:1;color:#000000;fill:#d3d7cf;fill-opacity:1;fill-rule:evenodd;stroke:none;stroke-width:1.14285719px;stroke-linecap:butt;stroke-linejoin:miter;marker:none;marker-start:none;marker-mid:none;marker-end:none;stroke-miterlimit:4;stroke-dasharray:none;stroke-dashoffset:0;stroke-opacity:1;visibility:visible;display:inline;overflow:visible;enable-background:accumulate"
       id="path2182" />
    <path
       d="M 14.950819 7.0491805 A 7.9672132 7.9672132 0 1 1  -0.98360682,7.0491805 A 7.9672132 7.9672132 0 1 1  14.950819 7.0491805 z"
       transform="matrix(0.7530864,0,0,0.7530864,1.7407412,2.6913579)"
       style="opacity:1;color:#000000;fill:#2e3436;fill-opacity:1;fill-rule:evenodd;stroke:none;stroke-width:1.33333337px;stroke-linecap:butt;stroke-linejoin:miter;marker:none;marker-start:none;marker-mid:none;marker-end:none;stroke-miterlimit:4;stroke-dasharray:none;stroke-dashoffset:0;stroke-opacity:1;visibility:visible;display:inline;overflow:visible;enable-background:accumulate"
       id="path2184" />
    <path
       d="M 7.0625,3 C 5.777406,2.9822729 4.5136558,3.4624741 3.53125,4.40625 C 1.5696707,6.2906971 1.5107867,9.4281205 3.40625,11.375 C 3.4101313,11.379744 3.4023303,11.401548 3.40625,11.40625 C 3.883084,11.978283 4.642782,12.248664 5.375,12.09375 C 6.1219643,11.935716 6.7198215,11.363209 6.90625,10.625 C 7.0889982,9.9013647 6.8431364,9.1456434 6.28125,8.65625 C 6.2706832,8.6455155 6.2600063,8.6359485 6.25,8.625 C 5.8785166,8.2185384 5.9111826,7.666787 6.3125,7.28125 C 6.726962,6.8830856 7.318161,6.874305 7.71875,7.28125 C 8.1198072,7.6886706 8.0978466,8.2589851 7.6875,8.65625 C 6.8971399,9.4198758 6.8831066,10.687808 7.65625,11.46875 C 8.4293931,12.249691 9.7096402,12.263626 10.5,11.5 C 12.4588,9.6036459 12.505199,6.4417782 10.59375,4.5 C 9.6373782,3.5284547 8.342582,3.017658 7.0625,3 z M 7.0625,4 C 8.0953724,4.0142478 9.1084212,4.4087589 9.875,5.1875 C 11.400223,6.7369236 11.374426,9.269118 9.8125,10.78125 C 9.410672,11.169486 8.7678419,11.178054 8.375,10.78125 C 7.982158,10.384446 8.004422,9.763236 8.40625,9.375 C 9.1911382,8.6151337 9.2031434,7.3715416 8.4375,6.59375 C 7.6692834,5.8133444 6.4124477,5.8060166 5.625,6.5625 C 4.8352183,7.3212262 4.7965551,8.5656528 5.5625,9.34375 L 5.59375,9.375 L 5.625,9.375 C 5.9201067,9.6205335 6.0299953,10.008743 5.9375,10.375 C 5.8450047,10.741257 5.5672628,11.013404 5.1875,11.09375 C 4.8077373,11.174096 4.3938895,11.048496 4.15625,10.75 L 4.15625,10.71875 L 4.125,10.71875 C 2.5940632,9.1635218 2.643411,6.6383943 4.21875,5.125 C 5.008092,4.3666963 6.0346392,3.9858213 7.0625,4 z "
       style="opacity:1;color:#000000;fill:#d3d7cf;fill-opacity:1;fill-rule:evenodd;stroke:none;stroke-width:1;stroke-linecap:round;stroke-linejoin:miter;marker:none;stroke-miterlimit:4;stroke-dasharray:none;stroke-dashoffset:0;stroke-opacity:1;visibility:visible;display:inline;overflow:visible;enable-background:accumulate"
       id="path19413" />
  </g>
</svg>
