<?xml version="1.0" encoding="UTF-8" standalone="no"?>
<!-- Created with Inkscape (http://www.inkscape.org/) -->
<svg
   xmlns:svg="http://www.w3.org/2000/svg"
   xmlns="http://www.w3.org/2000/svg"
   version="1.0"
   width="16"
   height="16"
   id="svg2">
  <defs
     id="defs4" />
  <path
     d="M 15.999999,8.0000002 C 16.001191,12.419121 12.419121,16.002158 7.9999996,16.002158 C 3.5808787,16.002158 -0.0011922853,12.419121 4.1214336e-08,8.0000002 C -0.0011922853,3.5808795 3.5808787,-0.0021581844 7.9999996,-0.0021581844 C 12.419121,-0.0021581844 16.001191,3.5808795 15.999999,8.0000002 L 15.999999,8.0000002 z "
     style="color:#000000;fill:#41222a;fill-opacity:1;fill-rule:evenodd;stroke:none;stroke-width:1px;stroke-linecap:butt;stroke-linejoin:miter;marker:none;marker-start:none;marker-mid:none;marker-end:none;stroke-miterlimit:4;stroke-dasharray:none;stroke-dashoffset:0;stroke-opacity:1;visibility:visible;display:inline;overflow:visible;enable-background:accumulate"
     id="path2180" />
  <path
     d="M 14.999999,8.0000001 C 15.001042,11.866731 11.86673,15.001888 7.9999996,15.001888 C 4.1332688,15.001888 0.99895668,11.866731 0.99999996,8.0000001 C 0.99895668,4.1332695 4.1332688,0.99811155 7.9999996,0.99811155 C 11.86673,0.99811155 15.001042,4.1332695 14.999999,8.0000001 L 14.999999,8.0000001 z "
     style="color:#000000;fill:#f23a6a;fill-opacity:1;fill-rule:evenodd;stroke:none;stroke-width:1.14285719px;stroke-linecap:butt;stroke-linejoin:miter;marker:none;marker-start:none;marker-mid:none;marker-end:none;stroke-miterlimit:4;stroke-dasharray:none;stroke-dashoffset:0;stroke-opacity:1;visibility:visible;display:inline;overflow:visible;enable-background:accumulate"
     id="path2182" />
  <path
     d="M 13,7.9999999 C 13.000894,11.31434 10.314341,14.001618 7,14.001618 C 3.6856593,14.001618 0.99910604,11.31434 1.0000003,7.9999999 C 0.99910604,4.6856593 3.6856593,1.9983811 7,1.9983811 C 10.314341,1.9983811 13.000894,4.6856593 13,7.9999999 L 13,7.9999999 z "
     style="color:#000000;fill:#41222a;fill-opacity:1;fill-rule:evenodd;stroke:none;stroke-width:1.33333337px;stroke-linecap:butt;stroke-linejoin:miter;marker:none;marker-start:none;marker-mid:none;marker-end:none;stroke-miterlimit:4;stroke-dasharray:none;stroke-dashoffset:0;stroke-opacity:1;visibility:visible;display:inline;overflow:visible;enable-background:accumulate"
     id="path2184" />
  <path
     d="M 3,11 L 3,5 C 3.982801,6.966538 8.9606395,8 12,8 C 8.9925779,8 4.022113,9.0333352 3,11 z "
     style="opacity:1;color:#000000;fill:#f23a6a;fill-opacity:1;fill-rule:evenodd;stroke:none;stroke-width:1.14285719px;stroke-linecap:butt;stroke-linejoin:miter;marker:none;marker-start:none;marker-mid:none;marker-end:none;stroke-miterlimit:4;stroke-dasharray:none;stroke-dashoffset:0;stroke-opacity:1;visibility:visible;display:inline;overflow:visible;enable-background:accumulate"
     id="path3948" />
</svg>
