<?xml version="1.0" encoding="UTF-8" standalone="no"?>
<!-- Created with Inkscape (http://www.inkscape.org/) -->
<svg
   xmlns:svg="http://www.w3.org/2000/svg"
   xmlns="http://www.w3.org/2000/svg"
   version="1.0"
   width="16"
   height="16"
   id="svg2">
  <defs
     id="defs4" />
  <g
     id="layer1">
    <path
       d="M 14.950819 7.0491805 A 7.9672132 7.9672132 0 1 1  -0.98360682,7.0491805 A 7.9672132 7.9672132 0 1 1  14.950819 7.0491805 z"
       transform="matrix(1.0041152,0,0,1.0041152,0.9876546,0.9218109)"
       style="opacity:1;color:#000000;fill:#132e54;fill-opacity:1;fill-rule:evenodd;stroke:none;stroke-width:1px;stroke-linecap:butt;stroke-linejoin:miter;marker:none;marker-start:none;marker-mid:none;marker-end:none;stroke-miterlimit:4;stroke-dasharray:none;stroke-dashoffset:0;stroke-opacity:1;visibility:visible;display:inline;overflow:visible;enable-background:accumulate"
       id="path2180" />
    <path
       d="M 14.950819 7.0491805 A 7.9672132 7.9672132 0 1 1  -0.98360682,7.0491805 A 7.9672132 7.9672132 0 1 1  14.950819 7.0491805 z"
       transform="matrix(0.8786008,0,0,0.8786008,1.8641977,1.8065845)"
       style="opacity:1;color:#000000;fill:#729fcf;fill-opacity:1;fill-rule:evenodd;stroke:none;stroke-width:1.14285719px;stroke-linecap:butt;stroke-linejoin:miter;marker:none;marker-start:none;marker-mid:none;marker-end:none;stroke-miterlimit:4;stroke-dasharray:none;stroke-dashoffset:0;stroke-opacity:1;visibility:visible;display:inline;overflow:visible;enable-background:accumulate"
       id="path2182" />
    <path
       d="M 14.950819 7.0491805 A 7.9672132 7.9672132 0 1 1  -0.98360682,7.0491805 A 7.9672132 7.9672132 0 1 1  14.950819 7.0491805 z"
       transform="matrix(0.7530864,0,0,0.7530864,1.7407412,2.6913579)"
       style="opacity:1;color:#000000;fill:#132e54;fill-opacity:1;fill-rule:evenodd;stroke:none;stroke-width:1.33333337px;stroke-linecap:butt;stroke-linejoin:miter;marker:none;marker-start:none;marker-mid:none;marker-end:none;stroke-miterlimit:4;stroke-dasharray:none;stroke-dashoffset:0;stroke-opacity:1;visibility:visible;display:inline;overflow:visible;enable-background:accumulate"
       id="path2184" />
    <path
       d="M 7.3627216,9.6989074 L 7.3458844,11.445428 L 4.8555499,10.003962 L 3.3346,10.86264 L 3.3377794,7.9852141 L 1.8336667,7.0973724 L 4.3271807,5.6614127 L 4.3440179,3.914892 L 6.8343524,5.3563586 L 8.3553023,4.4976797 L 8.3521229,7.3751059 L 9.8562356,8.2629477 L 7.3627216,9.6989074 z "
       transform="translate(1.1437644,0.5545719)"
       style="opacity:1;color:#000000;fill:none;fill-opacity:1;fill-rule:evenodd;stroke:#729fcf;stroke-width:1;stroke-linecap:round;stroke-linejoin:miter;marker:none;marker-start:none;marker-mid:none;marker-end:none;stroke-miterlimit:4;stroke-dasharray:none;stroke-dashoffset:0;stroke-opacity:1;visibility:visible;display:inline;overflow:visible;enable-background:accumulate"
       id="path12168" />
  </g>
</svg>
