<?xml version="1.0" encoding="UTF-8" standalone="no"?>
<!-- Created with Inkscape (http://www.inkscape.org/) -->
<svg
   xmlns:dc="http://purl.org/dc/elements/1.1/"
   xmlns:cc="http://creativecommons.org/ns#"
   xmlns:rdf="http://www.w3.org/1999/02/22-rdf-syntax-ns#"
   xmlns:svg="http://www.w3.org/2000/svg"
   xmlns="http://www.w3.org/2000/svg"
   xmlns:sodipodi="http://sodipodi.sourceforge.net/DTD/sodipodi-0.dtd"
   xmlns:inkscape="http://www.inkscape.org/namespaces/inkscape"
   version="1.0"
   width="16"
   height="16"
   id="svg2"
   sodipodi:version="0.32"
   inkscape:version="0.46"
   sodipodi:docname="psycle.svg"
   inkscape:output_extension="org.inkscape.output.svg.inkscape">
  <metadata
     id="metadata2669">
    <rdf:RDF>
      <cc:Work
         rdf:about="">
        <dc:format>image/svg+xml</dc:format>
        <dc:type
           rdf:resource="http://purl.org/dc/dcmitype/StillImage" />
      </cc:Work>
    </rdf:RDF>
  </metadata>
  <sodipodi:namedview
     inkscape:window-height="825"
     inkscape:window-width="1440"
     inkscape:pageshadow="2"
     inkscape:pageopacity="0.0"
     guidetolerance="10.0"
     gridtolerance="10.0"
     objecttolerance="10.0"
     borderopacity="1.0"
     bordercolor="#666666"
     pagecolor="#ffffff"
     id="base"
     showgrid="true"
     inkscape:zoom="37.654992"
     inkscape:cx="8.1009539"
     inkscape:cy="8.1009539"
     inkscape:window-x="0"
     inkscape:window-y="0"
     inkscape:current-layer="svg2"
     showguides="true"
     inkscape:guide-bbox="true">
    <inkscape:grid
       type="xygrid"
       id="grid2673" />
  </sodipodi:namedview>
  <defs
     id="defs4">
    <inkscape:perspective
       sodipodi:type="inkscape:persp3d"
       inkscape:vp_x="0 : 8 : 1"
       inkscape:vp_y="0 : 1000 : 0"
       inkscape:vp_z="16 : 8 : 1"
       inkscape:persp3d-origin="8 : 5.3333333 : 1"
       id="perspective2671" />
  </defs>
  <path
     style="font-size:20.61569214px;font-style:normal;font-weight:normal;fill:#4e9a06;fill-opacity:1;stroke:none;stroke-width:1px;stroke-linecap:butt;stroke-linejoin:miter;stroke-opacity:1;font-family:Bitstream Vera Sans"
     d="M 0.0090971589,-0.028920099 L 6.4414347,-0.028920099 C 8.3540131,-0.02890507 9.8203296,0.39723267 10.840389,1.2494944 C 11.867133,2.0950728 12.380511,3.3030223 12.380526,4.8733465 C 12.380511,6.4504018 11.867133,7.6650622 10.840389,8.5173312 C 9.8203296,9.3629023 8.3540131,9.7856846 6.4414347,9.7856794 L 3.8846057,9.7856794 L 3.8846057,15 L 0.0090971589,15 L 0.0090971589,-0.028920099 M 3.8846057,2.7795653 L 3.8846057,6.977194 L 6.0287182,6.977194 C 6.7803233,6.977202 7.3608102,6.7960096 7.7701805,6.4336162 C 8.1795315,6.0645291 8.3842118,5.5444397 8.3842221,4.8733465 C 8.3842118,4.2022736 8.1795315,3.6855397 7.7701805,3.3231431 C 7.3608102,2.96077 6.7803233,2.7795775 6.0287182,2.7795653 L 3.8846057,2.7795653"
     id="text3519" />
  <path
     style="font-size:20.61569214px;font-style:normal;font-weight:normal;fill:#8ae234;fill-opacity:1;stroke:none;stroke-width:1px;stroke-linecap:butt;stroke-linejoin:miter;stroke-opacity:1;font-family:Bitstream Vera Sans"
     d="M 1.03125,1 L 1.03125,13.96875 L 2.84375,13.96875 L 2.84375,9.78125 C 2.841829,9.5071611 2.9498613,9.243741 3.1436762,9.0499262 C 3.337491,8.8561113 3.6009111,8.748079 3.875,8.75 L 6.4375,8.75 C 8.2057208,8.7500048 9.4169748,8.3887214 10.1875,7.75 C 10.969454,7.1009234 11.343737,6.2336804 11.34375,4.875 C 11.343737,3.5239871 10.97154,2.6769486 10.1875,2.03125 C 9.4100742,1.3817091 8.1969673,1.0000138 6.4375,1 L 1.03125,1 z M 3.8125,1.75 C 3.8333285,1.7493641 3.8541715,1.7493641 3.875,1.75 L 6.03125,1.75 C 6.936222,1.7500147 7.8125715,1.9504036 8.46875,2.53125 C 9.1341629,3.1203371 9.4062369,4.0163619 9.40625,4.875 C 9.4062368,5.733653 9.1213563,6.599084 8.46875,7.1875 C 8.4689089,7.1979161 8.4689089,7.2083339 8.46875,7.21875 C 7.8125693,7.7996313 6.9362367,8.0000099 6.03125,8 L 3.875,8 C 3.6009111,8.001921 3.337491,7.8938887 3.1436762,7.7000738 C 2.9498613,7.506259 2.841829,7.2428389 2.84375,6.96875 L 2.84375,2.78125 C 2.8391277,2.2338251 3.2658546,1.7795674 3.8125,1.75 L 3.8125,1.75 z"
     id="path3526" />
</svg>
