<?xml version="1.0" encoding="UTF-8" standalone="no"?>
<!-- Created with Inkscape (http://www.inkscape.org/) -->
<svg
   xmlns:dc="http://purl.org/dc/elements/1.1/"
   xmlns:cc="http://creativecommons.org/ns#"
   xmlns:rdf="http://www.w3.org/1999/02/22-rdf-syntax-ns#"
   xmlns:svg="http://www.w3.org/2000/svg"
   xmlns="http://www.w3.org/2000/svg"
   xmlns:sodipodi="http://sodipodi.sourceforge.net/DTD/sodipodi-0.dtd"
   xmlns:inkscape="http://www.inkscape.org/namespaces/inkscape"
   version="1.0"
   width="16"
   height="16"
   id="svg2"
   sodipodi:version="0.32"
   inkscape:version="0.46"
   sodipodi:docname="neil_info.svg"
   inkscape:output_extension="org.inkscape.output.svg.inkscape">
  <metadata
     id="metadata2870">
    <rdf:RDF>
      <cc:Work
         rdf:about="">
        <dc:format>image/svg+xml</dc:format>
        <dc:type
           rdf:resource="http://purl.org/dc/dcmitype/StillImage" />
      </cc:Work>
    </rdf:RDF>
  </metadata>
  <sodipodi:namedview
     inkscape:window-height="787"
     inkscape:window-width="1440"
     inkscape:pageshadow="2"
     inkscape:pageopacity="0.0"
     guidetolerance="10.0"
     gridtolerance="10.0"
     objecttolerance="10.0"
     borderopacity="1.0"
     bordercolor="#666666"
     pagecolor="#ffffff"
     id="base"
     showgrid="true"
     inkscape:zoom="37.6875"
     inkscape:cx="4.1260365"
     inkscape:cy="8"
     inkscape:window-x="0"
     inkscape:window-y="44"
     inkscape:current-layer="svg2">
    <inkscape:grid
       type="xygrid"
       id="grid2894" />
  </sodipodi:namedview>
  <defs
     id="defs4">
    <inkscape:perspective
       sodipodi:type="inkscape:persp3d"
       inkscape:vp_x="0 : 8 : 1"
       inkscape:vp_y="0 : 1000 : 0"
       inkscape:vp_z="16 : 8 : 1"
       inkscape:persp3d-origin="8 : 5.3333333 : 1"
       id="perspective2872" />
  </defs>
  <path
     style="font-size:7.88065719999999992px;font-style:normal;font-weight:normal;fill:#5c3566;fill-opacity:1;stroke:none;stroke-width:1px;stroke-linecap:butt;stroke-linejoin:miter;stroke-opacity:1;font-family:Bitstream Vera Sans"
     d="M 7.875,-0.03125 C 6.0415359,-0.031235483 4.6011427,0.40350703 3.625,1.34375 C 2.6920502,2.2421577 2,3.588473 2,5.5 L 2,6 L 2.5,6 L 6.5,6 L 6.875,6 C 6.320778,6.6596433 5.7486858,7.3154268 5.375,8.125 L 5.375,8.15625 L 5.34375,8.1875 C 5.1477621,8.8781245 4.8602547,9.6159299 5,10.53125 C 5.0018245,10.543201 4.9980274,10.550488 5,10.5625 L 5,14.5 L 5,15 L 5.5,15 L 9.5,15 L 10,15 L 10,14.5 L 10,10.53125 C 10.025709,9.9721301 10.063509,9.5120683 10.1875,9.15625 C 10.311491,8.8004317 10.52566,8.5021132 10.96875,8.15625 L 11,8.125 C 11.996,7.1650931 12.875338,6.0841997 13,4.53125 L 13,4.5 C 12.999994,3.834203 12.967641,3.1835523 12.75,2.5625 C 12.532359,1.9414477 12.121433,1.3473602 11.46875,0.90625 C 10.524369,0.26493841 9.3113331,-0.031235407 7.875,-0.03125 z"
     id="path5072" />
  <path
     sodipodi:type="inkscape:offset"
     inkscape:radius="0"
     inkscape:original="M 7.875 0.96875 C 6.1974839 0.96876328 5.0416803 1.3601368 4.3125 2.0625 C 3.6448513 2.7054293 3.2056223 3.6577084 3.09375 5 L 6.0625 5 C 6.0737511 4.8732902 6.0557501 4.7625584 6.09375 4.625 C 6.1826406 4.3032187 6.3795192 3.972124 6.71875 3.71875 C 7.17118 3.3808268 7.719809 3.327474 8.15625 3.46875 C 8.592691 3.610026 9.0000003 3.9687426 9 4.5 C 8.9999883 5.0673886 8.6192071 5.5279613 8.09375 5.96875 C 8.0774709 5.9859708 8.0786822 6.0139758 8.0625 6.03125 C 7.3595212 6.7816667 6.7396171 7.5664849 6.3125 8.46875 C 6.3091297 8.4806264 6.3158657 8.4882258 6.3125 8.5 C 6.1466014 9.0803537 6.0721059 9.523962 6.0625 10 L 9.0625 10 C 9.0921105 9.6058294 9.1192265 9.2190321 9.25 8.84375 C 9.4291772 8.3295634 9.7729223 7.837824 10.3125 7.40625 C 10.324217 7.3949579 10.33212 7.3862679 10.34375 7.375 C 11.259499 6.4877644 11.894369 5.6876456 12 4.5 C 12.000952 4.4892932 11.999136 4.4795177 12 4.46875 C 11.998227 3.8638969 11.966488 3.3144127 11.8125 2.875 C 11.655534 2.4270867 11.394622 2.0800621 10.90625 1.75 C 10.170363 1.2502733 9.1721942 0.96876318 7.875 0.96875 z "
     style="font-size:7.88065719999999992px;font-style:normal;font-weight:normal;fill:#c09cbb;fill-opacity:1;stroke:none;stroke-width:1px;stroke-linecap:butt;stroke-linejoin:miter;stroke-opacity:1;font-family:Bitstream Vera Sans;opacity:1;color:#000000;fill-rule:nonzero;marker:none;marker-start:none;marker-mid:none;marker-end:none;stroke-miterlimit:4;stroke-dasharray:none;stroke-dashoffset:0;visibility:visible;display:inline;overflow:visible;enable-background:accumulate"
     id="path5074"
     d="M 7.875,0.96875 C 6.1974839,0.96876328 5.0416803,1.3601368 4.3125,2.0625 C 3.6448513,2.7054293 3.2056223,3.6577084 3.09375,5 L 6.0625,5 C 6.0737511,4.8732902 6.0557501,4.7625584 6.09375,4.625 C 6.1826406,4.3032187 6.3795192,3.972124 6.71875,3.71875 C 7.17118,3.3808268 7.719809,3.327474 8.15625,3.46875 C 8.592691,3.610026 9.0000003,3.9687426 9,4.5 C 8.9999883,5.0673886 8.6192071,5.5279613 8.09375,5.96875 C 8.0774709,5.9859708 8.0786822,6.0139758 8.0625,6.03125 C 7.3595212,6.7816667 6.7396171,7.5664849 6.3125,8.46875 C 6.3091297,8.4806264 6.3158657,8.4882258 6.3125,8.5 C 6.1466014,9.0803537 6.0721059,9.523962 6.0625,10 L 9.0625,10 C 9.0921105,9.6058294 9.1192265,9.2190321 9.25,8.84375 C 9.4291772,8.3295634 9.7729223,7.837824 10.3125,7.40625 C 10.324217,7.3949579 10.33212,7.3862679 10.34375,7.375 C 11.259499,6.4877644 11.894369,5.6876456 12,4.5 C 12.000952,4.4892932 11.999136,4.4795177 12,4.46875 C 11.998227,3.8638969 11.966488,3.3144127 11.8125,2.875 C 11.655534,2.4270867 11.394622,2.0800621 10.90625,1.75 C 10.170363,1.2502733 9.1721942,0.96876318 7.875,0.96875 z" />
  <path
     style="font-size:7.88065719999999992px;font-style:normal;font-weight:normal;fill:#5c3566;fill-opacity:1;stroke:none;stroke-width:1px;stroke-linecap:butt;stroke-linejoin:miter;stroke-opacity:1;font-family:Bitstream Vera Sans"
     d="M 7.84375,4.40625 C 7.9884212,4.4530801 8,4.5322002 8,4.5 C 7.999998,4.5993969 7.8926018,4.8791796 7.4375,5.25 L 7.40625,5.28125 L 7.375,5.28125 C 7.2279955,5.4367581 7.141054,5.6501632 7,5.8125 L 7,5.5 C 7.0015892,5.2381117 7.0223932,5.0201853 7.0625,4.875 C 7.1026068,4.7298147 7.132587,4.6343783 7.3125,4.5 C 7.4973339,4.3619462 7.6990788,4.3594199 7.84375,4.40625 z"
     id="path5068" />
  <path
     style="font-size:7.88065719999999992px;font-style:normal;font-weight:normal;fill:#c09cbb;fill-opacity:1;stroke:none;stroke-width:1px;stroke-linecap:butt;stroke-linejoin:miter;stroke-opacity:1;font-family:Bitstream Vera Sans;opacity:1;color:#000000;fill-rule:nonzero;marker:none;marker-start:none;marker-mid:none;marker-end:none;stroke-miterlimit:4;stroke-dasharray:none;stroke-dashoffset:0;visibility:visible;display:inline;overflow:visible;enable-background:accumulate"
     d="M 6,11.03125 L 9,11.03125 L 9,14 L 6,14 L 6,11.03125 z"
     id="text4528" />
  <path
     sodipodi:type="inkscape:offset"
     inkscape:radius="-0.95572323"
     inkscape:original="M 7.875 0.96875 C 6.1974839 0.96876328 5.0416803 1.3601368 4.3125 2.0625 C 3.6448513 2.7054293 3.2056223 3.6577084 3.09375 5 L 6.0625 5 C 6.0737511 4.8732902 6.0557501 4.7625584 6.09375 4.625 C 6.1826406 4.3032187 6.3795192 3.972124 6.71875 3.71875 C 7.17118 3.3808268 7.719809 3.327474 8.15625 3.46875 C 8.592691 3.610026 9.0000003 3.9687426 9 4.5 C 8.9999883 5.0673886 8.6192071 5.5279613 8.09375 5.96875 C 8.0774709 5.9859708 8.0786822 6.0139758 8.0625 6.03125 C 7.3595212 6.7816667 6.7396171 7.5664849 6.3125 8.46875 C 6.3091297 8.4806264 6.3158657 8.4882258 6.3125 8.5 C 6.1466014 9.0803537 6.0721059 9.523962 6.0625 10 L 9.0625 10 C 9.0921105 9.6058294 9.1192265 9.2190321 9.25 8.84375 C 9.4291772 8.3295634 9.7729223 7.837824 10.3125 7.40625 C 10.324217 7.3949579 10.33212 7.3862679 10.34375 7.375 C 11.259499 6.4877644 11.894369 5.6876456 12 4.5 C 12.000952 4.4892932 11.999136 4.4795177 12 4.46875 C 11.998227 3.8638969 11.966488 3.3144127 11.8125 2.875 C 11.655534 2.4270867 11.394622 2.0800621 10.90625 1.75 C 10.170363 1.2502733 9.1721942 0.96876318 7.875 0.96875 z "
     style="font-size:7.8806572px;font-style:normal;font-weight:normal;opacity:1;fill:#ad7fa8;fill-opacity:1;fill-rule:nonzero;stroke:none;stroke-width:1px;stroke-linecap:butt;stroke-linejoin:miter;marker:none;marker-start:none;marker-mid:none;marker-end:none;stroke-miterlimit:4;stroke-dasharray:none;stroke-dashoffset:0;stroke-opacity:1;visibility:visible;display:inline;overflow:visible;enable-background:accumulate;font-family:Bitstream Vera Sans"
     id="path5080"
     d="M 7.875,1.9375 C 6.3461307,1.9375121 5.4622602,2.2746396 4.96875,2.75 C 4.6667058,3.0408612 4.4505984,3.4932178 4.28125,4.03125 L 5.40625,4.03125 C 5.5781334,3.643423 5.7607243,3.2329211 6.15625,2.9375 C 6.8668211,2.4067694 7.7107186,2.3272408 8.4375,2.5625 C 9.1591602,2.7961015 9.9687506,3.4802473 9.96875,4.5 C 9.9687309,5.4239969 9.4056256,6.0668568 8.84375,6.5625 C 8.8253048,6.5942199 8.8092212,6.5882818 8.78125,6.625 C 8.7588731,6.6543746 8.7795995,6.6559031 8.75,6.6875 C 8.0934896,7.3883126 7.5845022,8.0855791 7.21875,8.84375 C 7.2127211,8.8562473 7.193432,8.8624689 7.1875,8.875 C 7.1716704,8.9339758 7.2007916,8.9766166 7.1875,9.03125 L 8.28125,9.03125 C 8.313721,8.8582294 8.2784853,8.7185407 8.34375,8.53125 C 8.5765211,7.8632645 9.0338737,7.2363386 9.65625,6.71875 C 9.646173,6.7284616 9.6549037,6.7190814 9.6875,6.6875 C 9.7003844,6.6750168 9.7060617,6.6686042 9.71875,6.65625 C 10.536732,5.8598054 10.936957,5.3010022 11.03125,4.46875 C 11.02957,3.8956335 10.991552,3.4309125 10.90625,3.1875 C 10.807649,2.9061366 10.736719,2.775715 10.375,2.53125 C 9.8333988,2.163459 9.0339286,1.9375118 7.875,1.9375 z" />
  <path
     sodipodi:type="inkscape:offset"
     inkscape:radius="-1.0082918"
     inkscape:original="M 6 11.03125 L 6 14 L 9 14 L 9 11.03125 L 6 11.03125 z "
     style="font-size:7.8806572px;font-style:normal;font-weight:normal;opacity:1;fill:#ad7fa8;fill-opacity:1;fill-rule:nonzero;stroke:none;stroke-width:1px;stroke-linecap:butt;stroke-linejoin:miter;marker:none;marker-start:none;marker-mid:none;marker-end:none;stroke-miterlimit:4;stroke-dasharray:none;stroke-dashoffset:0;stroke-opacity:1;visibility:visible;display:inline;overflow:visible;enable-background:accumulate;font-family:Bitstream Vera Sans"
     id="path5084"
     d="M 7,12.03125 L 7,13 L 8,13 L 8,12.03125 L 7,12.03125 z" />
</svg>
