<?xml version="1.0" encoding="UTF-8" standalone="no"?>
<!-- Created with Inkscape (http://www.inkscape.org/) -->

<svg
   xmlns:dc="http://purl.org/dc/elements/1.1/"
   xmlns:cc="http://creativecommons.org/ns#"
   xmlns:rdf="http://www.w3.org/1999/02/22-rdf-syntax-ns#"
   xmlns:svg="http://www.w3.org/2000/svg"
   xmlns="http://www.w3.org/2000/svg"
   version="1.1"
   width="12.8pt"
   height="12.8pt"
   id="svg3000">
  <metadata
     id="metadata3012">
    <rdf:RDF>
      <cc:Work
         rdf:about="">
        <dc:format>image/svg+xml</dc:format>
        <dc:type
           rdf:resource="http://purl.org/dc/dcmitype/StillImage" />
        <cc:license
           rdf:resource="http://www.gnu.org/licenses/gpl-2.0.html" />
        <dc:title></dc:title>
        <dc:creator>
          <cc:Agent>
            <dc:title>Timothee Giet</dc:title>
          </cc:Agent>
        </dc:creator>
      </cc:Work>
    </rdf:RDF>
  </metadata>
  <defs
     id="defs3002" />
  <g
     transform="translate(-0.01281196,0)"
     id="layer1">
    <path
       d="M 15.9344,7.96936 C 15.9356,12.3704 12.3682,15.9387 7.96721,15.9387 3.5662,15.9387 -0.00118715,12.3704 2.96355e-7,7.96936 -0.00118715,3.56835 3.5662,0 7.96721,0 12.3682,0 15.9356,3.56835 15.9344,7.96936 z"
       transform="matrix(1.00412,0,0,1.00412,-2.56361e-7,-0.00215818)"
       id="path2180"
       style="fill:#800000;fill-rule:evenodd" />
    <path
       d="M 15.9344,7.96936 C 15.9356,12.3704 12.3682,15.9387 7.96721,15.9387 3.5662,15.9387 -0.00118715,12.3704 2.96355e-7,7.96936 -0.00118715,3.56835 3.5662,0 7.96721,0 12.3682,0 15.9356,3.56835 15.9344,7.96936 z"
       transform="matrix(0.878601,0,0,0.878601,1,0.998112)"
       id="path2182"
       style="fill:#ffffe0;fill-rule:evenodd" />
  </g>
  <path
     d="M 14,8.0009514 C 14.000942,11.314948 11.314337,14.001888 8.0000068,14.001888 4.6856607,14.001888 1.9991057,11.314948 2,8.0009514 1.9991057,4.686978 4.6856607,2 8.0000068,2 11.314337,2 14.000904,4.686978 14,8.0009514 z"
     id="path2182-8"
     style="fill:#ff0000;fill-rule:evenodd" />
  <path
     d="M 6,10 6,7 6,5 8,7 8,8 9,7 c 0,2 0,3 4,3"
     id="path2989"
     style="fill:none;stroke:#000000;stroke-width:1px;stroke-linecap:butt;stroke-linejoin:miter;stroke-opacity:1" />
</svg>
