<?xml version="1.0" encoding="UTF-8" standalone="no"?>
<!-- Created using Karbon, part of Calligra: http://www.calligra.org/karbon -->

<svg
   xmlns:dc="http://purl.org/dc/elements/1.1/"
   xmlns:cc="http://creativecommons.org/ns#"
   xmlns:rdf="http://www.w3.org/1999/02/22-rdf-syntax-ns#"
   xmlns:svg="http://www.w3.org/2000/svg"
   xmlns="http://www.w3.org/2000/svg"
   xmlns:sodipodi="http://sodipodi.sourceforge.net/DTD/sodipodi-0.dtd"
   xmlns:inkscape="http://www.inkscape.org/namespaces/inkscape"
   width="12.8pt"
   height="12.8pt"
   id="svg2"
   version="1.1"
   inkscape:version="0.48.2 r9819"
   sodipodi:docname="Geonik_PluckedString.svg">
  <metadata
     id="metadata23">
    <rdf:RDF>
      <cc:Work
         rdf:about="">
        <dc:format>image/svg+xml</dc:format>
        <dc:type
           rdf:resource="http://purl.org/dc/dcmitype/StillImage" />
        <cc:license
           rdf:resource="http://www.gnu.org/licenses/gpl-2.0.html" />
        <dc:title></dc:title>
        <dc:creator>
          <cc:Agent>
            <dc:title>Timothee Giet</dc:title>
          </cc:Agent>
        </dc:creator>
      </cc:Work>
    </rdf:RDF>
  </metadata>
  <sodipodi:namedview
     pagecolor="#ffffff"
     bordercolor="#666666"
     borderopacity="1"
     objecttolerance="10"
     gridtolerance="10"
     guidetolerance="10"
     inkscape:pageopacity="0"
     inkscape:pageshadow="2"
     inkscape:window-width="1034"
     inkscape:window-height="480"
     id="namedview21"
     showgrid="false"
     inkscape:zoom="14.75"
     inkscape:cx="-0.54237288"
     inkscape:cy="8"
     inkscape:window-x="0"
     inkscape:window-y="27"
     inkscape:window-maximized="0"
     inkscape:current-layer="svg2" />
  <defs
     id="defs4" />
  <g
     id="layer1">
    <path
       id="path2180"
       transform="matrix(1.00412 0 0 1.00412 -2.56361e-07 -0.00215818)"
       fill="#191970"
       fill-rule="evenodd"
       d="M15.9344 7.96936C15.9356 12.3704 12.3682 15.9387 7.96721 15.9387C3.5662 15.9387 -0.00118715 12.3704 2.96355e-07 7.96936C-0.00118715 3.56835 3.5662 7.77156e-16 7.96721 0C12.3682 -7.77156e-16 15.9356 3.56835 15.9344 7.96936Z" />
    <path
       id="path2182"
       transform="matrix(0.878601 0 0 0.878601 1 0.998112)"
       fill="#ffffe0"
       fill-rule="evenodd"
       d="M15.9344 7.96936C15.9356 12.3704 12.3682 15.9387 7.96721 15.9387C3.5662 15.9387 -0.00118715 12.3704 2.96355e-07 7.96936C-0.00118715 3.56835 3.5662 7.77156e-16 7.96721 0C12.3682 -7.77156e-16 15.9356 3.56835 15.9344 7.96936Z" />
    <path
       id="path2184"
       transform="matrix(0.753086 0 0 0.753086 2.00001 1.99839)"
       fill="#191970"
       fill-rule="evenodd"
       d="M15.9344 7.96936C15.9356 12.3704 12.3682 15.9387 7.96721 15.9387C3.5662 15.9387 -0.00118715 12.3704 2.96355e-07 7.96936C-0.00118715 3.56835 3.5662 7.77156e-16 7.96721 0C12.3682 -7.77156e-16 15.9356 3.56835 15.9344 7.96936Z" />
    <path
       id="shape0"
       transform="translate(1.69432, 6.64471)"
       fill="none"
       stroke="#ffffe0"
       stroke-width="0.70866264500"
       stroke-linecap="butt"
       stroke-linejoin="bevel"
       d="M0 0L7.44757 7.69882" />
    <path
       id="shape1"
       transform="translate(2.25289, 5.21412)"
       fill="none"
       stroke="#ffffe0"
       stroke-width="0.70866264500"
       stroke-linecap="butt"
       stroke-linejoin="bevel"
       d="M0 0L8.30404 8.65882" />
    <path
       id="shape2"
       transform="translate(2.94179, 3.97176)"
       fill="none"
       stroke="#ffffe0"
       stroke-width="0.70866264500"
       stroke-linecap="butt"
       stroke-linejoin="bevel"
       d="M0 0L8.86261 9.24235" />
    <path
       id="shape3"
       transform="matrix(-0.0470848 0.998891 0.998891 0.0470848 6.5948 1.86546)"
       fill="none"
       stroke="#ffffe0"
       stroke-width="0.70866264500"
       stroke-linecap="butt"
       stroke-linejoin="bevel"
       d="M0 0L7.46987 8.19568" />
    <path
       id="shape4"
       transform="matrix(-0.0470848 0.998891 0.998891 0.0470848 5.13882 2.31529)"
       fill="none"
       stroke="#ffffe0"
       stroke-width="0.70866264500"
       stroke-linecap="butt"
       stroke-linejoin="bevel"
       d="M0 0L8.20922 8.94253" />
    <path
       id="shape5"
       transform="matrix(-0.0470848 0.998891 0.998891 0.0470848 3.86609 2.98569)"
       fill="none"
       stroke="#ffffe0"
       stroke-width="0.70866264500"
       stroke-linecap="butt"
       stroke-linejoin="bevel"
       d="M0 0L8.97667 9.76241" />
    <path
       id="shape6"
       transform="translate(1.04266, 4.96941)"
       fill="none"
       stroke="#191970"
       stroke-width="0.70866264500"
       stroke-linecap="butt"
       stroke-linejoin="bevel"
       d="M0 0L9.62598 9.97647" />
    <path
       id="shape7"
       transform="translate(5.17606, 1.37412)"
       fill="none"
       stroke="#191970"
       stroke-width="0.70866264500"
       stroke-linecap="butt"
       stroke-linejoin="bevel"
       d="M0 0L9.53289 9.82588" />
    <path
       id="shape8"
       transform="translate(2.71836, 2.74824)"
       fill="none"
       stroke="#191970"
       stroke-width="0.70866264500"
       stroke-linecap="butt"
       stroke-linejoin="bevel"
       d="M0 0L10.3521 10.7671" />
    <path
       id="shape9"
       transform="translate(1.52675, 3.50118)"
       fill="none"
       stroke="#191970"
       stroke-width="0.70866264500"
       stroke-linecap="butt"
       stroke-linejoin="bevel"
       d="M0 0L10.6128 11.0494" />
    <path
       id="shape10"
       transform="translate(3.81688, 1.92)"
       fill="none"
       stroke="#191970"
       stroke-width="0.70866264500"
       stroke-linecap="butt"
       stroke-linejoin="bevel"
       d="M0 0L10.4266 10.7482" />
  </g>
</svg>
