<?xml version="1.0" encoding="UTF-8" standalone="no"?>
<!-- Created with Inkscape (http://www.inkscape.org/) -->

<svg
   xmlns:dc="http://purl.org/dc/elements/1.1/"
   xmlns:cc="http://creativecommons.org/ns#"
   xmlns:rdf="http://www.w3.org/1999/02/22-rdf-syntax-ns#"
   xmlns:svg="http://www.w3.org/2000/svg"
   xmlns="http://www.w3.org/2000/svg"
   version="1.1"
   width="12.8pt"
   height="12.8pt"
   id="svg2">
  <metadata
     id="metadata23">
    <rdf:RDF>
      <cc:Work
         rdf:about="">
        <dc:format>image/svg+xml</dc:format>
        <dc:type
           rdf:resource="http://purl.org/dc/dcmitype/StillImage" />
        <cc:license
           rdf:resource="http://www.gnu.org/licenses/gpl-2.0.html" />
        <dc:title></dc:title>
        <dc:creator>
          <cc:Agent>
            <dc:title>Timothee Giet</dc:title>
          </cc:Agent>
        </dc:creator>
      </cc:Work>
    </rdf:RDF>
  </metadata>
  <defs
     id="defs4">
    <linearGradient
       id="linearGradient3798">
      <stop
         id="stop3800"
         style="stop-color:#06ff6a;stop-opacity:0.50370371"
         offset="0" />
      <stop
         id="stop3802"
         style="stop-color:#ffffff;stop-opacity:1"
         offset="1" />
    </linearGradient>
    <linearGradient
       id="linearGradient3790">
      <stop
         id="stop3792"
         style="stop-color:#d5ffe6;stop-opacity:1"
         offset="0" />
      <stop
         id="stop3794"
         style="stop-color:#00c450;stop-opacity:1"
         offset="1" />
    </linearGradient>
  </defs>
  <g
     id="layer1"
     style="fill:#0b280b">
    <path
       d="M 15.9344,7.96936 C 15.9356,12.3704 12.3682,15.9387 7.96721,15.9387 3.5662,15.9387 -0.00118715,12.3704 2.96355e-7,7.96936 -0.00118715,3.56835 3.5662,0 7.96721,0 12.3682,0 15.9356,3.56835 15.9344,7.96936 z"
       transform="matrix(1.00412,0,0,1.00412,-2.56361e-7,-0.00215818)"
       id="path2180"
       style="fill:#00d455;fill-rule:evenodd;stroke:none" />
    <path
       d="M 15.9344,7.96936 C 15.9356,12.3704 12.3682,15.9387 7.96721,15.9387 3.5662,15.9387 -0.00118715,12.3704 2.96355e-7,7.96936 -0.00118715,3.56835 3.5662,0 7.96721,0 12.3682,0 15.9356,3.56835 15.9344,7.96936 z"
       transform="matrix(0.878601,0,0,0.878601,1,0.998112)"
       id="path2182"
       style="fill:#d5ffe6;fill-opacity:1;fill-rule:evenodd" />
  </g>
  <path
     d="m 14.444791,8.0380112 a 6.4745765,6.4745765 0 0 1 -12.949153,0 6.4745765,6.4745765 0 1 1 12.949153,0 z"
     id="path3785-2"
     style="fill:#002b11;fill-opacity:1;stroke:none" />
  <path
     d="M 8.0014764,4.1884842 C 6.9527661,5.5235879 5.2839091,7.8972766 5.3366077,9.567051 5.3867547,11.155975 6.7047616,12.555383 8.4798228,11.852363 10.672237,10.984048 9.5755045,9.4857219 8.8981368,7.8959938 8.5106343,6.9865563 8.1434707,5.7996977 8.0014764,4.1884842 z"
     id="path3806"
     style="fill:#00ff66;stroke:#00d455;stroke-width:1px;stroke-linecap:butt;stroke-linejoin:miter;stroke-opacity:1" />
  <path
     d="m 10.669289,9.6141729 a 0.87056834,1.0293798 0 1 1 -1.741137,0 0.87056834,1.0293798 0 1 1 1.741137,0 z"
     transform="matrix(0.87168141,0,0,0.79456906,0.33117689,2.7752454)"
     id="path3808"
     style="fill:#ffffff;fill-opacity:1;stroke:none" />
  <path
     d="m 10.910925,9.6141729 a 1.1122047,1.2504921 0 1 1 -2.2244093,0 1.1122047,1.2504921 0 1 1 2.2244093,0 z"
     transform="matrix(0.39292032,0,0,0.31404957,4.7212419,5.6834291)"
     id="path3808-8"
     style="fill:#ffffff;fill-opacity:1;stroke:none" />
</svg>
