<?xml version="1.0" encoding="UTF-8" standalone="no"?>
<!-- Created using Karbon, part of Calligra: http://www.calligra.org/karbon -->

<svg
   xmlns:dc="http://purl.org/dc/elements/1.1/"
   xmlns:cc="http://creativecommons.org/ns#"
   xmlns:rdf="http://www.w3.org/1999/02/22-rdf-syntax-ns#"
   xmlns:svg="http://www.w3.org/2000/svg"
   xmlns="http://www.w3.org/2000/svg"
   xmlns:sodipodi="http://sodipodi.sourceforge.net/DTD/sodipodi-0.dtd"
   xmlns:inkscape="http://www.inkscape.org/namespaces/inkscape"
   width="12.8pt"
   height="12.8pt"
   id="svg3000"
   version="1.1"
   inkscape:version="0.48.2 r9819"
   sodipodi:docname="lunar_control.svg">
  <metadata
     id="metadata3012">
    <rdf:RDF>
      <cc:Work
         rdf:about="">
        <dc:format>image/svg+xml</dc:format>
        <dc:type
           rdf:resource="http://purl.org/dc/dcmitype/StillImage" />
        <cc:license
           rdf:resource="http://www.gnu.org/licenses/gpl-2.0.html" />
        <dc:title />
        <dc:creator>
          <cc:Agent>
            <dc:title>Timothee Giet</dc:title>
          </cc:Agent>
        </dc:creator>
      </cc:Work>
    </rdf:RDF>
  </metadata>
  <sodipodi:namedview
     pagecolor="#ffffff"
     bordercolor="#666666"
     borderopacity="1"
     objecttolerance="10"
     gridtolerance="10"
     guidetolerance="10"
     inkscape:pageopacity="0"
     inkscape:pageshadow="2"
     inkscape:window-width="1920"
     inkscape:window-height="1033"
     id="namedview3010"
     showgrid="false"
     inkscape:zoom="53.422917"
     inkscape:cx="8.0000248"
     inkscape:cy="7.9999745"
     inkscape:window-x="-2"
     inkscape:window-y="24"
     inkscape:window-maximized="1"
     inkscape:current-layer="svg3000" />
  <defs
     id="defs3002" />
  <g
     id="layer1">
    <path
       id="path2180"
       transform="matrix(1.00412 0 0 1.00412 -2.56361e-07 -0.00215818)"
       fill="#8b0000"
       fill-rule="evenodd"
       d="M15.9344 7.96936C15.9356 12.3704 12.3682 15.9387 7.96721 15.9387C3.5662 15.9387 -0.00118715 12.3704 2.96355e-07 7.96936C-0.00118715 3.56835 3.5662 7.77156e-16 7.96721 0C12.3682 -7.77156e-16 15.9356 3.56835 15.9344 7.96936Z" />
    <path
       id="path2182"
       transform="matrix(0.878601 0 0 0.878601 1 0.998112)"
       fill="#ffffe0"
       fill-rule="evenodd"
       d="M15.9344 7.96936C15.9356 12.3704 12.3682 15.9387 7.96721 15.9387C3.5662 15.9387 -0.00118715 12.3704 2.96355e-07 7.96936C-0.00118715 3.56835 3.5662 7.77156e-16 7.96721 0C12.3682 -7.77156e-16 15.9356 3.56835 15.9344 7.96936Z" />
    <path
       id="path2184"
       transform="matrix(0.753086 0 0 0.753086 1 1.99838)"
       fill="#8b0000"
       fill-rule="evenodd"
       d="M15.9344 7.96936C15.9356 12.3704 12.3682 15.9387 7.96721 15.9387C3.5662 15.9387 -0.00118715 12.3704 2.96355e-07 7.96936C-0.00118715 3.56835 3.5662 7.77156e-16 7.96721 0C12.3682 -7.77156e-16 15.9356 3.56835 15.9344 7.96936Z" />
    <path
       id="shape0"
       transform="matrix(1 0 0 -1 2.78318 8.00004)"
       fill="#e6e6fa"
       fill-rule="evenodd"
       stroke="#ffffe0"
       stroke-width="1.06299396750"
       stroke-linecap="round"
       stroke-linejoin="round"
       d="M0 0L8.13522 2.77556e-16" />
    <path
       id="shape01"
       transform="translate(5.63478, 6.43765)"
       fill="none"
       stroke="#ffffe0"
       stroke-width="1.77165661250"
       stroke-linecap="round"
       stroke-linejoin="bevel"
       d="M0 0L0 3.04941" />
  </g>
  <path
     style="fill:#8b0000;fill-opacity:1;stroke:#8b0000;stroke-width:0.5;stroke-linecap:butt;stroke-linejoin:miter;stroke-miterlimit:4;stroke-opacity:1;stroke-dasharray:none"
     d="m 6.4859805,4.4005424 0,7.1841016 0,-7.1841016 z"
     id="path2989-5"
     inkscape:connector-curvature="0" />
  <path
     style="fill:#8b0000;fill-opacity:1;stroke:#8b0000;stroke-width:0.5;stroke-linecap:butt;stroke-linejoin:miter;stroke-miterlimit:4;stroke-opacity:1;stroke-dasharray:none"
     d="m 4.6983581,4.6771849 0,7.1841021 0,-7.1841021 z"
     id="path2989-5-3"
     inkscape:connector-curvature="0" />
</svg>
