<?xml version="1.0" encoding="UTF-8" standalone="no"?>
<!-- Created using Karbon, part of Calligra: http://www.calligra.org/karbon -->

<svg
   xmlns:dc="http://purl.org/dc/elements/1.1/"
   xmlns:cc="http://creativecommons.org/ns#"
   xmlns:rdf="http://www.w3.org/1999/02/22-rdf-syntax-ns#"
   xmlns:svg="http://www.w3.org/2000/svg"
   xmlns="http://www.w3.org/2000/svg"
   xmlns:sodipodi="http://sodipodi.sourceforge.net/DTD/sodipodi-0.dtd"
   xmlns:inkscape="http://www.inkscape.org/namespaces/inkscape"
   width="12.8pt"
   height="12.8pt"
   id="svg3014"
   version="1.1"
   inkscape:version="0.48.2 r9819"
   sodipodi:docname="lunar_ePiano.svg">
  <metadata
     id="metadata3032">
    <rdf:RDF>
      <cc:Work
         rdf:about="">
        <dc:format>image/svg+xml</dc:format>
        <dc:type
           rdf:resource="http://purl.org/dc/dcmitype/StillImage" />
        <cc:license
           rdf:resource="http://www.gnu.org/licenses/gpl-2.0.html" />
        <dc:title></dc:title>
        <dc:creator>
          <cc:Agent>
            <dc:title>Timothee Giet</dc:title>
          </cc:Agent>
        </dc:creator>
      </cc:Work>
    </rdf:RDF>
  </metadata>
  <sodipodi:namedview
     pagecolor="#ffffff"
     bordercolor="#666666"
     borderopacity="1"
     objecttolerance="10"
     gridtolerance="10"
     guidetolerance="10"
     inkscape:pageopacity="0"
     inkscape:pageshadow="2"
     inkscape:window-width="1920"
     inkscape:window-height="1033"
     id="namedview3030"
     showgrid="false"
     inkscape:zoom="14.75"
     inkscape:cx="-13.898305"
     inkscape:cy="8"
     inkscape:window-x="-2"
     inkscape:window-y="24"
     inkscape:window-maximized="1"
     inkscape:current-layer="svg3014" />
  <defs
     id="defs3016" />
  <g
     id="layer1">
    <path
       id="path2180"
       transform="matrix(1.00412 0 0 1.00412 -0.0186192 -0.0209817)"
       fill="#191970"
       fill-rule="evenodd"
       d="M15.9344 7.96936C15.9356 12.3704 12.3682 15.9387 7.96721 15.9387C3.5662 15.9387 -0.00118715 12.3704 2.96355e-07 7.96936C-0.00118715 3.56835 3.5662 7.77156e-16 7.96721 0C12.3682 -7.77156e-16 15.9356 3.56835 15.9344 7.96936Z" />
    <path
       id="path2182"
       transform="matrix(0.878601 0 0 0.878601 1 0.998112)"
       fill="#ffffe0"
       fill-rule="evenodd"
       d="M15.9344 7.96936C15.9356 12.3704 12.3682 15.9387 7.96721 15.9387C3.5662 15.9387 -0.00118715 12.3704 2.96355e-07 7.96936C-0.00118715 3.56835 3.5662 7.77156e-16 7.96721 0C12.3682 -7.77156e-16 15.9356 3.56835 15.9344 7.96936Z" />
    <path
       id="path2184"
       transform="matrix(0.753086 0 0 0.753086 1 1.99838)"
       fill="#4169e1"
       fill-rule="evenodd"
       d="M15.9344 7.96936C15.9356 12.3704 12.3682 15.9387 7.96721 15.9387C3.5662 15.9387 -0.00118715 12.3704 2.96355e-07 7.96936C-0.00118715 3.56835 3.5662 7.77156e-16 7.96721 0C12.3682 -7.77156e-16 15.9356 3.56835 15.9344 7.96936Z" />
    <path
       id="shape0"
       transform="translate(2.47632, 5.42118)"
       fill="#fff8dc"
       fill-rule="evenodd"
       d="M0 0L0 5.47765L2.08532 5.47765L2.08532 2.95529L1.4709 2.95529L1.4709 0Z" />
    <path
       id="shape1"
       transform="translate(4.1334, 4.68706)"
       fill="#000000"
       fill-rule="evenodd"
       d="M0 0L0 3.50002L1.17299 3.49998L1.17299 3.49998L1.17299 3.49998L1.17299 3.49998L1.17299 0Z" />
    <path
       id="shape2"
       transform="translate(4.95263, 5.42118)"
       fill="#fff8dc"
       fill-rule="evenodd"
       d="M0.539949 0L1.48951 0L1.48951 2.95529L2.04736 2.95529L2.04736 2.95529L2.04736 5.47765L0 5.47765L0 2.95529L0.539949 2.95529L0.539949 0" />
    <path
       id="shape3"
       transform="translate(6.64696, 4.68706)"
       fill="#000000"
       fill-rule="evenodd"
       d="M0 0L0 3.50002L1.17299 3.49998L1.17299 3.49998L1.17299 3.49998L1.17299 3.49998L1.17299 0Z" />
    <path
       id="shape4"
       transform="matrix(-1 0 0 1 9.53289 5.42118)"
       fill="#fff8dc"
       fill-rule="evenodd"
       d="M0 0L0 5.47765L2.12256 5.47765L2.12256 2.9553L1.49716 2.9553L1.49716 0Z" />
    <path
       id="shape5"
       transform="translate(9.92389, 5.42118)"
       fill="#fff8dc"
       fill-rule="evenodd"
       d="M0 0L0 5.47765L2.08532 5.47765L2.08532 2.9553L1.4709 2.9553L1.4709 0Z" />
    <path
       id="shape6"
       transform="translate(11.5996, 4.68706)"
       fill="#000000"
       fill-rule="evenodd"
       d="M0 0L0 3.49957L1.17299 3.49953L1.17299 3.49953L1.17299 3.49953L1.17299 3.49953L1.17299 0Z" />
    <path
       id="path21841"
       transform="translate(12.363, 8.41409)"
       fill="#fff8dc"
       fill-rule="evenodd"
       d="M0.637007 0C0.594595 0.987377 0.28116 1.6609 0 2.37179L0 0L0.637007 0" />
  </g>
</svg>
