<?xml version="1.0" encoding="UTF-8" standalone="no"?>
<!-- Created with Inkscape (http://www.inkscape.org/) -->
<svg
   xmlns:svg="http://www.w3.org/2000/svg"
   xmlns="http://www.w3.org/2000/svg"
   version="1.0"
   width="16"
   height="16"
   id="svg2">
  <defs
     id="defs4" />
  <path
     d="M 15.999999,8.0000002 C 16.001191,12.419121 12.419121,16.002158 7.9999996,16.002158 C 3.5808787,16.002158 -0.0011922853,12.419121 4.1214336e-08,8.0000002 C -0.0011922853,3.5808795 3.5808787,-0.0021581844 7.9999996,-0.0021581844 C 12.419121,-0.0021581844 16.001191,3.5808795 15.999999,8.0000002 L 15.999999,8.0000002 z "
     style="color:#000000;fill:#2e3436;fill-opacity:1;fill-rule:evenodd;stroke:none;stroke-width:1px;stroke-linecap:butt;stroke-linejoin:miter;marker:none;marker-start:none;marker-mid:none;marker-end:none;stroke-miterlimit:4;stroke-dasharray:none;stroke-dashoffset:0;stroke-opacity:1;visibility:visible;display:inline;overflow:visible;enable-background:accumulate"
     id="path2180" />
  <path
     d="M 14.999999,8.0000001 C 15.001042,11.866731 11.86673,15.001888 7.9999996,15.001888 C 4.1332688,15.001888 0.99895668,11.866731 0.99999996,8.0000001 C 0.99895668,4.1332695 4.1332688,0.99811155 7.9999996,0.99811155 C 11.86673,0.99811155 15.001042,4.1332695 14.999999,8.0000001 L 14.999999,8.0000001 z "
     style="color:#000000;fill:#d3d7cf;fill-opacity:1;fill-rule:evenodd;stroke:none;stroke-width:1.14285719px;stroke-linecap:butt;stroke-linejoin:miter;marker:none;marker-start:none;marker-mid:none;marker-end:none;stroke-miterlimit:4;stroke-dasharray:none;stroke-dashoffset:0;stroke-opacity:1;visibility:visible;display:inline;overflow:visible;enable-background:accumulate"
     id="path2182" />
  <path
     d="M 13,7.9999999 C 13.000894,11.31434 10.314341,14.001618 7,14.001618 C 3.6856593,14.001618 0.99910604,11.31434 1.0000003,7.9999999 C 0.99910604,4.6856593 3.6856593,1.9983811 7,1.9983811 C 10.314341,1.9983811 13.000894,4.6856593 13,7.9999999 L 13,7.9999999 z "
     style="color:#000000;fill:#2e3436;fill-opacity:1;fill-rule:evenodd;stroke:none;stroke-width:1.33333337px;stroke-linecap:butt;stroke-linejoin:miter;marker:none;marker-start:none;marker-mid:none;marker-end:none;stroke-miterlimit:4;stroke-dasharray:none;stroke-dashoffset:0;stroke-opacity:1;visibility:visible;display:inline;overflow:visible;enable-background:accumulate"
     id="path2184" />
  <path
     d="M 7.0398495,2.9327239 C 5.9026321,2.9327239 4.9595221,3.8758339 4.9595221,5.0130513 C 4.9595221,6.1502687 5.9026324,7.0933783 7.0398495,7.0933787 C 8.1770669,7.0933787 9.0948073,6.1502688 9.0948071,5.0130513 C 9.0948071,3.8758339 8.177067,2.9327237 7.0398495,2.9327239 z M 7.0398495,4.074367 C 7.5586321,4.0743669 7.953164,4.4942687 7.953164,5.0130513 C 7.9531641,5.5318339 7.5586321,5.9517356 7.0398495,5.9517356 C 6.5210667,5.9517355 6.1011652,5.5318339 6.1011652,5.0130513 C 6.1011652,4.4942687 6.5210669,4.074367 7.0398495,4.074367 z "
     style="opacity:1;color:#000000;fill:#d3d7cf;fill-opacity:1;fill-rule:evenodd;stroke:none;stroke-width:1.40792143;stroke-linecap:butt;stroke-linejoin:miter;marker:none;stroke-miterlimit:4;stroke-dasharray:none;stroke-dashoffset:0;stroke-opacity:1;visibility:visible;display:inline;overflow:visible;enable-background:accumulate"
     id="path3496" />
  <path
     d="M 6.96875,5.90625 C 5.8314381,5.9298109 4.9136729,6.8626937 4.9375,8 L 4.9375,11.03125 C 4.9269486,11.777329 5.3243282,12.467631 5.96875,12.84375 C 6.6131724,13.219869 7.3868282,13.219868 8.03125,12.84375 C 8.6756722,12.467631 9.0730514,11.777329 9.0625,11.03125 L 9.0625,8 C 9.0743213,7.4358814 8.8677296,6.8989796 8.46875,6.5 C 8.0697704,6.1010205 7.5328686,5.8944287 6.96875,5.90625 z M 6.96875,7.03125 C 7.2219874,7.0259433 7.4771447,7.1333948 7.65625,7.3125 C 7.8353552,7.4916052 7.9428067,7.7467626 7.9375,8 L 7.9375,11.03125 C 7.9422494,11.367079 7.7588204,11.67445 7.46875,11.84375 C 7.1786792,12.01305 6.8213204,12.01305 6.53125,11.84375 C 6.241179,11.674449 6.0577506,11.367079 6.0625,11.03125 L 6.0625,8 C 6.0516137,7.4803759 6.4491233,7.0420147 6.96875,7.03125 z "
     style="opacity:1;color:#000000;fill:#d3d7cf;fill-opacity:1;fill-rule:evenodd;stroke:none;stroke-width:1.14300001;stroke-linecap:butt;stroke-linejoin:miter;marker:none;stroke-miterlimit:4;stroke-dasharray:none;stroke-dashoffset:0;stroke-opacity:1;visibility:visible;display:inline;overflow:visible;enable-background:accumulate"
     id="path3498" />
</svg>
