<?xml version="1.0" encoding="UTF-8" standalone="no"?>
<!-- Created with Inkscape (http://www.inkscape.org/) -->
<svg
   xmlns:svg="http://www.w3.org/2000/svg"
   xmlns="http://www.w3.org/2000/svg"
   version="1.0"
   width="16"
   height="16"
   id="svg2">
  <defs
     id="defs4" />
  <path
     d="M 15.999999,8.0000002 C 16.001191,12.419121 12.419121,16.002158 7.9999996,16.002158 C 3.5808787,16.002158 -0.0011922853,12.419121 4.1214336e-08,8.0000002 C -0.0011922853,3.5808795 3.5808787,-0.0021581844 7.9999996,-0.0021581844 C 12.419121,-0.0021581844 16.001191,3.5808795 15.999999,8.0000002 L 15.999999,8.0000002 z "
     style="color:#000000;fill:#752900;fill-opacity:1;fill-rule:evenodd;stroke:none;stroke-width:1px;stroke-linecap:butt;stroke-linejoin:miter;marker:none;marker-start:none;marker-mid:none;marker-end:none;stroke-miterlimit:4;stroke-dasharray:none;stroke-dashoffset:0;stroke-opacity:1;visibility:visible;display:inline;overflow:visible;enable-background:accumulate"
     id="path2180" />
  <path
     d="M 14.999999,8.0000001 C 15.001042,11.866731 11.86673,15.001888 7.9999996,15.001888 C 4.1332688,15.001888 0.99895668,11.866731 0.99999996,8.0000001 C 0.99895668,4.1332695 4.1332688,0.99811155 7.9999996,0.99811155 C 11.86673,0.99811155 15.001042,4.1332695 14.999999,8.0000001 L 14.999999,8.0000001 z "
     style="color:#000000;fill:#fc803e;fill-opacity:1;fill-rule:evenodd;stroke:none;stroke-width:1.14285719px;stroke-linecap:butt;stroke-linejoin:miter;marker:none;marker-start:none;marker-mid:none;marker-end:none;stroke-miterlimit:4;stroke-dasharray:none;stroke-dashoffset:0;stroke-opacity:1;visibility:visible;display:inline;overflow:visible;enable-background:accumulate"
     id="path2182" />
  <path
     d="M 13,7.9999999 C 13.000894,11.31434 10.314341,14.001618 7,14.001618 C 3.6856593,14.001618 0.99910604,11.31434 1.0000003,7.9999999 C 0.99910604,4.6856593 3.6856593,1.9983811 7,1.9983811 C 10.314341,1.9983811 13.000894,4.6856593 13,7.9999999 L 13,7.9999999 z "
     style="opacity:1;color:#000000;fill:#752900;fill-opacity:1;fill-rule:evenodd;stroke:none;stroke-width:1px;stroke-linecap:butt;stroke-linejoin:miter;marker:none;marker-start:none;marker-mid:none;marker-end:none;stroke-miterlimit:4;stroke-dasharray:none;stroke-dashoffset:0;stroke-opacity:1;visibility:visible;display:inline;overflow:visible;enable-background:accumulate"
     id="path2184" />
  <path
     d="M 6.4375,5 C 5.7880797,5 5.2363238,5.3842058 4.90625,5.84375 C 4.5761762,6.3032942 4.4125428,6.8388513 4.28125,7.375 C 4.0186643,8.4472973 4,9.5 4,9.5 L 4,10 L 5,10 L 5,9.5 C 5,9.5 5.0228229,8.5527027 5.25,7.625 C 5.3635886,7.1611487 5.5101262,6.6967058 5.71875,6.40625 C 5.9273738,6.1157942 6.1401561,6 6.4375,6 C 6.7875197,6 7.0128722,6.1283055 7.28125,6.4375 C 7.5496278,6.7466945 7.8041951,7.2201799 8.0625,7.71875 C 8.2151191,8.0133295 8.3899604,8.3022187 8.5625,8.59375 C 8.7629836,8.5845402 8.8511876,8.5307071 9,8.34375 C 9.0876448,8.2336394 9.1450753,8.0305673 9.21875,7.8125 C 9.1237984,7.6445852 9.0320355,7.4637188 8.9375,7.28125 C 8.6777134,6.7798201 8.4138649,6.2533055 8.03125,5.8125 C 7.6486351,5.3716945 7.1126645,5 6.4375,5 z M 11.875,6.9375 C 11.846842,7.1122696 11.825499,7.2895804 11.78125,7.46875 C 11.671647,7.9125469 11.495575,8.3244881 11.28125,8.59375 C 11.120506,8.7956964 10.970995,8.9176004 10.75,8.96875 C 10.74784,8.9727909 10.720928,8.9647131 10.71875,8.96875 C 10.628013,9.1369534 10.531744,9.3110885 10.40625,9.46875 C 10.277223,9.6308497 10.109713,9.7756783 9.9375,9.90625 C 10.114255,9.9668585 10.299141,10 10.5,10 C 10.984932,10 11.391461,9.828842 11.71875,9.5625 C 11.722882,9.5500821 11.745963,9.543711 11.75,9.53125 C 11.907445,9.0452711 12.000145,8.538435 12,8 C 12.0001,7.6306887 11.95092,7.2840137 11.875,6.9375 z "
     style="opacity:1;color:#000000;fill:#fc803e;fill-opacity:1;fill-rule:evenodd;stroke:none;stroke-width:1.14285719px;stroke-linecap:butt;stroke-linejoin:miter;marker:none;marker-start:none;marker-mid:none;marker-end:none;stroke-miterlimit:4;stroke-dasharray:none;stroke-dashoffset:0;stroke-opacity:1;visibility:visible;display:inline;overflow:visible;enable-background:accumulate"
     id="path4943" />
  <path
     d="M 4.4375,5 C 3.7880797,5 3.2675738,5.3842058 2.9375,5.84375 C 2.6074262,6.3032942 2.4125428,6.8388513 2.28125,7.375 C 2.1650039,7.8497036 2.1026814,8.3101097 2.0625,8.6875 C 2.1269054,9.1477837 2.2565986,9.5887964 2.4375,10 L 3,10 L 3,9.5 C 3,9.5 3.0228229,8.5527027 3.25,7.625 C 3.3635886,7.1611487 3.5413762,6.6967058 3.75,6.40625 C 3.9283733,6.1579103 4.0844176,6.0610194 4.3125,6.03125 C 4.3167548,6.022784 4.3081703,6.0084467 4.3125,6 C 4.3842493,5.8600262 4.4673334,5.7262454 4.5625,5.59375 C 4.6883983,5.4184685 4.8529549,5.2690887 5.03125,5.125 C 4.8425576,5.0575331 4.6557644,5 4.4375,5 z M 10,5 L 10,5.5 C 10,5.6705323 10.000455,6.5811563 9.78125,7.46875 C 9.6716474,7.9125469 9.5268246,8.3244881 9.3125,8.59375 C 9.0981754,8.8630119 8.8662259,9 8.5,9 C 8.1826571,9 7.9777249,8.8725355 7.71875,8.5625 C 7.4597751,8.2524645 7.1972866,7.7826799 6.9375,7.28125 C 6.784441,6.9858216 6.6168378,6.6964344 6.4375,6.40625 C 6.2465945,6.40625 6.2241873,6.4311414 6.0625,6.65625 C 5.9781628,6.7736683 5.8944319,6.9832475 5.8125,7.21875 C 5.9013747,7.3789551 5.9734558,7.5468804 6.0625,7.71875 C 6.3208049,8.2173201 6.5699944,8.7475355 6.9375,9.1875 C 7.3050056,9.6274645 7.841183,10 8.5,10 C 9.1694948,10 9.7397984,9.6634291 10.09375,9.21875 C 10.447702,8.7740709 10.619761,8.2461059 10.75,7.71875 C 11.010478,6.6640382 11,5.5602455 11,5.5 L 11,5.03125 C 10.991346,5.0196782 10.977501,5.0114941 10.96875,5 L 10,5 z "
     style="opacity:1;color:#000000;fill:#fc803e;fill-opacity:1;fill-rule:evenodd;stroke:none;stroke-width:1.14285719px;stroke-linecap:butt;stroke-linejoin:miter;marker:none;marker-start:none;marker-mid:none;marker-end:none;stroke-miterlimit:4;stroke-dasharray:none;stroke-dashoffset:0;stroke-opacity:1;visibility:visible;display:inline;overflow:visible;enable-background:accumulate"
     id="path4938" />
</svg>
