<?xml version="1.0" encoding="UTF-8" standalone="no"?>
<!-- Created with Inkscape (http://www.inkscape.org/) -->

<svg
   xmlns:dc="http://purl.org/dc/elements/1.1/"
   xmlns:cc="http://creativecommons.org/ns#"
   xmlns:rdf="http://www.w3.org/1999/02/22-rdf-syntax-ns#"
   xmlns:svg="http://www.w3.org/2000/svg"
   xmlns="http://www.w3.org/2000/svg"
   version="1.1"
   width="12.8pt"
   height="12.8pt"
   id="svg3000">
  <metadata
     id="metadata3012">
    <rdf:RDF>
      <cc:Work
         rdf:about="">
        <dc:format>image/svg+xml</dc:format>
        <dc:type
           rdf:resource="http://purl.org/dc/dcmitype/StillImage" />
        <cc:license
           rdf:resource="http://www.gnu.org/licenses/gpl-2.0.html" />
        <dc:title></dc:title>
        <dc:creator>
          <cc:Agent>
            <dc:title>Timothee Giet</dc:title>
          </cc:Agent>
        </dc:creator>
      </cc:Work>
    </rdf:RDF>
  </metadata>
  <defs
     id="defs3002" />
  <g
     transform="translate(-20,0)"
     id="layer1">
    <path
       d="m 35.981431,7.9812121 c 0.0012,4.4191719 -3.580893,8.0021739 -8.000015,8.0021739 -4.419142,0 -8.001227,-3.583002 -8.000035,-8.0021739 -0.0012,-4.4191422 3.580893,-8.0021938 8.000035,-8.0021938 4.419122,0 8.001219,3.5830516 8.000015,8.0021938 z"
       id="path2180"
       style="fill:#800000;fill-rule:evenodd" />
    <path
       d="M 34.99998,7.9999997 C 35.00108,11.866758 31.866713,15.00187 27.999999,15.00187 24.133267,15.00187 20.998957,11.866758 21,7.9999997 20.999,4.1332679 24.133267,0.998112 27.999999,0.998112 c 3.866714,0 7.001035,3.1351559 6.999981,7.0018877 z"
       id="path2182"
       style="fill:#ffffe0;fill-rule:evenodd" />
    <path
       d="m 33.912264,8.0376416 c 0.674313,0.3044049 0.20868,1.3254766 -0.47098,2.3360354 -0.03208,0.77357 -0.375037,1.321063 -1.285743,1.907642 -0.623405,0.305979 0.182548,0.329023 -1.907341,1.286271 -1.143705,-1.087306 -1.790191,-0.134803 -2.335885,0.471658 C 26.577086,12.374551 26.203533,13.572786 25.576453,13.56759 24.684031,13.342266 23.685695,13.060838 23.669105,12.281319 22.898803,11.680507 22.268951,10.986237 22.383369,10.373677 21.630995,9.5676488 21.300534,8.7836863 21.912323,8.0376416 21.749049,7.1937787 21.440227,6.6747442 22.315177,5.5628052 22.635012,4.8721199 23.721745,5.259176 23.655843,3.6856028 c 0.568798,-1.3337627 1.242298,-0.9218525 1.968906,-1.2015833 0.05758,-0.528766 0.702636,-0.7646444 2.287566,-0.447989 2.695784,-0.4023551 2.006409,0.2188754 2.335885,0.4716728 1.139645,-0.083917 1.846115,0.300479 1.907341,1.2862535 0.02334,0.3179454 0.494099,-0.081002 1.285743,1.9076949 1.139645,0.6682885 1.019679,1.4747909 0.47098,2.3359899 z"
       id="path2184"
       style="fill:#cd5c5c;fill-rule:evenodd" />
    <path
       d="m 32.79949,8.0556 c 0.54471,0.23682 0.16861,1.03118 -0.38044,1.81735 -0.02593,0.60184 -0.30295,1.02775 -1.03865,1.48415 -0.50354,0.23802 0.14745,0.25596 -1.54071,1.00062 -0.92385,-0.8458 -1.44607,-0.10487 -1.88687,0.36698 C 26.87424,11.42961 26.57249,12.36182 26.06595,12.35772 25.34506,12.18247 24.53862,11.96357 24.52522,11.3571 23.90298,10.88964 23.394191,10.34953 23.486613,9.87295 22.878859,9.24589 22.611917,8.636 23.106111,8.0556 22.974221,7.39909 22.724759,6.99529 23.431532,6.13023 23.689894,5.5929 24.56773,5.89402 24.5145,4.66982 c 0.45947,-1.037642 1.00351,-0.717186 1.59046,-0.934809 0.0465,-0.4113669 0.56758,-0.594875 1.84786,-0.348525 2.1776,-0.313022 1.62077,0.17028 1.88687,0.366951 0.92059,-0.065285 1.49128,0.233768 1.54071,1.000683 0.01886,0.24734 0.39914,-0.06302 1.03865,1.48413 0.92065,0.51992 0.82365,1.14735 0.38044,1.81735 z"
       id="path21841"
       style="fill:#f08080;fill-rule:evenodd" />
  </g>
  <path
     d="M 2.209709,3.2057869 C 5.701048,-0.26345589 10.672893,6.6529325 13.943262,2.8743306"
     id="path3055"
     style="fill:none;stroke:#ff0000;stroke-width:1px;stroke-linecap:butt;stroke-linejoin:miter;stroke-opacity:1" />
  <path
     d="M 2.132369,6.6947113 C 5.623709,3.2254686 10.595554,10.141856 13.865923,6.363255"
     id="path3055-0"
     style="fill:none;stroke:#ff0000;stroke-width:1px;stroke-linecap:butt;stroke-linejoin:miter;stroke-opacity:1" />
  <path
     d="M 1.889301,9.8545946 C 5.380641,6.3853519 10.352485,13.30174 13.622854,9.5231383"
     id="path3055-04"
     style="fill:none;stroke:#ff0000;stroke-width:1px;stroke-linecap:butt;stroke-linejoin:miter;stroke-opacity:1" />
  <path
     d="M 1.999787,13.058672 C 5.491126,9.5894295 10.46297,16.505818 13.733339,12.727216"
     id="path3055-6"
     style="fill:none;stroke:#ff0000;stroke-width:1px;stroke-linecap:butt;stroke-linejoin:miter;stroke-opacity:1" />
</svg>
