<?xml version="1.0" encoding="UTF-8" standalone="no"?>
<!-- Created using Karbon, part of Calligra: http://www.calligra.org/karbon -->

<svg
   xmlns:dc="http://purl.org/dc/elements/1.1/"
   xmlns:cc="http://creativecommons.org/ns#"
   xmlns:rdf="http://www.w3.org/1999/02/22-rdf-syntax-ns#"
   xmlns:svg="http://www.w3.org/2000/svg"
   xmlns="http://www.w3.org/2000/svg"
   xmlns:sodipodi="http://sodipodi.sourceforge.net/DTD/sodipodi-0.dtd"
   xmlns:inkscape="http://www.inkscape.org/namespaces/inkscape"
   width="12.8pt"
   height="12.8pt"
   id="svg3034"
   version="1.1"
   inkscape:version="0.48.2 r9819"
   sodipodi:docname="MadBrain_Dynamite6.svg">
  <metadata
     id="metadata3057">
    <rdf:RDF>
      <cc:Work
         rdf:about="">
        <dc:format>image/svg+xml</dc:format>
        <dc:type
           rdf:resource="http://purl.org/dc/dcmitype/StillImage" />
        <dc:title></dc:title>
        <cc:license
           rdf:resource="http://www.gnu.org/licenses/gpl-2.0.html" />
        <dc:creator>
          <cc:Agent>
            <dc:title>Timothee Giet</dc:title>
          </cc:Agent>
        </dc:creator>
      </cc:Work>
    </rdf:RDF>
  </metadata>
  <sodipodi:namedview
     pagecolor="#ffffff"
     bordercolor="#666666"
     borderopacity="1"
     objecttolerance="10"
     gridtolerance="10"
     guidetolerance="10"
     inkscape:pageopacity="0"
     inkscape:pageshadow="2"
     inkscape:window-width="1920"
     inkscape:window-height="1033"
     id="namedview3055"
     showgrid="false"
     inkscape:zoom="14.75"
     inkscape:cx="-0.54237288"
     inkscape:cy="8"
     inkscape:window-x="-2"
     inkscape:window-y="24"
     inkscape:window-maximized="1"
     inkscape:current-layer="svg3034" />
  <defs
     id="defs3036">
    <linearGradient
       id="gradient0"
       gradientTransform=""
       gradientUnits="objectBoundingBox"
       x1="0.91762313170"
       y1="1.15593609113"
       x2="0.92294678517"
       y2="-0.14691258486"
       spreadMethod="pad">
      <stop
         stop-color="#440000"
         offset="0.03000000000"
         stop-opacity="1.00000000000"
         id="stop3039" />
      <stop
         stop-color="#ff0d00"
         offset="0.79000000000"
         stop-opacity="1.00000000000"
         id="stop3041" />
    </linearGradient>
    <linearGradient
       id="gradient1"
       gradientTransform=""
       gradientUnits="objectBoundingBox"
       x1="0.00000000000"
       y1="1.00000000000"
       x2="0.54643189584"
       y2="0.95454545455"
       spreadMethod="pad">
      <stop
         stop-color="#ff0000"
         offset="0.00000000000"
         stop-opacity="1.00000000000"
         id="stop3044" />
      <stop
         stop-color="#ffff00"
         offset="1.00000000000"
         stop-opacity="1.00000000000"
         id="stop3046" />
    </linearGradient>
  </defs>
  <g
     id="layer1">
    <path
       id="path2180"
       transform="matrix(1.00412 0 0 1.00412 -0.0186192 -0.0209817)"
       fill="#800000"
       fill-rule="evenodd"
       d="M15.9344 7.96936C15.9356 12.3704 12.3682 15.9387 7.96721 15.9387C3.5662 15.9387 -0.00118715 12.3704 2.96355e-07 7.96936C-0.00118715 3.56835 3.5662 7.77156e-16 7.96721 0C12.3682 -7.77156e-16 15.9356 3.56835 15.9344 7.96936Z" />
    <path
       id="path2182"
       transform="matrix(0.878601 0 0 0.878601 1 0.998112)"
       fill="#ffffe0"
       fill-rule="evenodd"
       d="M15.9344 7.96936C15.9356 12.3704 12.3682 15.9387 7.96721 15.9387C3.5662 15.9387 -0.00118715 12.3704 2.96355e-07 7.96936C-0.00118715 3.56835 3.5662 7.77156e-16 7.96721 0C12.3682 -7.77156e-16 15.9356 3.56835 15.9344 7.96936Z" />
    <path
       id="path2184"
       transform="matrix(0.753086 0 0 0.753086 1.59366 1.8931)"
       fill="#cd5c5c"
       fill-rule="evenodd"
       d="M16.3575 8.15915C17.2529 8.56336 16.6346 9.91921 15.7321 11.2611C15.6895 12.2883 15.2341 13.0153 14.0248 13.7942C13.197 14.2005 14.2672 14.2311 11.4921 15.5022C9.97341 14.0584 9.11496 15.3232 8.39035 16.1285C6.61734 13.918 6.12131 15.5091 5.28863 15.5022C4.10361 15.203 2.77795 14.8293 2.75592 13.7942C1.73306 12.9964 0.896698 12.0745 1.04863 11.2611C0.0495759 10.1908 -0.389233 9.1498 0.423143 8.15915C0.206336 7.03861 -0.203739 6.3494 0.958081 4.87289C1.38278 3.95575 2.82582 4.46971 2.73831 2.38021C3.4936 0.609147 4.38792 1.15611 5.35276 0.784664C5.42922 0.0825318 6.28577 -0.230684 8.39035 0.189793C11.97 -0.344482 11.0546 0.480431 11.4921 0.816113C13.0054 0.704682 13.9435 1.21511 14.0248 2.52409C14.0558 2.94628 14.6809 2.41653 15.7321 5.05726C17.2454 5.94466 17.0861 7.01559 16.3575 8.15915Z" />
    <path
       id="path21841"
       transform="translate(2.8487, 3.27529)"
       fill="#f08080"
       fill-rule="evenodd"
       d="M9.95079 4.78031C10.4955 5.01713 10.1194 5.81149 9.57035 6.59766C9.54442 7.1995 9.2674 7.62541 8.5317 8.08181C8.02816 8.31983 8.67915 8.33777 6.99099 9.08243C6.06714 8.23663 5.54492 8.97756 5.10412 9.44941C4.02554 8.15432 3.72379 9.08653 3.21725 9.08243C2.49636 8.90718 1.68992 8.68828 1.67652 8.08181C1.05428 7.61435 0.545491 7.07424 0.637913 6.59766C0.0301588 5.9706 -0.236783 5.36071 0.257411 4.78031C0.125521 4.1238 -0.123941 3.72 0.582832 2.85494C0.841194 2.31761 1.71903 2.61873 1.6658 1.39453C2.12527 0.356888 2.66931 0.677344 3.25626 0.459721C3.30276 0.0483541 3.82384 -0.135154 5.10412 0.111196C7.28172 -0.201826 6.72489 0.281476 6.99099 0.478147C7.91158 0.412862 8.48227 0.711915 8.5317 1.47883C8.55056 1.72617 8.93084 1.41581 9.57035 2.96296C10.491 3.48288 10.394 4.11031 9.95079 4.78031Z" />
    <path
       id="shape0"
       transform="matrix(0.721012 -0.692922 0.692922 0.721012 4.5145 9.87295)"
       fill="url(#gradient0)"
       fill-rule="evenodd"
       d="M5.73368 0L5.73368 1.90118L0.0107142 1.90118L0 0Z" />
    <path
       id="shape1"
       transform="translate(9.38204, 5.21412)"
       fill="url(#gradient1)"
       fill-rule="evenodd"
       d="M1.39832 0C0.371515 0 0.308649 0.224531 0.457646 0.348685C0.606643 0.472839 -0.181095 1.24235 0.0391391 1.24235C0.259373 1.24235 2.42513 4.44089e-14 1.39832 0Z" />
  </g>
</svg>
