<?xml version="1.0" encoding="UTF-8" standalone="no"?>
<!-- Created with Inkscape (http://www.inkscape.org/) -->
<svg
   xmlns:svg="http://www.w3.org/2000/svg"
   xmlns="http://www.w3.org/2000/svg"
   version="1.0"
   width="16"
   height="16"
   id="svg2">
  <defs
     id="defs4" />
  <path
     d="M 15.999999,8.0000002 C 16.001191,12.419121 12.419121,16.002158 7.9999996,16.002158 C 3.5808787,16.002158 -0.0011922853,12.419121 4.1214336e-08,8.0000002 C -0.0011922853,3.5808795 3.5808787,-0.0021581844 7.9999996,-0.0021581844 C 12.419121,-0.0021581844 16.001191,3.5808795 15.999999,8.0000002 L 15.999999,8.0000002 z "
     style="color:#000000;fill:#a40000;fill-opacity:1;fill-rule:evenodd;stroke:none;stroke-width:1px;stroke-linecap:butt;stroke-linejoin:miter;marker:none;marker-start:none;marker-mid:none;marker-end:none;stroke-miterlimit:4;stroke-dasharray:none;stroke-dashoffset:0;stroke-opacity:1;visibility:visible;display:inline;overflow:visible;enable-background:accumulate"
     id="path2180" />
  <path
     d="M 14.999999,8.0000001 C 15.001042,11.866731 11.86673,15.001888 7.9999996,15.001888 C 4.1332688,15.001888 0.99895668,11.866731 0.99999996,8.0000001 C 0.99895668,4.1332695 4.1332688,0.99811155 7.9999996,0.99811155 C 11.86673,0.99811155 15.001042,4.1332695 14.999999,8.0000001 L 14.999999,8.0000001 z "
     style="color:#000000;fill:#ffffff;fill-opacity:1;fill-rule:evenodd;stroke:none;stroke-width:1.14285719px;stroke-linecap:butt;stroke-linejoin:miter;marker:none;marker-start:none;marker-mid:none;marker-end:none;stroke-miterlimit:4;stroke-dasharray:none;stroke-dashoffset:0;stroke-opacity:1;visibility:visible;display:inline;overflow:visible;enable-background:accumulate"
     id="path2182" />
  <path
     d="M 14,7.9999999 C 14.000894,11.31434 11.314341,14.001618 8,14.001618 C 4.6856593,14.001618 1.999106,11.31434 2.0000003,7.9999999 C 1.999106,4.6856593 4.6856593,1.9983811 8,1.9983811 C 11.314341,1.9983811 14.000894,4.6856593 14,7.9999999 L 14,7.9999999 z "
     style="color:#000000;fill:#ffffff;fill-opacity:1;fill-rule:evenodd;stroke:none;stroke-width:1.32786894px;stroke-linecap:butt;stroke-linejoin:miter;marker:none;marker-start:none;marker-mid:none;marker-end:none;stroke-miterlimit:4;stroke-dasharray:none;stroke-dashoffset:0;stroke-opacity:1;visibility:visible;display:inline;overflow:visible;enable-background:accumulate"
     id="path2184" />
  <path
     d="M 7.273021,11.928698 C 6.3023916,11.611863 5.3856403,10.81324 4.8961845,9.8581317 C 4.6759109,9.4282888 4.4264654,9.1702843 4.3271695,9.2695826 C 4.3012306,9.295519 4.4048869,9.5615141 4.5575097,9.8606827 L 4.835008,10.404626 L 4.1274505,10.637239 C 3.7382979,10.765175 3.348047,10.896307 3.2602298,10.92864 C 3.1436084,10.971582 3.1522876,10.793119 3.2924367,10.26661 C 3.5563627,9.2750585 3.5331655,9.2091528 3.0988491,9.7165501 C 2.7429645,10.132313 2.7091804,10.144014 2.5131941,9.9193923 C 2.3086853,9.6850034 2,9.1493229 2,9.0288177 C 2,8.995018 2.2277348,8.92464 2.5060755,8.8724229 C 3.2682113,8.7294452 3.2834476,8.6785923 2.73303,8.1149138 C 2.3618058,7.7347448 2.2763423,7.5752475 2.4165119,7.5241965 C 2.5221211,7.4857334 2.8639958,7.365783 3.1762321,7.2576406 L 3.7439341,7.0610175 L 3.8339189,7.6610707 C 3.88341,7.9910995 3.9766856,8.2611235 4.0411982,8.2611235 C 4.1726184,8.2611235 4.2187731,8.0637608 4.4049076,6.7059999 C 4.7198235,4.4087792 6.1916301,2.8519987 8.0485458,2.8519987 C 8.9171826,2.8519987 9.488381,3.0731154 10.173362,3.6745373 C 11.118388,4.5042809 11.736425,5.8765521 11.736425,7.1451185 C 11.736425,7.8568453 11.971486,8.3994522 12.154574,8.1103574 C 12.219816,8.00734 12.274127,7.7187716 12.275267,7.4690936 C 12.276784,7.1366878 12.327882,7.0345304 12.466104,7.0875712 C 12.569925,7.1274114 12.904615,7.2348328 13.209859,7.326286 C 13.515102,7.4177391 13.764848,7.5318476 13.764848,7.5798606 C 13.764848,7.6278734 13.554231,7.8712937 13.29681,8.1207952 C 13.03939,8.3702965 12.857152,8.6203492 12.891835,8.6764683 C 12.926518,8.7325875 13.197988,8.8195728 13.4951,8.8697696 C 14.106892,8.9731313 14.145399,9.0931057 13.76633,9.7148256 C 13.458567,10.219593 13.278684,10.269393 13.156275,9.8837171 C 13.088825,9.6712008 12.543154,9.2111966 12.549257,9.3719977 C 12.550063,9.3932083 12.641342,9.7092837 12.7521,10.074388 C 12.862857,10.439492 12.953478,10.782809 12.953478,10.837316 C 12.953478,10.940344 11.536996,10.540877 11.393499,10.397381 C 11.348605,10.352486 11.43906,10.066446 11.594511,9.7617369 C 11.922092,9.119625 11.70304,8.9977976 11.358258,9.6303424 C 10.874161,10.518477 10.118922,11.34471 9.531079,11.629279 C 8.85756,11.955324 7.7887612,12.097048 7.273021,11.928698 z M 9.4137732,11.290275 C 10.381715,10.80793 10.983173,9.9361951 10.988677,9.0076566 C 10.992619,8.3429063 10.984517,8.3298629 10.355157,7.9877405 C 10.004526,7.797136 9.5573209,7.4916223 9.3613683,7.3088213 C 8.9674726,6.9413628 8.4152762,5.9296478 8.1492575,5.0880333 C 8.011835,4.6532652 7.973791,4.6110661 7.9620859,4.8804203 C 7.9399087,5.3907739 7.3126713,6.6482124 6.8261965,7.1575663 C 6.5889909,7.4059275 6.1131292,7.7531749 5.7687232,7.9292267 C 4.8578749,8.3948281 4.7672582,9.0652406 5.4648442,10.177347 C 6.3393588,11.571516 7.9426433,12.023371 9.4137732,11.290275 z M 8.4396465,10.315937 C 8.3887242,10.233542 8.2632278,10.198298 8.1607657,10.237617 C 8.0500463,10.280104 7.9371171,10.191413 7.8823928,10.018993 C 7.7997213,9.7585187 7.7673911,9.7495364 7.5659127,9.9310635 C 7.1915723,10.268336 6.6484384,10.346215 6.5452871,10.077407 C 6.496268,9.9496662 6.4880202,9.8132921 6.526959,9.7743536 C 6.5658974,9.7354154 6.5977561,9.7745515 6.5977561,9.8613227 C 6.5977561,10.135896 7.1022709,10.032255 7.5339776,9.6689976 C 7.9201131,9.3440858 7.9500372,9.3381042 7.9500372,9.5858311 C 7.9500372,9.7326394 8.0984056,9.9499701 8.2797445,10.068789 C 8.589391,10.271676 8.6146291,10.268508 8.6945416,10.016726 C 8.7876214,9.7234575 8.9662501,9.668296 9.1035346,9.8904273 C 9.1594873,9.9809613 9.2479246,9.9858637 9.3481643,9.9039887 C 9.4508337,9.820129 9.5654443,9.8411967 9.6793724,9.9648702 C 9.8267502,10.124855 9.7765848,10.144127 9.3536903,10.089984 C 8.9932946,10.043841 8.8089292,10.08734 8.6930145,10.245863 C 8.5841244,10.39478 8.5023514,10.417395 8.4396465,10.315937 z M 6.1495418,8.9011653 C 5.8191722,8.6543402 6.1392557,8.1029425 6.707513,7.9399684 C 7.0718751,7.8354707 7.2176899,7.8615829 7.5171661,8.0849586 C 7.7180574,8.2348014 7.9000723,8.4726561 7.9216429,8.6135248 C 7.9521275,8.8126004 7.8969035,8.7868177 7.6737149,8.4977725 C 7.4864169,8.2552085 7.2611761,8.1266152 7.0259684,8.1279658 C 6.6845161,8.1299267 6.0873636,8.3899013 6.4142531,8.3942806 C 6.6493811,8.3974306 6.7394395,8.7635624 6.544816,8.9250855 C 6.4227314,9.0264066 6.307871,9.0194558 6.1495418,8.9011653 z M 8.2051544,8.4977725 C 8.3212829,8.1799492 8.8084035,7.8608484 9.1826604,7.8574324 C 9.4816821,7.854703 10.113687,8.3703102 10.113687,8.616989 C 10.113687,8.7441912 10.051621,8.7790666 9.9446521,8.7119705 C 9.8516827,8.6536557 9.6691245,8.6234634 9.5389675,8.644876 C 9.3285216,8.6794975 9.238419,8.5305908 9.2863047,8.2273162 C 9.2951123,8.1715345 9.1849596,8.1258951 9.0415213,8.1258951 C 8.7700861,8.1258951 8.3557215,8.4585541 8.3557215,8.6764671 C 8.3557215,8.74553 8.2968298,8.8020358 8.2248509,8.8020358 C 8.1463452,8.8020358 8.1384642,8.6802922 8.2051544,8.4977725 z "
     style="color:#000000;fill:#a40000;fill-opacity:1;fill-rule:evenodd;stroke:none;stroke-width:1.00411522px;stroke-linecap:butt;stroke-linejoin:miter;marker:none;marker-start:none;marker-mid:none;marker-end:none;stroke-miterlimit:4;stroke-dasharray:none;stroke-dashoffset:0;stroke-opacity:1;visibility:visible;display:inline;overflow:visible;enable-background:accumulate"
     id="path3287" />
</svg>
