<?xml version="1.0" encoding="UTF-8" standalone="no"?>
<!-- Created with Inkscape (http://www.inkscape.org/) -->

<svg
   xmlns:dc="http://purl.org/dc/elements/1.1/"
   xmlns:cc="http://creativecommons.org/ns#"
   xmlns:rdf="http://www.w3.org/1999/02/22-rdf-syntax-ns#"
   xmlns:svg="http://www.w3.org/2000/svg"
   xmlns="http://www.w3.org/2000/svg"
   version="1.1"
   width="12.8pt"
   height="12.8pt"
   id="svg2">
  <metadata
     id="metadata23">
    <rdf:RDF>
      <cc:Work
         rdf:about="">
        <dc:format>image/svg+xml</dc:format>
        <dc:type
           rdf:resource="http://purl.org/dc/dcmitype/StillImage" />
        <cc:license
           rdf:resource="http://www.gnu.org/licenses/gpl-2.0.html" />
        <dc:title></dc:title>
        <dc:creator>
          <cc:Agent>
            <dc:title>Timothee Giet</dc:title>
          </cc:Agent>
        </dc:creator>
      </cc:Work>
    </rdf:RDF>
  </metadata>
  <defs
     id="defs4">
    <mask
       id="mask4330">
      <path
         d="m -6.9152546,9.3898306 a 7.2881355,7.2881355 0 1 1 -14.5762714,0 7.2881355,7.2881355 0 1 1 14.5762714,0 z"
         transform="matrix(0.88837209,0,0,0.88837209,20.58811,-0.30365251)"
         id="path4332"
         style="fill:#ffffff;fill-opacity:1;stroke:none" />
    </mask>
    <mask
       id="mask4334">
      <path
         d="m -6.9152546,9.3898306 a 7.2881355,7.2881355 0 1 1 -14.5762714,0 7.2881355,7.2881355 0 1 1 14.5762714,0 z"
         transform="matrix(0.88837209,0,0,0.88837209,20.58811,-0.30365251)"
         id="path4336"
         style="fill:#ffffff;fill-opacity:1;stroke:none" />
    </mask>
  </defs>
  <g
     id="layer1">
    <path
       d="M 15.9344,7.96936 C 15.9356,12.3704 12.3682,15.9387 7.96721,15.9387 3.5662,15.9387 -0.00118715,12.3704 2.96355e-7,7.96936 -0.00118715,3.56835 3.5662,0 7.96721,0 12.3682,0 15.9356,3.56835 15.9344,7.96936 z"
       transform="matrix(1.00412,0,0,1.00412,-2.56361e-7,-0.00215818)"
       id="path2180"
       style="fill:#191970;fill-rule:evenodd" />
    <path
       d="M 15.9344,7.96936 C 15.9356,12.3704 12.3682,15.9387 7.96721,15.9387 3.5662,15.9387 -0.00118715,12.3704 2.96355e-7,7.96936 -0.00118715,3.56835 3.5662,0 7.96721,0 12.3682,0 15.9356,3.56835 15.9344,7.96936 z"
       transform="matrix(0.878601,0,0,0.878601,1,0.998112)"
       id="path2182"
       style="fill:#ffffe0;fill-rule:evenodd" />
    <path
       d="M 0,0 7.44757,7.69882"
       transform="translate(1.69432,6.64471)"
       id="shape0"
       style="fill:none;stroke:#ffffe0;stroke-width:0.70866263;stroke-linecap:butt;stroke-linejoin:bevel" />
    <path
       d="M 0,0 8.86261,9.24235"
       transform="translate(2.94179,3.97176)"
       id="shape2"
       style="fill:none;stroke:#ffffe0;stroke-width:0.70866263;stroke-linecap:butt;stroke-linejoin:bevel" />
    <path
       d="M 0,0 8.20922,8.94253"
       transform="matrix(-0.0470848,0.998891,0.998891,0.0470848,5.13882,2.31529)"
       id="shape4"
       style="fill:none;stroke:#ffffe0;stroke-width:0.70866263;stroke-linecap:butt;stroke-linejoin:bevel" />
    <path
       d="M 0,0 8.97667,9.76241"
       transform="matrix(-0.0470848,0.998891,0.998891,0.0470848,3.86609,2.98569)"
       id="shape5"
       style="fill:none;stroke:#ffffe0;stroke-width:0.70866263;stroke-linecap:butt;stroke-linejoin:bevel" />
  </g>
  <path
     d="m -6.9152546,9.3898306 a 7.2881355,7.2881355 0 1 1 -14.5762714,0 7.2881355,7.2881355 0 1 1 14.5762714,0 z"
     transform="matrix(0.88837209,0,0,0.88837209,20.58811,-0.30365223)"
     id="path3785-2"
     style="fill:#000000;fill-opacity:1;stroke:none" />
  <path
     d="M 1.318335,6.53196 7,12 9.252313,8 11,11.325904 11.505466,9.3124477 12,11 13.710681,8.5214469 14,9.7439027 15.623213,8.5033641 15,14 7.263667,16 2,14 0,9 z"
     mask="url(#mask4334)"
     id="path4302"
     style="fill:#787878;fill-opacity:0.47058824;stroke:#ffffff;stroke-width:1px;stroke-linecap:butt;stroke-linejoin:miter;stroke-opacity:1" />
  <path
     d="M 0,5.3574437 1.67788,2.5050468 5.537006,7.5147186 8.58116,3.6316237 10,6.53196 11.241799,4.6143823 12.455425,7.2396972 14.261984,5 15.292682,8"
     mask="url(#mask4330)"
     id="path4304"
     style="fill:none;stroke:#ffff00;stroke-width:1;stroke-linecap:butt;stroke-linejoin:miter;stroke-miterlimit:4;stroke-opacity:1;stroke-dasharray:none" />
</svg>
