<?xml version="1.0" encoding="UTF-8" standalone="no"?>
<!-- Created with Inkscape (http://www.inkscape.org/) -->
<svg
   xmlns:dc="http://purl.org/dc/elements/1.1/"
   xmlns:cc="http://web.resource.org/cc/"
   xmlns:rdf="http://www.w3.org/1999/02/22-rdf-syntax-ns#"
   xmlns:svg="http://www.w3.org/2000/svg"
   xmlns="http://www.w3.org/2000/svg"
   xmlns:xlink="http://www.w3.org/1999/xlink"
   xmlns:sodipodi="http://sodipodi.sourceforge.net/DTD/sodipodi-0.dtd"
   xmlns:inkscape="http://www.inkscape.org/namespaces/inkscape"
   version="1.0"
   width="48"
   height="48"
   viewBox="0 0 1523.643 1258.418"
   id="Layer_1"
   xml:space="preserve"
   sodipodi:version="0.32"
   inkscape:version="0.44"
   sodipodi:docname="aldrin.svg"
   sodipodi:docbase="/home/paniq/devel/zzub/share/icons/hicolor/scalable/apps"><metadata
   id="metadata1904"><rdf:RDF><cc:Work
       rdf:about=""><dc:format>image/svg+xml</dc:format><dc:type
         rdf:resource="http://purl.org/dc/dcmitype/StillImage" /></cc:Work></rdf:RDF></metadata><sodipodi:namedview
   inkscape:window-height="721"
   inkscape:window-width="1245"
   inkscape:pageshadow="2"
   inkscape:pageopacity="0.0"
   guidetolerance="10.0"
   gridtolerance="10.0"
   objecttolerance="10.0"
   borderopacity="1.0"
   bordercolor="#666666"
   pagecolor="#ffffff"
   id="base"
   inkscape:zoom="1"
   inkscape:cx="27.347041"
   inkscape:cy="29.824007"
   inkscape:window-x="0"
   inkscape:window-y="26"
   inkscape:current-layer="Layer_1" /><defs
   id="defs2173"><linearGradient
     id="linearGradient2903"><stop
       style="stop-color:black;stop-opacity:0.53333336"
       offset="0"
       id="stop2905" /><stop
       style="stop-color:black;stop-opacity:0"
       offset="1"
       id="stop2907" /></linearGradient><linearGradient
     id="linearGradient2893"><stop
       style="stop-color:#4a82d5;stop-opacity:1"
       offset="0"
       id="stop2895" /><stop
       style="stop-color:#204a87;stop-opacity:1"
       offset="1"
       id="stop2897" /></linearGradient><linearGradient
     id="linearGradient2885"><stop
       style="stop-color:#f78a8a;stop-opacity:1"
       offset="0"
       id="stop2887" /><stop
       style="stop-color:#ef2929;stop-opacity:1"
       offset="1"
       id="stop2889" /></linearGradient><linearGradient
     id="linearGradient2877"><stop
       style="stop-color:white;stop-opacity:1"
       offset="0"
       id="stop2879" /><stop
       style="stop-color:#d3d8d0;stop-opacity:1"
       offset="1"
       id="stop2881" /></linearGradient><radialGradient
     cx="1103.1901"
     cy="664.50476"
     r="317.28772"
     fx="1103.1901"
     fy="664.50476"
     id="radialGradient2883"
     xlink:href="#linearGradient2877"
     gradientUnits="userSpaceOnUse"
     gradientTransform="matrix(0.577166,-0.462968,1.125855,1.403563,-485.4088,84.42979)" /><radialGradient
     cx="911.69879"
     cy="726.38788"
     r="496.23434"
     fx="911.69879"
     fy="726.38788"
     id="radialGradient2891"
     xlink:href="#linearGradient2885"
     gradientUnits="userSpaceOnUse"
     gradientTransform="matrix(0.905823,-0.423655,0.135792,0.29034,13.57109,669.5199)" /><radialGradient
     cx="711.53125"
     cy="663.01562"
     r="525.65625"
     fx="711.53125"
     fy="663.01562"
     id="radialGradient2899"
     xlink:href="#linearGradient2893"
     gradientUnits="userSpaceOnUse"
     gradientTransform="matrix(1,0,0,1.00003,0,-1.970797e-2)" /><radialGradient
     cx="675.71881"
     cy="1318.0304"
     r="496.02628"
     fx="675.71881"
     fy="1318.0304"
     id="radialGradient2909"
     xlink:href="#linearGradient2903"
     gradientUnits="userSpaceOnUse"
     gradientTransform="matrix(1,0,0,0.135849,52.41033,1039.772)" /></defs>

























































<path
   d="M 1224.1554,1218.8252 C 1224.1554,1256.0407 1002.0769,1286.2099 728.12915,1286.2099 C 454.1814,1286.2099 232.10287,1256.0407 232.10287,1218.8252 C 232.10287,1181.6097 454.1814,1151.4405 728.12915,1151.4405 C 1002.0769,1151.4405 1224.1554,1181.6097 1224.1554,1218.8252 z "
   style="opacity:1;color:black;fill:url(#radialGradient2909);fill-opacity:1;fill-rule:nonzero;stroke:none;stroke-width:31.74258995;stroke-linecap:butt;stroke-linejoin:miter;marker:none;marker-start:none;marker-mid:none;marker-end:none;stroke-miterlimit:4;stroke-dasharray:none;stroke-dashoffset:0;stroke-opacity:1;visibility:visible;display:inline;overflow:visible"
   id="path2901" /><path
   d="M 129.67854,618.0003 C 129.67854,292.54153 393.50994,28.71013 718.96871,28.71013 C 1044.4275,28.71013 1308.2598,292.54153 1308.2598,618.0003 C 1308.2598,943.45907 1044.4284,1207.3092 718.96871,1207.3092 C 393.50994,1207.3092 129.67854,943.45907 129.67854,618.0003"
   style="fill:#182f4d;fill-opacity:1;stroke:none;stroke-width:31.74259377;stroke-miterlimit:4;stroke-dasharray:none;stroke-opacity:1"
   id="path3168" /><path
   d="M 711.53125,105.375 C 403.18196,105.375 153.90625,354.65072 153.90625,663 C 153.90625,971.34929 403.18398,1220.6562 711.53125,1220.6562 C 1019.8794,1220.6562 1269.1562,971.34936 1269.1562,663 C 1269.1562,354.65071 1019.8805,105.375 711.53125,105.375 z "
   transform="translate(7.435083,-45.00404)"
   style="fill:#3a78d1;fill-opacity:1;stroke:none;stroke-width:31.74259377;stroke-miterlimit:4;stroke-dasharray:none;stroke-opacity:1"
   id="path3220" /><path
   d="M 711.53125,137.34375 C 420.40837,137.34375 185.875,371.87713 185.875,663 C 185.875,954.12274 420.41266,1188.6875 711.53125,1188.6875 C 1002.6508,1188.6875 1237.1875,954.12288 1237.1875,663 C 1237.1875,371.87711 1002.6541,137.34375 711.53125,137.34375 z "
   transform="translate(7.435083,-45.00404)"
   style="fill:url(#radialGradient2899);fill-opacity:1;stroke:none;stroke-width:31.74259377;stroke-miterlimit:4;stroke-dasharray:none;stroke-opacity:1"
   id="path3222" /><path
   d="M 535.125,585.46875 C 523.08163,585.92907 511.98683,592.52172 505.8125,602.875 L 499,614.25 C 492.19248,625.62391 492.27313,640.02254 499.21875,651.3125 L 517.5,681.03125 C 517.69258,681.33679 517.89053,681.63892 518.09375,681.9375 C 518.66044,682.79173 519.23672,683.63493 519.875,684.4375 C 519.875,684.4375 547.60464,721.83659 566.25,746.40625 C 584.68972,770.66724 613.53125,807.75 613.53125,807.75 L 622.96875,821.0625 C 625.75922,826.40695 644.40847,862.64445 675.5,887.15625 C 686.21809,895.60009 698.25313,902.35941 712.53125,905.59375 C 719.60071,907.19514 728.38337,908.15476 738.15625,905.9375 C 749.06411,903.46274 759.83058,897.08142 767,885.90625 C 773.319,876.08305 775.83714,864.46596 774.59375,853.375 C 773.43527,843.04143 769.48017,834.73392 765.46875,828.3125 C 757.48266,815.5285 747.48885,806.53433 737.375,797.90625 C 719.46941,782.64095 697.7106,769.59187 690.8125,765.5 L 682.78125,755.96875 C 682.78125,755.96875 652.44729,718.59596 634.0625,694.6875 C 615.30466,670.26533 586,629.90625 586,629.90625 L 565.84375,600.8125 C 558.93462,590.82902 547.31806,585.02752 535.1875,585.46875 L 535.125,585.46875 z "
   style="color:black;fill:#33372e;fill-opacity:1;fill-rule:nonzero;stroke:none;stroke-width:31.74259377;stroke-linecap:butt;stroke-linejoin:miter;marker:none;marker-start:none;marker-mid:none;marker-end:none;stroke-miterlimit:4;stroke-dasharray:none;stroke-dashoffset:0;stroke-opacity:1;visibility:visible;display:inline;overflow:visible"
   id="path3214" /><path
   d="M 536.3125,616.21875 C 534.63783,616.27979 533.10833,617.18573 532.25,618.625 L 525.40625,630.0625 C 524.46027,631.64303 524.47232,633.61862 525.4375,635.1875 L 543.71875,664.9375 C 543.79711,665.05562 543.88052,665.17031 543.96875,665.28125 C 543.96875,665.28125 572.32249,703.52991 590.75,727.8125 C 608.97595,751.79224 637.8125,788.875 637.8125,788.875 L 649.09375,804.6875 L 649.125,804.75 C 649.89612,806.14789 671.18345,844.56853 694.5625,863 C 702.34204,869.12881 711.09513,873.72524 719.34375,875.59375 C 723.46806,876.528 727.51448,876.80628 731.34375,875.9375 C 735.17302,875.06872 738.82667,872.81501 741.09375,869.28125 C 743.55699,865.45202 744.50651,861.0518 744.03125,856.8125 C 743.55599,852.5732 741.82047,848.53967 739.375,844.625 C 734.48406,836.79566 726.6244,829.17646 717.40625,821.3125 C 701.1017,807.41215 671.71115,789.82333 670.4375,789.0625 L 659.25,775.78125 C 659.25,775.78125 628.5693,738.03293 609.65625,713.4375 C 590.35982,688.3141 561.09375,647.96875 561.09375,647.96875 L 540.5625,618.34375 C 539.60196,616.9558 537.99919,616.15441 536.3125,616.21875 z "
   style="color:black;fill:#d3d7cf;fill-opacity:1;fill-rule:nonzero;stroke:none;stroke-width:31.74259377;stroke-linecap:butt;stroke-linejoin:miter;marker:none;marker-start:none;marker-mid:none;marker-end:none;stroke-miterlimit:4;stroke-dasharray:none;stroke-dashoffset:0;stroke-opacity:1;visibility:visible;display:inline;overflow:visible"
   id="path3206" /><path
   d="M 20.875,14.9375 L 20.875,11.5625 C 19.251514,10.633631 17.804659,10.153341 16.59375,10.15625 C 15.483506,10.158918 14.536446,10.490069 13.875,11 C 12.930161,11.728053 12.445548,12.803374 12.28125,13.90625 C 12.117638,15.004522 12.250939,16.189351 12.5,17.34375 C 12.998434,19.653992 14.058637,21.958018 15.03125,23.59375 C 15.310629,24.065108 15.889041,24.274655 16.40625,24.09375 L 16.78125,23.96875 C 17.11876,23.850806 17.384134,23.590725 17.5,23.25 C 17.615868,22.909273 17.567771,22.544858 17.375,22.25 C 16.871077,21.476955 15.753302,19.239741 15.21875,17.1875 C 14.951605,16.161882 14.821884,15.146332 14.90625,14.4375 C 14.991918,13.717728 15.174191,13.396673 15.59375,13.15625 C 16.065481,12.886065 16.640787,12.835209 17.4375,13.03125 C 18.229856,13.226218 19.198331,13.682152 20.21875,14.375 C 20.43494,14.52179 20.655008,14.772542 20.875,14.9375 z "
   transform="matrix(31.74256,0,0,31.74256,0,-132.6125)"
   style="fill:#33372e;fill-opacity:1;stroke:none;stroke-width:31.74259377;stroke-miterlimit:4;stroke-dasharray:none;stroke-opacity:1"
   id="path3210" /><path
   d="M 20.875,13.71875 L 20.875,12.625 C 19.144405,11.536618 17.709782,11.091069 16.59375,11.09375 C 15.670726,11.095968 14.960296,11.37105 14.46875,11.75 C 13.750291,12.303613 13.358073,13.127273 13.21875,14.0625 C 13.079427,14.997727 13.172545,16.041778 13.40625,17.125 C 13.873659,19.291444 14.888953,21.571786 15.8125,23.125 C 15.868127,23.21885 15.990769,23.25477 16.09375,23.21875 L 16.46875,23.09375 C 16.535262,23.070507 16.602317,23.004205 16.625,22.9375 C 16.647684,22.870795 16.632305,22.808972 16.59375,22.75 C 16.001586,21.841588 14.883178,19.597187 14.3125,17.40625 C 14.027161,16.310782 13.89327,15.240479 14,14.34375 C 14.10673,13.447021 14.451757,12.747451 15.15625,12.34375 C 15.871603,11.934031 16.703151,11.890479 17.65625,12.125 C 18.609349,12.359521 19.668783,12.890871 20.75,13.625 C 20.789814,13.652033 20.835111,13.691166 20.875,13.71875 z "
   transform="matrix(31.74256,0,0,31.74256,0,-132.6125)"
   style="fill:url(#radialGradient2883);fill-opacity:1;stroke:none;stroke-width:31.74259377;stroke-miterlimit:4;stroke-dasharray:none;stroke-opacity:1"
   id="path3204" /><path
   d="M 1483.5,54.53125 C 1478.873,54.526997 1474.3108,55.619345 1470.1875,57.71875 C 1470.1875,57.71875 1290.7877,330.52805 399,603.0625 C 244.7936,660.10889 233.54003,670.59138 212.59817,679.38224 C 81.008294,737.09195 41.75,767.34375 41.75,767.34375 C 32.270487,772.85963 26.668244,783.21052 27.234318,794.16341 C 27.800393,805.11629 34.439861,814.8345 44.4375,819.34375 L 63,827.71875 C 71.082563,831.3576 80.378426,831.13928 88.28125,827.125 L 201.625,769.53125 L 202.15625,769.28125 C 258.14444,746.8137 342.97248,715.92642 451.15625,688.1875 C 553.22363,666.4595 647.04797,635.9507 741.5625,613.03125 C 801.63645,598.46687 862.02581,580.68312 920.65625,560.25 C 843.5041,613.73454 781.5078,655.04386 762.9375,666.5 C 641.77624,741.23843 464.04906,865.54858 379.78125,940.84375 C 307.22814,1005.6941 201.875,1103.8125 201.875,1103.8125 C 196.28616,1109.0229 192.95541,1116.2115 192.59375,1123.8438 L 191.65625,1143.375 C 191.60296,1144.4893 191.6134,1145.6057 191.6875,1146.7188 C 191.6875,1146.7188 243.44128,1163.5587 246.46875,1160.5 C 249.49622,1157.4413 254.08215,1152.865 260.15625,1146.9688 C 272.30445,1135.1763 290.43461,1118.0854 314.15625,1097.0312 C 361.59953,1054.923 431.38468,997.05265 520.1875,934.59375 C 609.41296,872.80642 771.74415,761.92786 880.125,694.9375 C 996.08052,623.27686 1119.105,529.37012 1201.3438,465.53125 C 1301.2089,388.00928 1362.8563,320.12203 1389.375,289.84375 C 1456.6074,213.03001 1509.9375,98.15625 1509.9375,98.15625 C 1511.8666,94.033889 1512.8082,89.51857 1512.6875,84.96875 C 1512.6936,84.625027 1512.6936,84.281223 1512.6875,83.9375 C 1512.7208,76.166192 1509.6634,68.700416 1504.1887,63.184745 C 1498.7141,57.669073 1491.2713,54.55599 1483.5,54.53125 z "
   style="color:black;fill:#600;fill-opacity:1;fill-rule:nonzero;stroke:none;stroke-width:31.74258995;stroke-linecap:butt;stroke-linejoin:miter;marker:none;marker-start:none;marker-mid:none;marker-end:none;stroke-miterlimit:4;stroke-dasharray:none;stroke-dashoffset:0;stroke-opacity:1;visibility:visible;display:inline;overflow:visible"
   id="path3198"
   sodipodi:nodetypes="cccscsccccccscssccccssscssscsssc" /><path
   d="M 1483.4641,83.81316 C 1483.4641,83.81316 1254.3194,393.73678 412.2842,629.15799 C 265.28175,685.63168 504.3824,596.36735 289.65129,675.60985 C 159.76564,732.57216 56.462963,792.66853 56.462963,792.66853 L 75.043707,801.02987 L 188.38624,743.42956 L 190.24432,742.50052 C 247.09815,719.65195 333.60614,688.08885 443.87147,659.81621 C 544.02284,638.4961 638.70739,607.83241 734.66011,584.5642 C 895.23486,545.63433 1058.823,483.17848 1180.598,408.97617 C 1021.1059,529.95082 818.43812,666.65735 778.32485,691.40348 C 658.68342,765.20441 480.11227,890.45485 399.27768,962.68236 C 327.16916,1027.1354 221.83158,1125.2639 221.83158,1125.2639 L 220.90254,1144.7737 C 220.90255,1144.7738 323.61579,1037.057 503.32985,910.65625 C 592.73408,848.74513 755.18107,737.74507 864.72531,670.03562 C 978.81563,599.52768 1101.3433,506.10747 1183.3851,442.42151 C 1281.3318,366.38878 1341.3324,300.23803 1367.3345,270.54963 C 1429.9124,199.05363 1483.4641,85.67123 1483.4641,85.67123 L 1479.748,90.31642 C 1480.4098,89.02908 1483.4641,83.81316 1483.4641,83.81316 z "
   style="color:black;fill:#f35252;fill-opacity:1;fill-rule:nonzero;stroke:none;stroke-width:31.74258995;stroke-linecap:butt;stroke-linejoin:miter;marker:none;marker-start:none;marker-mid:none;marker-end:none;stroke-miterlimit:4;stroke-dasharray:none;stroke-dashoffset:0;stroke-opacity:1;visibility:visible;display:inline;overflow:visible"
   id="path2148"
   sodipodi:nodetypes="ccscccccscsscccsssccc" /><path
   d="M 1434.2812,132.96875 C 1434.2812,132.96875 1367.5275,366.52225 441.8125,638.25 C 416.24635,666.55077 633.37652,587.01985 729.59375,563.6875 C 888.30092,525.2104 1050.3585,463.16552 1169.4062,390.625 C 1174.8224,387.34692 1181.4083,386.62321 1187.4071,388.64691 C 1193.4059,390.6706 1198.2075,395.23588 1200.5312,401.125 C 1279.0921,336.69547 1328.3867,282.43947 1351.1875,256.40625 C 1383.123,219.91954 1413.1169,170.82182 1434.2812,132.96875 z "
   style="color:black;fill:url(#radialGradient2891);fill-opacity:1;fill-rule:nonzero;stroke:none;stroke-width:31.74258995;stroke-linecap:butt;stroke-linejoin:miter;marker:none;marker-start:none;marker-mid:none;marker-end:none;stroke-miterlimit:4;stroke-dasharray:none;stroke-dashoffset:0;stroke-opacity:1;visibility:visible;display:inline;overflow:visible"
   id="path3218"
   sodipodi:nodetypes="ccssscsc" /><path
   d="M 20.808578,14.893219 C 22.66621,16.286136 24.693863,18.259809 26.375,20.3125 C 29.383066,23.985354 30.751605,27.046973 31.21875,29.21875 C 31.451417,30.300428 31.445212,31.156822 31.34375,31.75 C 31.242288,32.343178 30.998576,32.657412 31,32.65625 C 30.645872,32.94521 29.943856,33.032864 29.25,32.9375 C 28.551615,32.841512 28,32.625 28,32.625 C 27.994444,32.62265 28.005601,32.595993 28,32.59375 C 27.938401,32.570079 27.877221,32.575396 27.8125,32.5625 L 27.15625,32.40625 C 26.573911,32.284847 25.986194,32.652967 25.8125,33.21875 C 25.638803,33.784537 25.923283,34.40066 26.46875,34.625 C 26.472024,34.62633 26.496711,34.623706 26.5,34.625 L 27.21875,34.90625 C 27.31988,34.950946 28.012638,35.273404 28.96875,35.4375 C 29.995946,35.613796 31.441688,35.655187 32.65625,34.78125 C 33.207924,34.384526 33.496019,33.783111 33.75,32.96875 C 34.010094,32.134776 34.170835,31.037815 34.03125,29.6875 C 33.752139,26.987391 32.337436,23.306691 28.53125,18.625 C 25.525445,14.927362 22.971836,12.755916 20.808578,11.518219 L 20.808578,14.893219 z "
   transform="matrix(31.74256,0,0,31.74256,0,-132.6125)"
   style="fill:#33372e;fill-opacity:1;stroke:none;stroke-width:31.74259377;stroke-miterlimit:4;stroke-dasharray:none;stroke-opacity:1"
   id="path2881" /><path
   d="M 20.723327,13.59849 C 22.849944,15.06906 25.208214,17.416485 27.09375,19.71875 C 30.174342,23.480157 31.617347,26.639903 32.125,29 C 32.632651,31.360098 32.168014,32.906597 31.59375,33.375 C 30.917556,33.92676 29.95036,33.957188 29.125,33.84375 C 28.299641,33.730313 27.65625,33.46875 27.65625,33.46875 C 27.64411,33.464085 27.637755,33.471291 27.625,33.46875 L 26.96875,33.3125 C 26.852904,33.288349 26.722229,33.355625 26.6875,33.46875 C 26.652772,33.581874 26.734309,33.704989 26.84375,33.75 L 27.5625,34.0625 C 27.562499,34.062501 28.221139,34.344872 29.125,34.5 C 30.02886,34.655128 31.184753,34.685318 32.09375,34.03125 C 32.368335,33.833791 32.655676,33.390744 32.875,32.6875 C 33.094324,31.984257 33.221383,31.015964 33.09375,29.78125 C 32.838486,27.311822 31.537684,23.800808 27.8125,19.21875 C 25.084909,15.863361 22.650175,13.716547 20.723327,12.50474 L 20.723327,13.59849 z "
   transform="matrix(31.74256,0,0,31.74256,0,-132.6125)"
   style="fill:url(#radialGradient2883);fill-opacity:1;stroke:none;stroke-width:31.74259377;stroke-miterlimit:4;stroke-dasharray:none;stroke-opacity:1"
   id="path2878" />
</svg>